<?xml version="1.0" encoding="utf-8"?>
<!-- Generator: Adobe Illustrator 16.0.0, SVG Export Plug-In . SVG Version: 6.00 Build 0)  -->
<!DOCTYPE svg PUBLIC "-//W3C//DTD SVG 1.1//EN" "http://www.w3.org/Graphics/SVG/1.1/DTD/svg11.dtd">
<svg version="1.1" xmlns="http://www.w3.org/2000/svg" xmlns:xlink="http://www.w3.org/1999/xlink" x="0px" y="0px" width="144px"
	 height="144px" viewBox="0 0 144 144" enable-background="new 0 0 144 144" xml:space="preserve">
<g id="Outline">
	<g>
		<g>
			<g>
				<g>
					<g>
						<path fill="#414042" d="M141.896,128.742c-0.018,0.783,0.191,0.501,0.229,0.619
							C142.077,128.051,141.841,128.772,141.896,128.742z"/>
						<polygon fill="#414042" points="141.419,115.8 141.505,116.03 141.296,114.121 						"/>
						<path fill="#414042" d="M141.423,103.701c-0.355,1.142,0.059,4.384-0.068,6.541l-0.082,0.353l0.287,0.973
							C141.515,108.947,141.323,105.544,141.423,103.701z"/>
						<path fill="#414042" d="M142.196,97.248c-0.139,0.399-0.121-1.396-0.045,1.505c0.02-0.145,0.025-0.189,0.035-0.271
							C142.188,98.221,142.192,97.86,142.196,97.248z"/>
						<path fill="#414042" d="M142.187,98.481C142.198,99.756,142.304,97.647,142.187,98.481L142.187,98.481z"/>
						<path fill="#414042" d="M142.108,92.597l0.123,1.678c0.082-0.353,0.102-1.847,0.16-1.289
							C142.323,91.261,142.243,91.616,142.108,92.597z"/>
						<path fill="#414042" d="M141.847,91.005l0.053,0.87C141.935,91.721,141.946,91.491,141.847,91.005z"/>
						<path fill="#414042" d="M142.011,93.717l-0.111-1.842c-0.057,0.24-0.174,0.266,0.041,0.844
							C141.835,92.57,141.937,92.934,142.011,93.717z"/>
						<path fill="#414042" d="M141.956,94.761c-0.078,0.942-0.127,2.16-0.25,0.477C141.755,98.445,142.007,97.975,141.956,94.761z"
							/>
						<path fill="#414042" d="M141.054,103.082l-0.104,1.259l0.119,1.091C141.011,104.887,141.167,103.006,141.054,103.082z"/>
						<path fill="#414042" d="M142.292,82.139c-0.076-0.105-0.201,0.565-0.299,0.688l0.088,1.24
							C142.132,83.431,142.181,82.223,142.292,82.139z"/>
						<path fill="#414042" d="M141.993,82.827l-0.131-1.853C141.847,82.63,141.909,82.935,141.993,82.827z"/>
						<polygon fill="#414042" points="141.45,90.703 141.726,93.753 141.448,90.117 						"/>
						<polygon fill="#414042" points="142.302,75.053 142.478,76.104 142.212,74.231 						"/>
						<path fill="#414042" d="M142.271,70.355c0.146,0.777,0.248-1.07,0.336-0.246c-0.025-1.277-0.15-2.367-0.262-3.347
							C142.407,67.804,142.39,68.917,142.271,70.355z"/>
						<path fill="#414042" d="M142.181,65.115c0.035,0.52,0.098,1.059,0.164,1.648C142.31,66.207,142.263,65.662,142.181,65.115z"/>
						<path fill="#414042" d="M141.899,77.812c0.047-0.144,0.166-0.42,0.217-1.459l-0.213,0.729
							C141.903,77.305,141.901,77.556,141.899,77.812z"/>
						<path fill="#414042" d="M141.897,77.107l0.006-0.025c0.006-0.79,0.01-1.341,0.012-1.576
							C141.913,75.708,141.907,76.189,141.897,77.107z"/>
						<path fill="#414042" d="M141.899,77.996c0-0.067,0-0.118,0-0.185C141.88,77.883,141.872,77.924,141.899,77.996z"/>
						<path fill="#414042" d="M141.644,85.841c-0.119-1.09-0.246-3.362-0.43-1.161C141.36,85.46,141.464,84.201,141.644,85.841z"/>
						<path fill="#414042" d="M141.632,78.901l-0.049,1.971c0.057-0.036,0.139-0.395,0.199,0.148L141.632,78.901z"/>
						<polygon fill="#414042" points="141.563,77.939 141.632,78.901 141.649,78.172 						"/>
						<path fill="#414042" d="M141.979,68.487c-0.092-0.85-0.1-1.781-0.115-2.833c-0.041,1.129-0.064,2.293-0.064,3.401
							C141.868,69.209,141.987,69.695,141.979,68.487z"/>
						<path fill="#414042" d="M141.921,72.679c-0.004-0.062-0.008-0.136-0.012-0.189C141.89,72.604,141.884,72.699,141.921,72.679z"
							/>
						<path fill="#414042" d="M141.866,55.299c-0.014,0.058-0.025,0.109-0.039,0.169c0.012,0.01,0.023,0.021,0.037,0.036
							L141.866,55.299z"/>
						<path fill="#414042" d="M141.761,69.244c-0.041,0.845,0.01,1.352,0.076,1.835c-0.021-0.632-0.035-1.305-0.037-2.023
							C141.771,68.983,141.749,68.971,141.761,69.244z"/>
						<path fill="#414042" d="M142.081,62.223c-0.045,0.443-0.084,0.942-0.119,1.469C142.03,63.262,142.136,62.382,142.081,62.223z"
							/>
						<path fill="#414042" d="M141.968,72.202c0.004,0.041,0.006,0.083,0.01,0.128C142.022,72.052,142.001,72.085,141.968,72.202z"
							/>
						<path fill="#414042" d="M141.968,72.202c-0.031-0.435-0.084-0.777-0.131-1.123c0.018,0.515,0.041,0.995,0.072,1.41
							C141.923,72.382,141.946,72.279,141.968,72.202z"/>
						<path fill="#414042" d="M140.495,52.162c0.197,0.151,0.381,2.379,0.168,4.301c0.148,1.891,0.799,0.655,1.164-0.996
							c-0.086-0.062-0.166-0.062-0.283-2.006c-0.107,0.681-0.254,4.319-0.432,2.676c-0.104-2.579,0.07-2.113,0.174-3.367
							c-0.246,1.064-0.359-3.28-0.721-2.72l0.127,2.262C140.636,52.356,140.546,51.535,140.495,52.162z"/>
						<path fill="#414042" d="M141.808,59.178l0.023,0.798c0.035-0.911,0.113-1.566,0.27-2.769c-0.098-1.336-0.17-1.612-0.236-1.704
							l-0.027,3.945L141.808,59.178z"/>
						<path fill="#414042" d="M141.833,63.574c-0.217-0.625-0.309-2.548-0.541-1.372c0.016,2.354,0.18,1.648,0.273,3.055
							c-0.053-3.797,0.119,1.09,0.242-1.653c0.037,0.747,0.047,1.417,0.057,2.049c0.035-0.682,0.068-1.341,0.098-1.962
							c-0.004,0.036-0.008,0.059-0.012,0.087v0.018l-0.004-0.002c-0.027,0.164-0.043,0.215-0.027,0.031
							c0-0.012-0.004-0.057-0.004-0.077C141.884,63.723,141.858,63.651,141.833,63.574c0.045-1.098,0.057-0.171,0.082,0.174
							c0.01,0.01,0.02,0.041,0.031,0.046l0.004-0.016l-0.119-3.802C141.802,60.783,141.808,61.788,141.833,63.574z"/>
						<path fill="#414042" d="M140.751,82.65c0.02-0.118,0.035-0.113,0.051-0.12C140.774,82.284,140.757,82.189,140.751,82.65z"/>
						<path fill="#414042" d="M140.882,81.087c0.029,0.276,0.115,0.507,0.094,1.404c-0.064,0.78-0.104-0.002-0.174,0.039
							c0.057,0.54,0.154,1.894,0.26,0.194l-0.029-0.267c0.072-1.53,0.342-3.498,0.371-3.229
							C141.21,79.674,141.071,80.068,140.882,81.087z"/>
						<path fill="#414042" d="M141.302,72.223l-0.105-3.167l-0.188,1.611l0.113-0.082C141.077,72.387,141.216,71.998,141.302,72.223
							z"/>
						<polygon fill="#414042" points="141.974,54.938 142.2,55.358 141.88,53.528 						"/>
						<polygon fill="#414042" points="141.946,50.826 142.144,50.977 142.024,49.89 						"/>
						<path fill="#414042" d="M4.199,59.817l0.056,0.929C4.238,60.306,4.219,60.022,4.199,59.817z"/>
						<path fill="#414042" d="M4.212,53.083l-0.098-0.164C4.168,53.231,4.208,53.359,4.212,53.083z"/>
						<path fill="#414042" d="M82.388,1.921c-1.357-0.185-2.871-0.471-2.707-0.249l0.416,0.217
							C81.044,1.851,81.769,1.875,82.388,1.921z"/>
						<path fill="#414042" d="M13.208,3.292c0.13-0.005,0.266,0.022,0.398,0.035c0.324-0.09,0.631-0.176,0.906-0.252
							C14.116,3.141,13.666,3.198,13.208,3.292z"/>
						<path fill="#414042" d="M12.441,4.316c0,0-0.103,0.004-0.254,0.035c-0.153,0.026-0.356,0.06-0.559,0.095
							c-0.207,0.027-0.409,0.072-0.557,0.12c-0.15,0.041-0.25,0.068-0.25,0.068C11.181,4.536,11.708,4.438,12.441,4.316z"/>
						<path fill="#414042" d="M4.429,96.593l0.221,1.085C4.648,95.979,4.537,96.726,4.429,96.593z"/>
						<path fill="#414042" d="M140.198,8.374c-0.557-1.177-1.229-1.983-1.836-2.656C139.39,6.925,139.825,8.119,140.198,8.374z"/>
						<path fill="#414042" d="M1.897,57.167c0.039,0.568,0.083,0.813,0.132,0.796C1.992,57.376,1.95,57.043,1.897,57.167z"/>
						<path fill="#414042" d="M135.382,3.441c0.188,0.133,0.373,0.265,0.564,0.401c0.828,0.462,1.602,1.046,2.416,1.875
							C137.616,4.833,136.583,3.927,135.382,3.441z"/>
						<path fill="#414042" d="M97.069,139.596c0.098,0.009,0.213,0.019,0.303,0.026C97.401,139.593,97.267,139.592,97.069,139.596z"
							/>
						<path fill="#414042" d="M136.073,139.711c-0.348,0.22-0.91,0.603-1.496,0.859c0.143-0.062,0.334-0.146,0.584-0.275
							C135.397,140.144,135.696,139.952,136.073,139.711z"/>
						<path fill="#414042" d="M142.04,34.276C142.054,35.146,142.063,34.414,142.04,34.276L142.04,34.276z"/>
						<path fill="#414042" d="M141.183,38.519c-0.025-0.187-0.055-0.328-0.105-0.348C141.13,38.242,141.163,38.362,141.183,38.519z"
							/>
						<path fill="#414042" d="M126.296,3.199c-0.025,0-0.045,0-0.076,0C126.481,3.24,126.435,3.232,126.296,3.199z"/>
						<path fill="#414042" d="M141.942,35.586c0.025-0.328,0.049-0.704,0.064-1.116C141.989,34.652,141.968,34.992,141.942,35.586z"
							/>
						<path fill="#414042" d="M142.044,35.412c-0.008,0.299-0.014,0.537-0.021,0.762C142.06,36.282,142.083,36.185,142.044,35.412z"
							/>
						<path fill="#414042" d="M142.028,33.058c0.004,0.502-0.006,0.967-0.021,1.413c0.014-0.169,0.025-0.24,0.033-0.194
							C142.038,34.02,142.034,33.657,142.028,33.058z"/>
						<path fill="#414042" d="M25.606,140.177c0.059,0.007,0.125,0.014,0.189,0.021C26.676,140.107,26.287,140.121,25.606,140.177z"
							/>
						<path fill="#414042" d="M59.68,4.174c0.041-0.004,0.062-0.006,0.1-0.011c-0.041-0.002-0.092-0.005-0.131-0.007L59.68,4.174z"
							/>
						<path fill="#414042" d="M56.548,4.335c1.333-0.27,2.093-0.237,3.101-0.18L58.616,3.53L56.548,4.335z"/>
						<path fill="#414042" d="M4.261,75.938l0.195-2.2c0.321,2.656,0.21,4.58,0.484,2.513c-0.679-0.312-0.07-8.551-0.748-8.858
							l0.143-1.451c-0.007,0.417,0.033,0.484,0.026,0.893c0.325-2.82-0.491-2.096-0.395-5.731c0.052-1.264,0.151-2.149,0.231-1.285
							l-0.168-2.825c0.013-0.819,0.131-0.62,0.118,0.199l-0.054-4.306l0.02,0.033c-0.106-0.614-0.271-2.006-0.341-2.687
							c0.097-1.095,0.072,0.548,0.157,0.269l-0.165-2.382c0.176-0.973,0.347,1.003,0.322,2.651c0.678-2.226-0.171-1.98,0.225-6.784
							l0.086,2.25c0.385-1.448,0.246-3.207,0.486-5.752c-0.125,0.604-0.605,5.097-0.774,2.508c0.051-0.727,0.076-1.689-0.061-3.086
							c0.242-0.01,0.182-1.374,0.168-3.081l0.32,0.118c-0.092-1.842-0.255-1.699-0.399-2.784c0.031-2.052,0.279-2.479,0.488-2.963
							c0.051-3.291-0.397,2.272-0.458-1.622c0.122-2.738-0.008-4.657-0.2-7.932c0.11-1.914,0.196,0.335,0.287-0.354L4,19.59
							c0.006-0.417,0.085-0.282,0.124-0.212c-0.099-1.433-0.319-0.118-0.406-2.37c-0.165-0.286-0.072-1.491,0.101-2.847
							c0.167-1.335,0.654-2.799,1.031-4.041c0.356-0.53,0.044,0.36,0.241,0.236c0.638-1.604,1.126-2.217,1.524-2.755
							c0.203-0.272,0.391-0.534,0.679-0.84c0.268-0.329,0.638-0.693,1.197-1.193c0,0,0.142-0.071,0.355-0.177
							c0.214-0.103,0.488-0.259,0.789-0.359c0.58-0.247,1.186-0.397,1.186-0.398c-0.452,0.094-0.66,0.118-0.689,0.068
							c-0.033-0.059,0.109-0.201,0.386-0.363c0.535-0.364,1.612-0.806,2.69-1.047c-0.354-0.004-0.683-0.008-0.972-0.012
							c-0.292,0.01-0.543,0.048-0.748,0.072c0,0,0.214-0.066,0.535-0.165c0.324-0.086,0.767-0.161,1.208-0.254
							c0.449-0.046,0.898-0.092,1.234-0.126c0.329-0.017,0.548-0.028,0.548-0.028c0.425,0.052,0.072,0.163-0.501,0.296
							c0.237-0.028,0.464-0.056,0.64-0.077c1.254,0.118,0.604,0.303-0.292,0.481c-0.434-0.073-0.838-0.102-1.254-0.153
							c-0.841,0.267-1.552,0.633-1.342,0.784c0.199-0.078,0.605-0.163,1.053-0.253c-0.205,0.085-0.33,0.152-0.231,0.169
							c0.114,0.005,0.442-0.101,0.981-0.199l0.773,0.334l0.192-0.142l4.588,0.223c3.28-0.359,6.136-0.887,11.343-1.035
							c-1.292,0.262-0.279,0.427-0.348,0.737c-1.42-0.328-4.035,0.139-6.732,0.072c1.408,0.035,1.098,0.183,0.74,0.234l4.813-0.298
							c-0.107,0.253,1.023,0.19,2.283,0.295c-0.952-0.501,3.587-0.334,5.547-0.487c0.12,0.168-0.348,0.34-2.738,0.299
							c2.635,0.377,3.406-0.588,5.993-0.268c-0.583,0.004-0.896-0.021-1.126,0.064c1.361-0.149,4.693-0.031,3.91,0.116L42.72,3.976
							c3.875,0.06,11.796,0.004,12.375-0.421c0.036,0.055-0.509,0.513-0.742,0.599l6.911-1.431
							c-0.609,0.365,1.727,1.235-1.484,1.441c0.923,0.052,2.065,0.113,4.009-0.016c-0.629-0.052-1.571-0.528-0.711-0.562
							c2.361,0.406,1.64,0.217,4.55,0.564c-0.942-0.079,0.104-0.651,1.597-0.633c-0.236,0.085,0.122,0.565-0.423,0.625l3.711-0.562
							c-0.927,0.101-0.164,0.477,0.667,0.635c-0.386-0.11,3.207,0.01,4.197-0.045l-1.574-0.13c4.188,0.085,4.137-0.791,8.293-0.761
							c-0.502,0.116-1.244,0.715,0.869,0.786c0.971-0.288,4.289-1.385,7.969-1.607l0.703,0.165l2.822-0.188
							c-1.758,0.433-6.688,1.345-9.381,1.7c1.57,0.131,0.439,0.194,2.785,0.18c0.828,0.154-1.279,0.234-1.971,0.243l5.467,0.1
							c-0.242-0.337,4.18-0.337,3.971-0.617l-5.938,0.348c-0.24-0.335,3.436-0.954,7.309-0.895c0.982,0.134-0.736,0.599-0.658,0.711
							c0.504-0.116,3.678-0.221,4.031-0.139l-1.643,0.18c2.156,0.126,3.52-0.446,6.109-0.125c0.896,0.021,2.672,0.433,2.826,0.233
							c-1.459-0.383-1.746-1.57-0.773-1.858c0.314,0.026,4.697,0.367,5.717,0.556c1.473,0.301-2.211,0.717-0.957,0.975
							c0.057-0.092,0.869-0.205,1.207-0.242c0.939,0.079-0.389,0.285,1.652,0.243c0.338-0.341,4.15,0.029,0.963-0.288
							c1.996-0.098,2.123,0.07,4.467,0.055c-0.746-0.22,2.104-0.75,4.105-0.847c-0.117,0.086,0.33,0.2,0.547,0.251
							c2.043,0.041,3.635-0.037,5.115,0.323c1.477,0.344,2.877,0.916,4.391,2.015c0.268,0.24,1.502,1.522,0.842,1.119
							c0.221,0.148,0.428,0.294,0.67,0.518c0.256,0.212,0.549,0.497,0.881,0.96c0.5,0.989,0.152,0.454-0.279-0.079
							c-0.412-0.558-0.982-1.046-0.549-0.339c0.064-0.01,0.223,0.112,0.428,0.334c0.209,0.218,0.488,0.518,0.734,0.9
							c0.553,0.728,1.004,1.736,1.309,2.489c0.074-0.28-0.213-1.2-0.752-2.15c-0.562-0.941-1.398-1.851-2.006-2.382
							c0.129-0.135,0.828,0.181,1.701,1.098c0.848,0.913,1.896,2.462,2.33,4.536c0.174,0.82,0.18,1.332,0.174,1.633
							c-0.006,0.302-0.037,0.396-0.072,0.405c-0.074,0.017-0.17-0.304-0.125-0.02c-0.066,5.957,0.738,5.073,0.436,10.018
							c-0.268,1.96-0.535,0.087-0.729,0.522c-0.102-2.58,0.172-3.961,0.16-5.711l-0.127,2.154c-0.09-0.824-0.158-2.546-0.08-3.485
							c-0.24,1.643-0.045,10.056-0.27,14.652c0.092,0.813,0.184,2.224,0.293,1.556l-0.039-1.454
							c0.217-1.335,0.301,2.738,0.402,0.896c0.152,1.95,0.391,4.135,0.27,6.881l-0.307,0.514c0.09-0.056,0.182-1.791,0.088-2.564
							c0.137,1.144-0.414,4.207-0.014,5.461l0.213-1.924c0.154,1.96,0.48,4.378,0.383,6.812c0.303-1.108-0.035-0.563,0.32-2.29
							c-0.441,1.497,0.018-6.221-0.445-3.815c0.412-1.773,0.174-3.07,0.525-5.389c-0.102,0.071-0.193,0.824-0.145-1.218
							c-0.029-0.092-0.066-0.312-0.088-0.45c0.004-0.062,0.004-0.082,0.008-0.138c-0.004,0.041-0.008,0.072-0.012,0.113
							c-0.016-0.087-0.02-0.095-0.006,0.043c-0.043,0.486-0.096,0.88-0.152,1.041c-0.232-1.013-0.225-4.263-0.346-5.358
							c0.049-1.213,0.115,0.507,0.225-0.156l-0.18-1.64c0.225-0.164,0.373-3.219,0.504-0.363l0.01-2.569
							c0.127-1.515,0.176-3.593,0.082-4.877c0.049-1.213-0.248-3.06-0.072-2.006l-0.141-4.028l0.057-0.036
							c-0.004-0.513,0.02-0.96-0.027-1.543l-0.057-0.837l-0.143-0.834c-0.076-0.562-0.279-1.101-0.426-1.653
							c-0.221-0.53-0.393-1.083-0.676-1.592c-1.027-2.085-2.609-3.946-4.637-5.449c-1.299-0.717-2.719-1.356-5.158-1.771
							c0,0-0.459-0.259-0.463-0.247c-0.891-0.026-2.225-0.066-3.434-0.102c-1.168-0.032-2.213-0.047-2.58,0.054
							c-1.855-0.522-8.342-0.114-11.361-0.207l-0.115,0.253c-2.08-0.014-4.076,0.058-6.656,0.16l0.158,0.224
							c-2.225,0.184-5.723-0.159-9.244-0.137c0.238-0.085,1.133-0.063,1.764-0.011c-4.207-0.506-8.875,0.369-12.689,0
							c-0.949,0.082-1.641,0.054-2.307-0.003c0.088,0,0.17-0.004,0.236-0.012c-0.098,0-0.24-0.001-0.389-0.002
							c-0.42-0.038-0.857-0.078-1.32-0.12c0.396,0.055,0.777,0.1,1.109,0.12c-0.734,0.005-1.848,0.033-2.938,0.089l-0.463-0.241
							c-0.09,0.002-0.16,0.004-0.254,0.007c-1.068-0.089-0.859,0.114-0.285,0.295c-0.551,0.039-1.055,0.087-1.443,0.145
							c-0.871-0.389-2.861,0.131-4.045-0.284c-0.734,0.202-5.479,0.152-6.063,0.577c-0.035-0.055-0.358-0.082,0.23-0.085
							c-1.213-0.049-2.428-0.097-3.518,0.023l-0.515-0.306l-2.656,0.412c-1.612-0.187-2.277-0.295-0.678-0.531
							c-3.866,0.362-3.135,0.137-6.423,0.496l0.162-0.198c-1.177,0.008-3.055,0.272-3.762,0.109
							c-2.63-0.376-13.004-0.052-19.751-0.402c1.308,0.583-3.134-0.261-3.403,0.19c-0.391-0.138-1.333-0.215-0.24-0.335
							c-3.442,0.136-5.171-0.219-7.551,0.162c-0.394-0.138,0.737-0.202,0.389-0.284c-0.276,0.03-1.095,0.12-1.454,0.038
							c-0.351-0.082,0.504-0.116,1.049-0.176c-3.516,0.023-3.874,0.448-4.13,0.847c-1.736-0.218-2.818-0.117-4.041,0.434
							c-0.65,0.042-1.783,0.166,0.477-0.427c-0.64,0.098-2.636,0.562-4.218,1.588C6.358,5.153,5.265,6.528,5.345,6.671
							C4.989,6.902,4.21,8.097,4.09,8.422c-0.751,1.25-1.003,2.016-1.25,2.76C2.64,11.94,2.41,12.704,2.369,14.139l0.098-0.786
							c0.29,1.164,0.021,2.306,0.062,4.497l-0.04-0.064c-0.278,5.01,0.133,2.165-0.184,7.104l0.24-0.269
							c0.516,0.46-0.304,4.378-0.107,7.244l0.137-1.034c0.177,1.566-0.701,4.375-0.766,5.947c-0.045,0.343-0.072-0.54-0.105-1.019
							c-0.304,4.117,0.314,0.532,0.388,3.603c-0.17,0.563-0.431-0.732-0.463,1.335c-0.137,1.029,0.55,5.988,0.226,8.805
							c0.13-0.622,0.261-1.236,0.359,0.187c0.046,2.186-0.494,5.906-0.082,7.879c-0.036,0.279-0.07,0.381-0.102,0.394
							c0.106,1.671,0.176,5.427,0.399,6.43C1.6,65.938,2.831,74.773,2.067,74.735l0.041,5.138L2.03,79.737
							c-0.05,3.283,0.133,4.445,0.316,5.597c-0.052,0.76-0.124,0.205-0.164,0.144c-0.154,4.795-0.122,5.273,0.259,9.293l-0.248,0.42
							c0.144,1.09-0.389,6.935-0.1,11.638c-0.028-0.046-0.076-0.144-0.111-0.517c0.291,5.294-0.688,12.671,0.215,14.61l0.222,3.495
							c0.07-4.519,0.392,0.671,0.542-1.188c0.053,1.776-0.272,4.596-0.319,2.411l0.045-0.343c-0.459-0.797-0.212,5.584-0.383,5.592
							c0.293,2.364,1.285,4.61,2.786,6.421c0.749,0.909,1.642,1.685,2.599,2.357c0.971,0.66,2.038,1.157,3.141,1.539
							c1.117,0.336,2.27,0.557,3.431,0.587c1.104,0.037,2.146,0.037,3.215,0.055c2.123,0.018,4.226,0.035,6.307,0.052l-0.957-0.365
							l2.904,0.021c0.763,0.085,1.023,0.285-1.049,0.271c1.09,0.207,3.477-0.174,3.534-0.253c4.058,0.148-1.584,0.426-0.338,0.436
							l1.689-0.027l-0.381-0.043c1.369-0.149,1.492-0.309,3.984-0.29c1.576,0.073,0.809,0.226,1.428,0.239
							c-0.005,0.026,0.205,0.039,0.952,0.011l3.659,0.031l-1.464-0.288c1.623-0.143,3.444,0.015,1.755-0.312
							c2.477,0.504,13.654,0.182,15.174,0.338c2.272-0.211,4.516-0.207,7.295-0.182c-0.69-0.061-1.103-0.385,1.292-0.345
							c-0.875,0.67,4.389,0.29,6.325,0.772c-1.729-0.319,6.812-0.079,4.097-0.533c1.998,0.055,0.119,0.251,1.641,0.409
							c4.758-0.26,10.484,0.169,16.371,0.081c0.092-0.088-0.896-0.223,0.367-0.354l3.107,0.439c1.162-0.043,1.068-0.508,3.191-0.202
							c-0.301-0.074-0.748-0.186,0.033-0.214c5.762,0.215,11.648,0.127,17.559,0.086c2.955-0.021,5.914-0.029,8.867,0.018
							c1.479,0.023,2.949,0.063,4.428,0.115c1.588,0.055,3.197-0.187,4.727-0.703c-1.701,0.415-0.582,0.075,0.602-0.486
							c-0.785,0.332-0.076-0.205-0.277-0.24c0,0,0.301-0.124,0.75-0.311c0.43-0.229,1.023-0.509,1.559-0.889
							c0.564-0.341,1.053-0.789,1.436-1.104c0.357-0.347,0.596-0.577,0.596-0.577c0.197-0.466,1.061-1.579,1.623-2.815
							c0.312-0.601,0.502-1.243,0.658-1.745c0.111-0.517,0.17-0.906,0.125-1.053c0,0-0.088,0.399-0.176,0.8
							c-0.072,0.405-0.223,0.789-0.223,0.789c0.193-1.086-0.268-0.406-0.797,0.393c-0.578,0.796-1.377,1.62-1.504,1.361
							c-0.41,1.038-1.5,2.107-2.881,2.927c-1.381,0.849-3.016,1.408-4.729,1.957c-0.785,0.021,0.641-0.254,0.205-0.3
							c-0.211,0.082-0.436,0.165-0.689,0.227c-0.254,0.044-0.535,0.079-0.854,0.108c-0.652,0.046-1.498,0.019-2.568-0.022
							l0.242-0.051c-6.041,0.05-8.633-0.152-15.418-0.287l0.5,0.236c-1.457-0.031-1.766-0.105-2.445-0.165
							c-1.674,0.358,4.094,0.021,2.568,0.416c-1.934-0.481-10.283-0.007-11.592-0.555c-2.244-0.003,0.658,0.274-1.586,0.271
							l-0.594-0.148l-0.568,0.191c-1.469-0.031-2.211-0.217-2.266-0.342c0.357,0.015,1.012-0.035,1.396-0.047
							c-1.908-0.174-5.379,0.061-6.033,0.003l2.154,0.092c-6.121,0.139-13.598-0.056-19.514,0.245l0.447,0.111
							c-4.516,0.207-3.618-0.122-8.58-0.026l0.182-0.026c-0.993,0.111-2.318,0.167-3.677,0.154c1.254-0.131-2.354-0.254-0.711-0.399
							c-4.9,0.222-2.426,0.175-5.66,0.59l-0.747-0.186c-1.1,0.168-1.192,0.257-3.669,0.305c2.032-0.159-1.581-0.282,0.693-0.493
							c-5.197-0.405-7.72,0.409-10.104-0.184c-2.385,0.514,4.498,0.285,3.163,0.395c1.121,0.168-1.97,0.384-3.603,0.332
							c-1.658-0.012-2.822-0.656-7-0.646c0.417,0.002,0.445-0.036,0.859-0.034c-1.563-0.131-3.062,0.177-4.979-0.035
							c-1.075,0.31-2.492-0.019-2.799,0.378l3.831-0.092c-2.172,0.104-4.209,0.566-7.786,0.342c0.276-0.08,1.341-0.185,2.072-0.243
							c-1.044-0.116-2.014,0.077-3.099-0.042c0.31-0.396,4.657-0.087,6.983-0.389c-1.121-0.167-4.401,0.287-3.231-0.143
							c-1.681,0.546-4.117-0.068-6.945,0.348l0.187-0.236c-0.448,0.037-1.377,0.148-2.201,0.143l1.494-0.308
							c-1.146,0.132-2.25,0.074-3.342,0.002c-1.156-0.058-1.998-0.188-2.983-0.29c0.998,0.176,1.562,0.19,1.865,0.237
							c0.304,0.046,0.378,0.075,0.332,0.126c-0.074,0.094-0.479,0.211,0.493,0.297c-2.741,0.182-3.394-0.385-4.116-0.773
							c-0.176-0.109-0.356-0.223-0.562-0.351c-0.198-0.146-0.426-0.301-0.711-0.474c-0.542-0.393-1.337-0.851-2.35-1.812
							c0.52,0.538,2.167,1.85,1.123,1.261c-0.886-0.64-1.801-1.761-2.065-2.37c-1.063-1.501-0.984-1.401-0.854-1
							c0.15,0.386,0.439,1.03-0.042,0.374c-0.379-1.26-1.022-1.581-1.516-3.24l0.232-0.062c-0.157-1.077-0.162-1.689-0.223-2.062
							c-0.042-0.401-0.1-0.553-0.163-0.679c-0.122-0.258-0.239-0.456-0.146-2.616l0.334,1.827l-0.086-2.252l0.274,0.466
							c-0.204-2.451-0.151-3.214-0.074-5.611c-0.17,0.558-0.438-0.314-0.445-2.438c0.144-1.448,0.229,0.813,0.195-2.198
							c0.15,0.678,0.34,1.425,0.118,2.735c0.078,0.133,0.151,0.671,0.229,0.809c0.165-1.561,0.038-3.92,0.036-5.01
							c-0.009,0.419-0.022,0.921-0.056,1.177l-0.334-4.365c0.09-0.686,0.164-0.141,0.235,0.399
							c-0.026-0.886-0.137-1.495-0.158-2.795c0.196,0.336,0.398,0.256,0.491,2.094l-0.218-4.156
							c0.085-0.278,0.234-2.134,0.307-1.597c0.115-2.303-0.381-5.654-0.229-8.71c-0.038-0.158-0.074-0.476-0.103-1.126
							c0.044-2.873,0.285-5.419,0.016-8.822l0.352-1.933c-0.08-2.666-0.443,2.615-0.576-1.824c-0.112-3.142,0.3-1.172,0.398-2.277
							c-0.177-1.561-0.538-4.278-0.251-7.167C4.287,74.295,4.235,75.048,4.261,75.938z M4.105,43.055
							c0.05,0.637,0.207,1.906,0.064,2.372C3.894,44.703,4.026,44.142,4.105,43.055z M18.041,3.68
							c-0.473,0.08-1.205,0.041-2.034-0.051C16.608,3.609,17.286,3.618,18.041,3.68z M141.845,24.711
							c-0.006-0.025-0.008-0.045-0.012-0.066C141.927,23.222,141.89,23.729,141.845,24.711z M141.739,27.664
							c0.033,0.296,0.066,0.276,0.102,0.151c-0.062-0.208-0.066-0.868-0.049-1.625C141.729,26.4,141.685,26.784,141.739,27.664z
							 M34.926,141.801l-0.573-0.063C35.647,141.668,35.284,141.73,34.926,141.801z"/>
						<path fill="#414042" d="M12.539,4.196c-0.171-0.016-0.229-0.053-0.274-0.086C12.047,4.219,12.049,4.235,12.539,4.196z"/>
						<path fill="#414042" d="M4.388,96.391l-0.003,0.1c0.015,0.057,0.029,0.085,0.043,0.103L4.388,96.391z"/>
						<path fill="#414042" d="M114.526,4.15c-0.607-0.035-0.947-0.079-1.172-0.125C113.323,4.085,113.599,4.135,114.526,4.15z"/>
						<path fill="#414042" d="M142.149,43.303l-0.062-1.888c0.012,0.914-0.041,1.238-0.08,1.702
							C142.063,43.073,142.146,42.715,142.149,43.303z"/>
						<path fill="#414042" d="M140.657,59.715c0.029,0.276,0.002,0.583,0.033,0.857l0.111-0.074
							C140.794,59.321,140.704,58.498,140.657,59.715z"/>
						<path fill="#414042" d="M141.349,45.054c-0.203,0.151-0.135,1.335-0.098,2.661c0-0.08,0-0.153,0-0.235
							C141.536,47.871,141.44,46.461,141.349,45.054z"/>
						<path fill="#414042" d="M141.259,48.022c0.01,0.409,0.014,0.824,0.004,1.223C141.378,49.401,141.286,48.749,141.259,48.022z"
							/>
						<path fill="#414042" d="M141.874,31.407c-0.053,0.627,0.26,0.394,0.176,0.75C142.31,32.858,141.737,27.971,141.874,31.407z"/>
						<polygon fill="#414042" points="140.679,46.128 140.931,45.652 140.728,44.91 						"/>
						<path fill="#414042" d="M140.862,35.67l-0.068,2.116c0.041-0.031,0.066,0.235,0.086,0.568
							C140.888,37.049,140.937,35.622,140.862,35.67z"/>
						<path fill="#414042" d="M140.88,38.354c-0.006,0.678,0,1.326,0.041,1.702C140.919,39.69,140.909,38.897,140.88,38.354z"/>
						<polygon fill="#414042" points="140.604,43.234 140.657,42.607 140.675,41.113 						"/>
						<path fill="#414042" d="M140.769,12.896c0,0-0.08-0.585-0.268-1.146c-0.143-0.572-0.381-1.109-0.381-1.109
							c-0.178-0.187,0.051,0.405,0.27,1.24C140.62,12.396,140.722,13.269,140.769,12.896z"/>
						<path fill="#414042" d="M140.226,19.905c0.053-0.624,0.107-0.665,0.189-1.018l-0.311-0.069L140.226,19.905z"/>
						<path fill="#414042" d="M140.054,13.242c-0.061-0.235-0.908-3.025-0.285-0.364C139.933,13.067,140.144,15.261,140.054,13.242z
							"/>
						<polygon fill="#414042" points="110.956,3.299 111.542,3.295 111.46,2.786 						"/>
						<path fill="#414042" d="M80.284,4.517c2.738,0.122,0.65-0.314,3.123-0.162c0.643-0.121-2.021-0.125-1.363-0.229
							C80.394,4.254,79.526,4.182,80.284,4.517z"/>
						<path fill="#414042" d="M82.044,4.127c0.266-0.024,0.545-0.05,0.846-0.077C82.411,4.081,82.185,4.105,82.044,4.127z"/>
						<path fill="#414042" d="M140.776,134.571c0.047,0.025,0.803-1.787,0.762-1.804c0,0-0.104,0.302-0.262,0.581
							c-0.146,0.28-0.295,0.561-0.295,0.561s-0.045,0.168-0.09,0.336C140.841,134.41,140.776,134.571,140.776,134.571z"/>
						<path fill="#414042" d="M141.415,130.936c0-0.001,0.389-0.408,0.377-0.412l-0.236-1.162
							C141.538,129.788,141.565,130.626,141.415,130.936z"/>
						<path fill="#414042" d="M4.759,38.165l-0.078-0.133c-0.084,0.271-0.091,0.686-0.104,1.51L4.759,38.165z"/>
						<polygon fill="#414042" points="4.516,62.033 4.523,61.624 4.229,62.392 						"/>
						<path fill="#414042" d="M4.891,82.063c0.012-0.816-0.053-1.775-0.041-2.6C4.903,81.247,4.525,82.286,4.891,82.063z"/>
					</g>
				</g>
			</g>
		</g>
	</g>
</g>
<g id="color">
</g>
<g id="under">
</g>
<g id="Over_Grid">
</g>
<g id="Horz">
	<g>
		
			<radialGradient id="SVGID_1_" cx="76" cy="93.25" r="31.0766" gradientTransform="matrix(1 0 0 1.5 0 -46.625)" gradientUnits="userSpaceOnUse">
			<stop  offset="0" style="stop-color:#ABA4A2;stop-opacity:0.5"/>
			<stop  offset="0.1668" style="stop-color:#B1AAA8;stop-opacity:0.4166"/>
			<stop  offset="0.6938" style="stop-color:#C3BAB8;stop-opacity:0.1531"/>
			<stop  offset="1" style="stop-color:#CCC2C0;stop-opacity:0"/>
		</radialGradient>
		<path fill="url(#SVGID_1_)" d="M81.227,121c0,5.661,19.161,11.5,13.5,11.5l-23.75-1.25c-5.661,0-10.25-4.589-10.25-10.25v-17.5
			V64.25c0-5.661-8.161-10.25-2.5-10.25h12.75c5.661,0,10.25,4.589,10.25,10.25v39.25V121z"/>
		<g>
			<g>
				<g>
					<g>
						<path fill="#414042" d="M83.661,120.749c-0.036,0.317,0.382,0.203,0.458,0.251C84.025,120.469,83.553,120.762,83.661,120.749z
							"/>
						<polygon fill="#414042" points="82.71,115.501 82.881,115.595 82.462,114.82 						"/>
						<path fill="#414042" d="M82.718,110.596c-0.714,0.463,0.115,1.777-0.139,2.652l-0.163,0.143l0.574,0.395
							C82.9,112.723,82.519,111.343,82.718,110.596z"/>
						<path fill="#414042" d="M84.262,107.979c-0.277,0.161-0.239-0.566-0.087,0.609c0.03-0.059,0.048-0.076,0.07-0.109
							C84.241,108.373,84.242,108.228,84.262,107.979z"/>
						<path fill="#414042" d="M84.245,108.479C84.266,108.996,84.479,108.141,84.245,108.479L84.245,108.479z"/>
						<path fill="#414042" d="M84.086,106.093l0.248,0.681c0.164-0.144,0.201-0.749,0.32-0.522
							C84.519,105.552,84.355,105.695,84.086,106.093z"/>
						<path fill="#414042" d="M83.564,105.447l0.105,0.354C83.738,105.738,83.763,105.645,83.564,105.447z"/>
						<path fill="#414042" d="M83.892,106.547l-0.222-0.746c-0.115,0.097-0.347,0.107,0.08,0.342
							C83.539,106.083,83.742,106.229,83.892,106.547z"/>
						<path fill="#414042" d="M83.783,106.971c-0.156,0.382-0.254,0.876-0.5,0.193C83.381,108.465,83.883,108.273,83.783,106.971z"
							/>
						<path fill="#414042" d="M81.979,110.345l-0.209,0.511l0.239,0.441C81.891,111.076,82.203,110.313,81.979,110.345z"/>
						<path fill="#414042" d="M84.455,101.853c-0.151-0.043-0.404,0.229-0.599,0.279l0.175,0.503
							C84.135,102.377,84.23,101.887,84.455,101.853z"/>
						<path fill="#414042" d="M83.856,102.132l-0.261-0.751C83.564,102.052,83.689,102.175,83.856,102.132z"/>
						<polygon fill="#414042" points="82.772,105.325 83.32,106.562 82.766,105.088 						"/>
						<polygon fill="#414042" points="84.475,98.979 84.826,99.406 84.295,98.646 						"/>
						<path fill="#414042" d="M84.413,97.075c0.291,0.315,0.493-0.435,0.672-0.1c-0.052-0.519-0.302-0.96-0.526-1.357
							C84.684,96.04,84.651,96.491,84.413,97.075z"/>
						<path fill="#414042" d="M84.23,94.95c0.07,0.21,0.195,0.43,0.328,0.668C84.49,95.393,84.395,95.172,84.23,94.95z"/>
						<path fill="#414042" d="M83.671,100.098c0.092-0.058,0.332-0.17,0.434-0.591l-0.427,0.296
							C83.676,99.893,83.673,99.994,83.671,100.098z"/>
						<path fill="#414042" d="M83.664,99.812l0.014-0.01c0.012-0.321,0.02-0.544,0.023-0.64
							C83.696,99.245,83.686,99.44,83.664,99.812z"/>
						<path fill="#414042" d="M83.669,100.173c0.001-0.027,0.001-0.048,0.002-0.075C83.629,100.127,83.615,100.144,83.669,100.173z"
							/>
						<path fill="#414042" d="M83.159,103.354c-0.239-0.441-0.495-1.363-0.859-0.471C82.592,103.199,82.8,102.688,83.159,103.354z"
							/>
						<path fill="#414042" d="M83.135,100.54l-0.098,0.799c0.113-0.015,0.277-0.159,0.396,0.061L83.135,100.54z"/>
						<polygon fill="#414042" points="82.999,100.15 83.135,100.54 83.171,100.244 						"/>
						<path fill="#414042" d="M83.83,96.317c-0.186-0.345-0.201-0.722-0.23-1.148c-0.084,0.457-0.13,0.93-0.129,1.379
							C83.605,96.61,83.846,96.807,83.83,96.317z"/>
						<path fill="#414042" d="M83.712,98.017c-0.008-0.025-0.018-0.054-0.024-0.076C83.651,97.986,83.64,98.025,83.712,98.017z"/>
						<polygon fill="#414042" points="83.602,90.97 83.524,91.038 83.598,91.053 						"/>
						<path fill="#414042" d="M83.391,96.624c-0.082,0.343,0.022,0.548,0.154,0.744c-0.043-0.256-0.07-0.529-0.074-0.82
							C83.41,96.519,83.37,96.514,83.391,96.624z"/>
						<path fill="#414042" d="M84.031,93.777c-0.09,0.18-0.166,0.382-0.235,0.596C83.932,94.199,84.143,93.842,84.031,93.777z"/>
						<path fill="#414042" d="M83.806,97.824c0.007,0.017,0.015,0.033,0.019,0.052C83.916,97.763,83.871,97.776,83.806,97.824z"/>
						<path fill="#414042" d="M83.806,97.824c-0.062-0.177-0.167-0.315-0.261-0.456c0.033,0.209,0.08,0.404,0.143,0.572
							C83.718,97.896,83.764,97.855,83.806,97.824z"/>
						<path fill="#414042" d="M80.859,89.698c0.396,0.061,0.762,0.965,0.337,1.744c0.297,0.767,1.6,0.266,2.328-0.404
							c-0.173-0.024-0.333-0.024-0.566-0.813c-0.216,0.276-0.506,1.752-0.864,1.086c-0.204-1.046,0.141-0.857,0.35-1.365
							c-0.494,0.432-0.719-1.33-1.443-1.104l0.255,0.917C81.143,89.776,80.962,89.443,80.859,89.698z"/>
						<path fill="#414042" d="M83.484,92.543l0.049,0.323c0.068-0.369,0.227-0.635,0.537-1.122c-0.193-0.542-0.34-0.653-0.473-0.691
							l-0.055,1.601L83.484,92.543z"/>
						<path fill="#414042" d="M83.535,94.325c-0.432-0.253-0.615-1.033-1.081-0.556c0.03,0.954,0.36,0.668,0.547,1.238
							c-0.106-1.539,0.24,0.442,0.484-0.67c0.073,0.303,0.096,0.574,0.114,0.831c0.052-0.277,0.117-0.545,0.196-0.796
							c-0.011,0.014-0.018,0.023-0.026,0.035l0.001,0.008l-0.007-0.001c-0.054,0.066-0.086,0.087-0.055,0.012
							c-0.006-0.004-0.008-0.022-0.01-0.031c-0.06-0.01-0.111-0.039-0.162-0.07c0.089-0.445,0.111-0.069,0.162,0.07
							c0.021,0.005,0.042,0.017,0.064,0.02l0.006-0.007l-0.236-1.542C83.473,93.193,83.485,93.602,83.535,94.325z"/>
						<path fill="#414042" d="M81.373,102.061c0.038-0.048,0.068-0.046,0.1-0.049C81.42,101.912,81.385,101.873,81.373,102.061z"/>
						<path fill="#414042" d="M81.633,101.426c0.061,0.112,0.232,0.206,0.188,0.57c-0.13,0.316-0.206-0.001-0.349,0.016
							c0.115,0.219,0.31,0.768,0.52,0.078l-0.059-0.107c0.147-0.621,0.686-1.419,0.744-1.31
							C82.29,100.854,82.014,101.014,81.633,101.426z"/>
						<path fill="#414042" d="M82.475,97.832l-0.212-1.284l-0.373,0.653l0.224-0.033C82.025,97.898,82.302,97.741,82.475,97.832z"/>
						<polygon fill="#414042" points="83.816,90.823 84.271,90.994 83.629,90.252 						"/>
						<polygon fill="#414042" points="83.762,89.156 84.158,89.218 83.919,88.776 						"/>
						<path fill="#414042" d="M63.102,91.629l0.112,0.377C63.179,91.827,63.142,91.712,63.102,91.629z"/>
						<path fill="#414042" d="M63.128,88.898l-0.195-0.066C63.041,88.959,63.12,89.011,63.128,88.898z"/>
						<path fill="#414042" d="M71.028,51.511c-0.645-0.357-1.448-0.884-1.333-0.451l0.233,0.42
							C70.378,51.39,70.728,51.42,71.028,51.511z"/>
						<path fill="#414042" d="M60.826,66.526l0.132-0.161c-0.148-0.133-0.288-0.257-0.415-0.372
							C60.629,66.156,60.726,66.337,60.826,66.526z"/>
						<path fill="#414042" d="M62.622,66.914l-0.28,0.724C62.439,67.476,62.533,67.243,62.622,66.914z"/>
						<path fill="#414042" d="M63.562,106.541l0.442,0.439C64.001,106.292,63.778,106.595,63.562,106.541z"/>
						<path fill="#414042" d="M83.602,72.074c0.17-0.475,0.241-0.852,0.262-1.182C83.615,71.463,83.241,71.924,83.602,72.074z"/>
						<path fill="#414042" d="M58.498,90.555c0.079,0.23,0.167,0.33,0.264,0.322C58.687,90.64,58.604,90.505,58.498,90.555z"/>
						<path fill="#414042" d="M83.862,69.522c-0.044,0.083-0.065,0.166-0.103,0.251c0.073,0.347,0.132,0.695,0.104,1.119
							C84.049,70.47,84.164,69.987,83.862,69.522z"/>
						<path fill="#414042" d="M86.007,129.562c0.084,0.021,0.175,0.044,0.256,0.064C86.069,129.559,86.024,129.553,86.007,129.562z"
							/>
						<path fill="#414042" d="M84.846,123.31c0.064,0.036,0.124,0.08,0.219,0.152c0.131,0.1,0.272,0.208,0.411,0.312
							C85.392,123.668,85.058,123.418,84.846,123.31z"/>
						<path fill="#414042" d="M83.951,82.445C83.979,82.799,83.999,82.502,83.951,82.445L83.951,82.445z"/>
						<path fill="#414042" d="M82.235,84.166c-0.049-0.076-0.11-0.133-0.211-0.142C82.129,84.054,82.195,84.103,82.235,84.166z"/>
						<path fill="#414042" d="M81.162,65.999c0-0.01,0.001-0.019,0.002-0.031C81.078,66.074,81.095,66.055,81.162,65.999z"/>
						<path fill="#414042" d="M83.754,82.977c0.053-0.133,0.098-0.285,0.129-0.452C83.85,82.599,83.807,82.736,83.754,82.977z"/>
						<path fill="#414042" d="M83.959,82.906c-0.017,0.122-0.029,0.218-0.042,0.31C83.989,83.259,84.035,83.22,83.959,82.906z"/>
						<path fill="#414042" d="M83.928,81.952c0.007,0.203-0.014,0.392-0.045,0.572c0.029-0.068,0.054-0.098,0.068-0.079
							C83.946,82.342,83.939,82.194,83.928,81.952z"/>
						<path fill="#414042" d="M66.448,128.692c0.011,0.022,0.027,0.042,0.037,0.07C66.838,128.769,66.708,128.722,66.448,128.692z"
							/>
						<path fill="#414042" d="M63.456,56.015c0.01-0.004,0.008-0.016,0.016-0.021c-0.017-0.005-0.039-0.011-0.056-0.015
							L63.456,56.015z"/>
						<path fill="#414042" d="M62.715,56.338c-0.066-0.54,0.277-0.474,0.702-0.359c0,0-0.348-0.312-0.696-0.625
							c-0.359-0.313-0.719-0.625-0.719-0.625s0.147,0.402,0.327,0.805C62.505,55.936,62.715,56.338,62.715,56.338z"/>
						<path fill="#414042" d="M63.227,98.166l0.39-0.893c0.642,1.077,0.42,1.857,0.969,1.019c-1.358-0.126-0.139-3.467-1.496-3.592
							l0.286-0.588c-0.013,0.169,0.067,0.196,0.053,0.362c0.65-1.144-0.982-0.85-0.789-2.324c0.104-0.513,0.301-0.872,0.462-0.521
							l-0.336-1.145c0.026-0.332,0.262-0.252,0.236,0.08l-0.108-1.746l0.04,0.014c-0.213-0.249-0.542-0.813-0.683-1.089
							c0.195-0.444,0.144,0.222,0.313,0.108l-0.329-0.966c0.352-0.395,0.693,0.407,0.643,1.075c1.356-0.903-0.342-0.804,0.45-2.751
							l0.172,0.912c0.771-0.587,0.491-1.3,0.972-2.332c-0.251,0.245-1.21,2.066-1.549,1.017c0.103-0.295,0.151-0.685-0.122-1.251
							c0.483-0.005,0.364-0.558,0.337-1.249l0.64,0.047c-0.185-0.746-0.51-0.688-0.798-1.128c0.063-0.833,0.559-1.006,0.976-1.202
							c0.102-1.334-0.794,0.922-0.915-0.657c0.245-1.11-0.017-1.889-0.399-3.217c0.22-0.776,0.391,0.136,0.574-0.144l-0.51-0.688
							c0.012-0.169,0.169-0.113,0.248-0.086c-0.198-0.581-0.639-0.048-0.813-0.961c-0.705-0.244,1.03-1.871,0.229-3
							c0.182-0.278,0.392,0.135,0.64,0.049c-0.525-1.548-0.381-1.327-1.088-2.6l0.42-1.083c-0.48,0.797-1.049-0.22-1.516-1.111
							c-0.232,0.282-0.435,0.524-0.532,0.686l-0.343-1.421c0.105-0.172,0.325-0.029,0.592,0.203
							c-0.053-0.096-0.105-0.188-0.153-0.259c0.236-0.508,0.605-0.245,0.963,0.118l-0.395,0.513c0.389,0.351,0.819,0.68,1.193,0.606
							c-0.074-0.091-0.137-0.27-0.173-0.465c0.105,0.091,0.2,0.149,0.264,0.108c0.067-0.049-0.074-0.197-0.237-0.43l0.713-0.324
							l-0.283-0.078c0,0,0.111-0.465,0.223-0.93c0.055-0.237,0.11-0.474,0.152-0.652c0.032-0.236,0.054-0.394,0.054-0.394
							c-0.411-0.88-1.019-1.533-1.645-2.157c-0.634-0.623-1.292-1.235-1.966-2.05c0.722,0.184,0.789-0.347,1.355-0.608
							c-0.293,0.784,1.137,1.399,1.419,2.73c-0.152-0.666,0.167-0.631,0.326-0.493c0,0-0.34-0.528-0.719-0.975
							c-0.372-0.458-0.769-0.848-0.769-0.847c0.483-0.176,0.038-0.702,0.166-0.88c-0.798,0.593-1.094-0.466-1.792-0.895
							c0.412,0.012,0.909,0.122,1.103,0.535c0.262-0.272-0.146-0.345-0.67-0.558c-0.504-0.186-1.126-0.504-0.87-0.698
							c0.101,0.134,0.08,0.192,0.354,0.287c-0.311-0.183-0.529-0.471-0.561-0.653c-0.037-0.186,0.125-0.249,0.396-0.068l0.073,0.127
							c-0.041-0.167-0.201-0.479,0.018-0.723c0.224-0.203,0.523-0.237,0.749-0.315c0.09-0.036,0.284-0.072,0.431-0.118
							c0.147-0.046,0.271-0.101,0.364-0.165c0.184-0.128,0.242-0.294,0.088-0.507c0.117,0.11,0.826,1.025,0.928,1.197
							c0,0-0.154-0.715-0.11-1.431c0.008-0.179,0.026-0.358,0.049-0.526c0.045-0.148,0.104-0.279,0.152-0.397
							c0.107-0.235,0.179-0.391,0.179-0.391c0.092,0.316,0.635,0.833,1.141,1.443c0.475,0.578,0.785,1.116,0.42,1.322
							c0.398,0.104,0.845,0.226,1.316-0.032c-0.267-0.104-1.289-1.056-1.018-1.123c1.403,0.813,0.916,0.435,2.305,1.128
							c-0.406-0.157-0.673-1.302-0.063-1.266c-0.004,0.171,0.575,1.131,0.449,1.25c0,0,0.171-0.281,0.385-0.562
							c0.209-0.281,0.46-0.562,0.46-0.562c-0.274,0.203,0.299,0.953,0.669,1.271c-0.197-0.22,1.067,0.021,1.367-0.091l-0.585-0.261
							c1.421,0.186,1.246-1.618,2.937-1.486c-0.232,0.222-0.509,1.404,0.18,1.583c0.187-0.25,0.641-0.914,1.343-1.448
							c0.691-0.537,1.657-0.939,2.531-0.789l0.149,0.437c0,0,0.33,0.045,0.657,0.12c0.325,0.087,0.65,0.175,0.65,0.175
							c-0.574,0.137-1.559,0.368-2.451,0.702c-0.91,0.34-1.713,0.784-2.208,1.048c0.447,0.36,0.056,0.414,0.782,0.558
							c0.149,0.361-0.511,0.354-0.706,0.322c0,0,0.094,0.038,0.236,0.094c0.14,0.057,0.332,0.117,0.505,0.221
							c0.177,0.092,0.354,0.183,0.485,0.252c0.125,0.083,0.208,0.137,0.208,0.137c0.104-0.313,0.471-0.354,0.83-0.316
							c0.354,0.039,0.731,0.094,0.858-0.15c0,0-0.521-0.128-1.021-0.196c-0.25-0.023-0.499-0.046-0.686-0.063
							c-0.188,0.002-0.312,0.004-0.312,0.004c0.077-0.318,0.511-0.708,1.109-0.82c0.303-0.067,0.652-0.087,0.986,0.003
							c0.346,0.068,0.683,0.227,0.952,0.481c0.122,0.425-0.938,0.793-1.03,1.003c0.127-0.04,0.451,0.037,0.716,0.192
							c0.262,0.158,0.494,0.351,0.479,0.448l-0.645-0.099c0.173,0.323,0.531,0.345,0.86,0.468c0.346,0.099,0.658,0.307,0.652,0.84
							c0.153,0.28-0.29,1.179,0.086,1.013c0.444-0.736,2.346-2.184,3.078-2.085c0.026,0.069,0.131,0.633,0.155,1.235
							c0.042,0.597-0.05,1.239-0.147,1.486c-0.214,0.384-0.6,0.25-1.013,0.162c-0.406-0.098-0.791-0.168-0.961,0.119
							c0.175-0.045,0.5,0.145,0.597,0.244c-0.069,0.363-0.579,0.034-0.327,0.68c0.729-0.044,0.17,1.437,0.637,0.208
							c0.306,0.684-0.011,0.775,0.051,1.601c0.44-0.315,1.511,0.831,1.7,1.647c-0.174-0.048-0.398,0.134-0.502,0.222
							c-0.062,1.659-0.371,2.55-0.377,4.096c-0.165,0.143-0.365,0.89-0.658,0.572c0.121,0.223,0.352,0.427,0.368,0.903
							c-0.589,0.924-0.092-1.063-0.8-0.359c0.396,0.061,0.547,1.234,0.794,1.914c0.612-0.21,0.117-1.571-0.13-2.252
							c0.844-0.002,1.728,1.184,2.117,2.799c0.21,1.285-0.545,0.558-0.425,0.781c-0.147,2.412,1.474,2.056,0.864,4.061
							c-0.537,0.795-1.069,0.035-1.457,0.212c-0.203-1.046,0.342-1.606,0.32-2.315l-0.255,0.873
							c-0.179-0.334-0.314-1.033-0.159-1.413c-0.482,0.666-0.092,4.077-0.538,5.94c0.181,0.33,0.366,0.901,0.583,0.631l-0.075-0.589
							c0.434-0.542,0.6,1.11,0.802,0.363c0.305,0.79,0.784,1.676,0.539,2.789l-0.613,0.209c0.18-0.022,0.365-0.727,0.179-1.04
							c0.271,0.464-0.83,1.706-0.027,2.215l0.425-0.78c0.309,0.794,0.959,1.774,0.766,2.762c0.605-0.449-0.069-0.229,0.639-0.929
							c-0.881,0.607,0.037-2.522-0.889-1.547c0.822-0.719,0.349-1.245,1.05-2.186c-0.202,0.029-0.387,0.335-0.287-0.493
							c-0.06-0.038-0.134-0.127-0.179-0.183c0.007-0.024,0.01-0.033,0.016-0.057l-0.023,0.046c-0.031-0.035-0.037-0.038-0.009,0.018
							c-0.089,0.197-0.194,0.357-0.308,0.423c-0.465-0.411-0.449-1.729-0.689-2.173c0.096-0.492,0.231,0.205,0.447-0.063
							l-0.359-0.665c0.449-0.066,0.746-1.305,1.01-0.147l0.02-1.041c0.252-0.614,0.352-1.457,0.163-1.979
							c0.097-0.491-0.497-1.24-0.146-0.812l-0.278-1.633l0.112-0.016c0.057-1.611-0.744-3.317,0.066-5.16
							c-0.113-0.543-0.252-1.104-0.124-2.012l0.389-0.177c-0.136-0.696,0.389-2.092-0.017-2.391c0.262-0.188,0.407-0.494,0.48-0.865
							c0.057-0.438,0.044-1.057-0.045-1.636c-0.197-1.189-0.661-2.373-0.88-3.145l-0.496,0.122
							c-0.345-1.009-0.956-1.877-1.868-2.803l-0.318,0.324c-0.235-0.16-0.432-0.389-0.631-0.656
							c-0.212-0.254-0.417-0.555-0.635-0.879c-0.235-0.306-0.491-0.629-0.77-0.949c-0.302-0.292-0.624-0.588-0.987-0.822
							c0.197-0.086,0.528,0.227,0.714,0.493c-0.504-1.067-1.657-1.473-2.712-1.713c-1.102-0.192-2.111-0.243-2.98-0.725
							c-0.486,0.082-0.806-0.006-1.128-0.126c0.043,0.001,0.083-0.005,0.118-0.018c-0.048-0.008-0.118-0.013-0.191-0.015
							c-0.203-0.088-0.417-0.188-0.65-0.27c0.199,0.117,0.384,0.216,0.546,0.266c-0.371-0.022-0.905,0.039-1.401,0.172l-0.246-0.469
							c-0.043,0.006-0.076,0.011-0.121,0.018c-0.531-0.157-0.386,0.236-0.091,0.584c-0.248,0.084-0.469,0.184-0.632,0.301
							c-0.516-0.742-1.246,0.28-1.97-0.496c-0.246,0.393-2.476,0.359-2.371,1.136c-0.062-0.101-0.226-0.146,0.031-0.157
							c-0.573-0.08-1.17-0.154-1.53,0.068l-0.547-0.539c0,0-0.188,0.188-0.376,0.376c-0.172,0.185-0.345,0.37-0.345,0.37
							c-0.922-0.315-1.398-0.487-0.954-0.915c-1.294,0.666-1.282,0.275-2.185,0.9L58.589,52.8c-0.527,0.026-0.884,0.469-1.485,0.209
							c-0.441-0.084-1.012-0.073-1.586,0.207c-0.284,0.121-0.614,0.385-0.751,0.795c-0.135,0.398-0.071,0.772-0.003,1.147
							c0.163,0.745,0.499,1.58,1.001,2.513c0.526,0.937,1.154,1.883,1.549,2.842c0.155-0.3,0.274-0.324,0.364-0.22
							c0.085,0.099,0.186,0.388,0.183,0.556c0.051,0.406,0.045,0.835,0.473,0.682c-0.188,0.249-0.199,0.586-0.569,0.367
							c0.365,0.449,0.402,0.87,0.438,1.196c0.047,0.337,0.097,0.57,0.507,0.862c-0.268,0.12-0.417-0.156-0.574-0.051
							c0.07,0.058,0.249,0.251,0.095,0.34c-0.159,0.096-0.241-0.127-0.363-0.225c0.007,0.103,0.033,0.157,0.065,0.272
							c0.029,0.141,0.069,0.264,0.119,0.372c0.099,0.216,0.234,0.371,0.393,0.484c0.318,0.228,0.73,0.29,1.128,0.342
							c-0.377,0.722-0.324,1.083,0.199,1.604c-0.261,0.252-0.534,0.672-0.627-0.214c-0.038,0.498-0.382,3.044,0.257,3.096
							c-0.162,0.155-0.047,0.696,0.026,0.828c-0.038,1.119-0.096,1.215-0.035,2.315l0.104-0.305
							c0.771,0.434,0.172,0.914,0.265,1.799l-0.079-0.026c-0.556,2.032,0.267,0.878-0.368,2.88l0.479-0.108
							c1.032,0.187-0.608,1.775-0.214,2.938l0.274-0.42c0.353,0.636-1.403,1.774-1.532,2.411c-0.09,0.14-0.144-0.219-0.21-0.412
							c-0.608,1.669,0.628,0.216,0.774,1.46c-0.339,0.229-0.862-0.296-0.925,0.542c-0.274,0.417,1.1,2.428,0.45,3.57
							c0.261-0.252,0.522-0.501,0.718,0.075c0.093,0.887-0.987,2.395-0.164,3.195c-0.071,0.112-0.14,0.154-0.205,0.159
							c0.212,0.678,0.353,2.201,0.799,2.607c-1.657,0.627,0.806,4.209-0.722,4.193l0.082,2.084l-0.156-0.056
							c-0.101,1.332,0.265,1.803,0.632,2.27c-0.104,0.308-0.247,0.083-0.327,0.058c-0.308,1.944-0.243,2.139,0.518,3.769
							l-0.496,0.17c0.288,0.442-0.777,2.812-0.199,4.719c-0.056-0.019-0.152-0.058-0.222-0.209c0.582,2.146-1.375,5.138,0.43,5.924
							l0.445,1.417c0.14-1.832,0.783,0.272,1.083-0.481c0.106,0.721-0.544,1.864-0.637,0.978l0.09-0.139
							c-0.941-0.325-0.333,2.277-0.974,2.229l0.006,0.688l0.029,0.777c0.004,0.519,0.105,1.03,0.156,1.545
							c0.2,1.013,0.433,2.034,0.864,2.978c0.783,1.921,2.126,3.598,3.778,4.791c0,0,0.013-0.218,0.025-0.437
							c0.019-0.214,0.037-0.429,0.037-0.429c0,0,0.257,0.216,0.53,0.41c0.281,0.183,0.562,0.366,0.562,0.366
							c0.216,0.328,0.14,0.755-0.707,0.205c0.116,0.308,0.524,0.475,0.917,0.493c0.396,0.018,0.75-0.069,0.794-0.136
							c0.799,0.52,0.583,0.62,0.167,0.67c-0.4,0.021-0.957-0.097-0.681,0.049c0,0,0.195,0.078,0.391,0.156
							c0.195,0.078,0.4,0.131,0.4,0.13l-0.145-0.145c0.751-0.06,0.876-0.279,2.005,0.031c0.69,0.322,0.286,0.521,0.573,0.608
							c-0.012,0.051,0.087,0.092,0.458,0.092c0,0,0.448,0.099,0.868,0.12c0.425,0.037,0.852,0.071,0.852,0.071l-0.646-0.607
							c0.756-0.236,1.507,0.067,0.797-0.589c0.514,0.518,2.022,0.615,3.463,0.635c1.443,0.019,2.804-0.034,3.182,0.101
							c0.871-0.342,1.817-0.306,3.042-0.247c-0.353-0.096-0.793-0.606,0.237-0.508c0.252,0.996,2.138,0.484,3.555,1.156
							c-1.141-0.444,2.921-0.093,1.119-0.69c0.933,0.087,0.391,0.324,1.279,0.529c0.869-0.157,2.066-0.087,3.402-0.013
							c1.329,0.077,2.801,0.157,4.028,0.115c-0.145-0.079-0.852-0.21-0.575-0.322c0,0,0.573,0.103,1.146,0.205
							c0.587,0.095,1.174,0.19,1.174,0.19c0.214-0.02,0.049-0.126,0.03-0.193c-0.009-0.033,0.019-0.058,0.15-0.057
							c0.065,0,0.158,0.006,0.285,0.02c0.101,0.003,0.221,0.007,0.371,0.011c-0.235-0.027-0.624-0.088-0.464-0.161
							c0.246-0.057,0.551-0.044,0.691-0.358c0.021-0.286-0.119-0.403-0.216-0.556c-0.225-0.282-0.474-0.522-0.767-0.787
							c-0.592-0.524-1.353-1.109-2.287-1.819c-0.467-0.354-0.993-0.744-1.65-1.164l-2.176-1.316
							c-1.482-0.921-2.805-1.877-4.052-3.258c0.569,0.812-0.044,0.44-0.633,0.016c0.321,0.34-0.323,0.302-0.417,0.528
							c0,0-0.1-0.131-0.249-0.327c-0.169-0.214-0.235-0.38-0.359-0.602c-0.223-0.417-0.377-0.821-0.377-0.821
							c-0.338,0.124-0.651-0.202-0.862-0.507c-0.222-0.311-0.321-0.562-0.636-0.519c-0.015,0,0.275,0.336,0.275,0.336
							c-0.465-0.089-0.775,0.239-0.956,0.802c-0.189,0.546-0.219,1.253-0.632,1.504c0.667,0.151,0.887,0.832,1.29,1.544l0.297,0.486
							c0.058,0.11,0.12,0.204,0.196,0.271c0.159,0.139,0.396,0.192,0.907,0.185c-0.024,0.215-0.454,0.055-0.577,0.233
							c0.563-0.099,0.974,0.08,1.184,0.415l-0.186-0.003c1.39,0.738,1.31,1.066,1.599,1.468l1.201,0.185
							c0.12,0.121-0.248,0.067-0.479,0.057c2.425,0.593-0.657-0.378,1.806,0.167c-1.056-0.101-0.599,0.134-0.161,0.391
							c0.423,0.241,0.788,0.533-1.24,0.048c0.002,0.095,0.039,0.127,0.229,0.194c0.174,0.063,0.438,0.14,0.706,0.214
							c0.529,0.136,1.084,0.312,0.829,0.351l-1.178-0.34l1.222,0.455c-0.639-0.089-2.115-0.543-2.954-0.837
							c0.195,0.04,0.03-0.069,0.055-0.089c-1.645-0.437-0.986,0.067-1.54-0.076l1.139,0.243c-0.39,0.118-1.435,0.035-2.325,0.001
							c-0.907-0.035-1.667-0.021-1.932,0.267l0.594,0.255c-0.289,0.191-0.726,0.107-1.183-0.006
							c-0.469-0.114-0.966-0.257-1.574-0.193l-0.027-0.055c0.046,0.226-0.232,0.323-0.707,0.272
							c0.021-0.261-1.379-0.582-1.266-0.865c-0.397,0.201-0.502,0.282-0.469,0.42c0.02,0.137,0.188,0.33,0.038,0.737l-0.598-0.402
							c-0.059,0.333,0.056,0.516-0.765,0.569c0.252-0.146-0.004-0.302-0.232-0.468c-0.235-0.166-0.438-0.344-0.246-0.545
							c-1.059-0.462-1.426-0.275-1.859-0.141c-0.404,0.137-0.816,0.227-1.241-0.39c-0.613,0.995,1.511,0.649,1.144,0.851
							c0.516,0.362-0.457,0.744-1.102,0.606c-0.311-0.027-0.583-0.37-0.918-0.712c-0.365-0.344-0.821-0.66-1.48-0.773
							c0.135,0.024,0.157-0.051,0.29-0.026c-0.231-0.163-0.487-0.11-0.758-0.123c-0.271,0.004-0.569-0.019-0.785-0.339
							c-0.564,0.475-0.729-0.342-1.164,0.325c0,0,0.318,0.121,0.648,0.194c0.327,0.071,0.655,0.143,0.655,0.143
							c-0.376-0.043-0.841,0.136-1.328,0.101c-0.496,0-1.04-0.174-1.463-0.738c0.169-0.056,0.619-0.034,0.897-0.002
							c-0.194-0.377-0.694-0.246-0.854-0.681c0.293-0.289,0.604-0.061,1.028,0.149c0.399,0.242,0.918,0.476,1.374,0.336
							c-0.188-0.41-1.532-0.112-0.794-0.686c-0.479,0.326-0.796,0.149-1.047-0.149c-0.283-0.273-0.513-0.617-1.151-0.639
							l0.378-0.297c-0.16-0.036-0.513-0.118-0.693-0.324c0,0,0.197-0.014,0.393-0.026c0.189-0.02,0.379-0.038,0.379-0.038
							c-0.426-0.078-0.588-0.416-0.656-0.776c-0.101-0.345-0.09-0.715-0.39-0.916c0.356,0.579,0.288,0.723,0.125,0.81
							c-0.167,0.091-0.443,0.111-0.389,0.47c-0.809-0.605-0.661-1.049-0.452-1.455c0.202-0.421,0.439-0.819,0.096-1.674
							c0.101,0.221,0.014,1.001-0.332,0.688c-0.016-0.393,0.026-0.909,0.25-1.167c-0.29-1.221-0.45,0.268-0.823-0.229
							c0.501-0.528-0.287-0.59-0.503-1.305l0.482-0.007c0.31-1.944-1.005-0.515-0.631-2.266l0.669,0.74l-0.173-0.913l0.549,0.189
							c-0.407-0.994-0.302-1.304-0.148-2.275c-0.34,0.227-0.875-0.128-0.891-0.989c0.287-0.587,0.458,0.33,0.39-0.891
							c0.302,0.274,0.681,0.578,0.236,1.109c0.157,0.054,0.303,0.271,0.458,0.327c0.33-0.633,0.075-1.589,0.071-2.031
							c-0.018,0.17-0.044,0.374-0.113,0.478l-0.668-1.771c0.181-0.277,0.327-0.057,0.469,0.162
							c-0.052-0.359-0.274-0.605-0.315-1.133c0.392,0.136,0.797,0.104,0.981,0.849l-0.435-1.685c0.17-0.113,0.468-0.866,0.613-0.647
							c0.23-0.935-0.761-2.293-0.457-3.532c-0.076-0.064-0.149-0.192-0.205-0.456c0.089-1.165,0.57-2.198,0.032-3.578l0.703-0.783
							c-0.16-1.081-0.886,1.061-1.151-0.739c-0.224-1.274,0.6-0.476,0.795-0.924c-0.354-0.633-1.076-1.734-0.503-2.906
							C63.278,97.5,63.174,97.805,63.227,98.166z M62.915,84.833c0.101,0.258,0.414,0.772,0.129,0.961
							C62.491,85.501,62.756,85.273,62.915,84.833z M61.753,64.563c0.16,0.192,0.081,0.489-0.102,0.825
							C61.612,65.145,61.63,64.87,61.753,64.563z M83.559,78.567c-0.008-0.011-0.014-0.019-0.023-0.027
							C83.723,77.964,83.648,78.169,83.559,78.567z M83.35,79.765c0.066,0.12,0.134,0.112,0.201,0.062
							c-0.122-0.084-0.131-0.352-0.096-0.659C83.328,79.252,83.241,79.408,83.35,79.765z M68.997,133.01l-0.25-0.166
							C69.379,132.801,69.189,132.897,68.997,133.01z"/>
						<path fill="#414042" d="M62.414,66.862c-0.082,0.072-0.171,0.093-0.262,0.11C62.232,67.073,62.326,67.075,62.414,66.862z"/>
						<path fill="#414042" d="M63.48,106.459l-0.005,0.04c0.029,0.022,0.058,0.034,0.087,0.042L63.48,106.459z"/>
						<path fill="#414042" d="M78.9,61.841c0.009-0.21,0.044-0.342,0.106-0.444C78.89,61.427,78.836,61.545,78.9,61.841z"/>
						<path fill="#414042" d="M84.169,86.106l-0.126-0.766c0.024,0.37-0.081,0.502-0.158,0.689
							C83.998,86.013,84.161,85.867,84.169,86.106z"/>
						<path fill="#414042" d="M81.184,92.761c0.059,0.112,0.006,0.236,0.066,0.348l0.225-0.03
							C81.459,92.601,81.279,92.267,81.184,92.761z"/>
						<path fill="#414042" d="M82.566,86.815c-0.406,0.062-0.269,0.542-0.193,1.079c-0.002-0.032-0.005-0.062,0-0.095
							C82.941,87.958,82.753,87.387,82.566,86.815z"/>
						<path fill="#414042" d="M82.387,88.02c0.02,0.166,0.029,0.334,0.01,0.496C82.625,88.578,82.444,88.313,82.387,88.02z"/>
						<path fill="#414042" d="M83.618,81.282c-0.104,0.255,0.519,0.16,0.354,0.305C84.488,81.871,83.347,79.89,83.618,81.282z"/>
						<polygon fill="#414042" points="81.229,87.252 81.73,87.059 81.326,86.758 						"/>
						<path fill="#414042" d="M81.597,83.011l-0.139,0.858c0.084-0.013,0.134,0.096,0.171,0.23
							C81.646,83.57,81.745,82.991,81.597,83.011z"/>
						<path fill="#414042" d="M81.629,84.1c-0.01,0.274,0.001,0.537,0.083,0.689C81.707,84.642,81.689,84.319,81.629,84.1z"/>
						<polygon fill="#414042" points="81.078,86.078 81.184,85.824 81.22,85.218 						"/>
						<path fill="#414042" d="M81.693,73.787l-0.144-0.937c-0.172-0.095-0.276,0.16-0.208,0.509
							C81.461,73.583,81.527,73.932,81.693,73.787z"/>
						<path fill="#414042" d="M80.321,76.619c0.104-0.254,0.216-0.27,0.381-0.413l-0.621-0.028L80.321,76.619z"/>
						<path fill="#414042" d="M80.176,73.889c-0.172-0.094-0.494-1.359-0.455-0.173C79.892,73.812,80.035,74.75,80.176,73.889z"/>
						<polygon fill="#414042" points="80.019,60.034 80.126,60.24 81.044,59.798 						"/>
						<path fill="#414042" d="M70.36,56.701c0.845,0.253,0.193-0.649,0.967-0.303c0.22-0.231-0.64-0.281-0.431-0.477
							C70.347,56.175,70.071,56.031,70.36,56.701z"/>
						<path fill="#414042" d="M70.896,55.921c0.09-0.042,0.182-0.082,0.284-0.143C71.018,55.832,70.943,55.876,70.896,55.921z"/>
						<path fill="#414042" d="M83.903,121.511c-0.011-0.017,0.009-0.404,0.036-0.376c-0.012-0.018-0.227,0.314-0.217,0.328
							L83.903,121.511z"/>
						<path fill="#414042" d="M82.949,121.219c0,0,0.15-0.055,0.31-0.097c0.159-0.037,0.318-0.075,0.318-0.075
							c-0.001,0.021-0.592-0.021-0.595-0.047C83.017,121.052,83.076,121.134,82.949,121.219z"/>
						<path fill="#414042" d="M64.223,82.85l-0.156-0.054c-0.169,0.11-0.182,0.278-0.208,0.612L64.223,82.85z"/>
						<polygon fill="#414042" points="63.737,92.528 63.75,92.362 63.163,92.673 						"/>
						<path fill="#414042" d="M64.485,100.649c0.024-0.331-0.106-0.72-0.082-1.054C64.51,100.318,63.753,100.74,64.485,100.649z"/>
					</g>
				</g>
			</g>
		</g>
	</g>
	<g>
		<radialGradient id="SVGID_2_" cx="68.2734" cy="29.9546" r="15.0459" gradientUnits="userSpaceOnUse">
			<stop  offset="0" style="stop-color:#A19B9A;stop-opacity:0.5"/>
			<stop  offset="0.1402" style="stop-color:#908B8A;stop-opacity:0.4299"/>
			<stop  offset="0.4071" style="stop-color:#757171;stop-opacity:0.2964"/>
			<stop  offset="0.6488" style="stop-color:#625F5F;stop-opacity:0.1756"/>
			<stop  offset="0.8545" style="stop-color:#565353;stop-opacity:0.0727"/>
			<stop  offset="1" style="stop-color:#524F4F;stop-opacity:0"/>
		</radialGradient>
		<circle fill="url(#SVGID_2_)" cx="68.273" cy="29.955" r="15.046"/>
		<g>
			<g>
				<g>
					<path fill="#414042" d="M83.314,29.845c0.001,0.031,0.004,0.093,0.005,0.11C83.309,29.722,83.314,29.85,83.314,29.845z"/>
					<polygon fill="#414042" points="83.178,27.542 83.188,27.582 83.137,27.244 					"/>
					<path fill="#414042" d="M82.874,25.379c-0.067,0.236,0.143,0.783,0.176,1.174l-0.003,0.066l0.077,0.162
						C83.048,26.315,82.901,25.72,82.874,25.379z"/>
					<path fill="#414042" d="M82.979,24.081c-0.059,0.104-0.093-0.243,0.016,0.295c0.004-0.027,0.007-0.04,0.01-0.058
						C82.998,24.268,82.991,24.2,82.979,24.081z"/>
					<path fill="#414042" d="M83.004,24.318C83.037,24.561,83.038,24.138,83.004,24.318L83.004,24.318z"/>
					<path fill="#414042" d="M82.775,23.214l0.137,0.287c0.033-0.087-0.006-0.383,0.049-0.291
						C82.862,22.891,82.816,22.99,82.775,23.214z"/>
					<path fill="#414042" d="M82.541,22.993l0.074,0.146C82.63,23.101,82.628,23.053,82.541,22.993z"/>
					<path fill="#414042" d="M82.764,23.452l-0.148-0.313c-0.025,0.062-0.093,0.099,0.063,0.146
						C82.607,23.287,82.688,23.325,82.764,23.452z"/>
					<path fill="#414042" d="M82.778,23.66c0.001,0.192,0.014,0.43-0.114,0.146C82.809,24.386,82.911,24.256,82.778,23.66z"/>
					<path fill="#414042" d="M82.724,25.311c-0.001,0,0.029,0.227,0.024,0.229l0.076,0.181
						C82.791,25.628,82.764,25.284,82.724,25.311z"/>
					<path fill="#414042" d="M82.394,21.124c-0.071,0.021-0.138,0.217-0.21,0.289l0.15,0.19
						C82.336,21.458,82.303,21.201,82.394,21.124z"/>
					<path fill="#414042" d="M82.184,21.412l-0.235-0.274C82.049,21.452,82.12,21.475,82.184,21.412z"/>
					<path fill="#414042" d="M82.267,23.065c0,0,0.086,0.115,0.173,0.23c0.08,0.119,0.161,0.237,0.161,0.237
						s-0.089-0.145-0.179-0.29c-0.096-0.14-0.191-0.281-0.191-0.281L82.267,23.065z"/>
					<polygon fill="#414042" points="81.878,19.767 82.133,19.843 81.721,19.679 					"/>
					<path fill="#414042" d="M81.424,18.916c0.23,0.016,0.141-0.406,0.318-0.334c-0.159-0.215-0.402-0.305-0.633-0.367
						C81.294,18.336,81.393,18.561,81.424,18.916z"/>
					<path fill="#414042" d="M80.75,18.089c0.097,0.054,0.224,0.086,0.359,0.126C81.012,18.15,80.898,18.101,80.75,18.089z"/>
					<path fill="#414042" d="M81.732,20.546c0.03-0.055,0.118-0.182,0.078-0.407l-0.139,0.276
						C81.69,20.456,81.711,20.5,81.732,20.546z"/>
					<path fill="#414042" d="M81.667,20.425l0.005-0.009c-0.064-0.144-0.109-0.244-0.128-0.287
						C81.56,20.166,81.597,20.255,81.667,20.425z"/>
					<path fill="#414042" d="M81.748,20.579l-0.016-0.033C81.72,20.572,81.717,20.584,81.748,20.579z"/>
					<path fill="#414042" d="M82.106,22.125c-0.165-0.145-0.452-0.461-0.425-0.004C81.857,22.186,81.848,21.919,82.106,22.125z"/>
					<path fill="#414042" d="M81.584,20.904c0.008-0.005,0.112,0.374,0.112,0.374c0.046-0.038,0.093-0.15,0.185-0.085
						C81.881,21.192,81.595,20.896,81.584,20.904z"/>
					<polygon fill="#414042" points="81.433,20.786 81.584,20.904 81.533,20.77 					"/>
					<path fill="#414042" d="M80.922,18.853c-0.188-0.06-0.307-0.2-0.442-0.359c0.086,0.227,0.196,0.434,0.318,0.616
						C80.885,19.073,81.062,19.049,80.922,18.853z"/>
					<path fill="#414042" d="M81.295,19.621l-0.029-0.024C81.258,19.631,81.261,19.653,81.295,19.621z"/>
					<polygon fill="#414042" points="79.049,17.016 79.037,17.082 79.078,17.043 					"/>
					<path fill="#414042" d="M80.778,19.175c0.051,0.173,0.161,0.208,0.281,0.232c-0.092-0.085-0.18-0.183-0.262-0.298
						C80.759,19.125,80.736,19.141,80.778,19.175z"/>
					<path fill="#414042" d="M80.298,17.709c0.013,0.115,0.037,0.233,0.059,0.36C80.383,17.924,80.38,17.672,80.298,17.709z"/>
					<path fill="#414042" d="M81.299,19.498l0.021,0.015C81.34,19.426,81.32,19.45,81.299,19.498z"/>
					<path fill="#414042" d="M81.299,19.498c-0.072-0.052-0.158-0.069-0.239-0.09c0.066,0.075,0.136,0.14,0.206,0.188
						C81.271,19.565,81.284,19.528,81.299,19.498z"/>
					<path fill="#414042" d="M77.288,18.273c0.192-0.214,0.713-0.21,0.749,0.278c0.396,0.055,0.905-0.837,1-1.469
						c-0.095,0.095-0.167,0.176-0.585,0.095c0.021,0.193,0.396,0.811-0.016,0.817c-0.459-0.195-0.242-0.321-0.33-0.592
						c-0.073,0.407-0.816,0.062-1.052,0.565l0.437,0.087C77.444,18.125,77.247,18.146,77.288,18.273z"/>
					<path fill="#414042" d="M79.58,17.579l0.142,0.08c-0.096-0.163-0.11-0.339-0.145-0.671c-0.308-0.06-0.42-0.008-0.499,0.056
						c0,0,0.145,0.133,0.29,0.265c0.142,0.137,0.282,0.273,0.282,0.273L79.58,17.579z"/>
					<path fill="#414042" d="M80.204,18.187c-0.292,0.111-0.658-0.039-0.745,0.372c0.315,0.312,0.392,0.05,0.659,0.169
						c-0.499-0.54,0.255,0.053,0.063-0.51c0.126,0.083,0.216,0.182,0.298,0.276c-0.051-0.137-0.094-0.279-0.123-0.424l-0.004,0.028
						l0.003,0.002l-0.004,0.003c-0.01,0.055-0.021,0.081-0.026,0.034c-0.004,0.001-0.01-0.005-0.013-0.008
						c-0.035,0.027-0.071,0.042-0.106,0.056c-0.081-0.226,0.039-0.087,0.106-0.056l0.039-0.025l0.001-0.005
						c0,0-0.138-0.132-0.303-0.234c-0.159-0.108-0.328-0.205-0.328-0.205C79.803,17.807,79.963,17.928,80.204,18.187z"/>
					<path fill="#414042" d="M81.128,22.025c0.005-0.028,0.019-0.036,0.031-0.045C81.114,21.956,81.091,21.951,81.128,22.025z"/>
					<path fill="#414042" d="M81.099,21.71c0.052,0.026,0.146,0.016,0.204,0.172c0.013,0.158-0.087,0.053-0.144,0.097
						c0.099,0.052,0.292,0.224,0.234-0.104l-0.047-0.028c-0.069-0.281,0.01-0.774,0.06-0.75
						C81.268,21.292,81.176,21.442,81.099,21.71z"/>
					<path fill="#414042" d="M80.631,20.04c0,0-0.101-0.11-0.221-0.203c-0.118-0.093-0.236-0.186-0.236-0.186l-0.004,0.394
						l0.104-0.107C80.429,20.241,80.518,20.076,80.631,20.04z"/>
					<polygon fill="#414042" points="79.097,16.845 79.382,16.634 78.777,16.791 					"/>
					<polygon fill="#414042" points="78.404,16.39 78.607,16.17 78.324,16.182 					"/>
					<path fill="#414042" d="M56.871,36.704l0.148,0.081C56.961,36.74,56.914,36.716,56.871,36.704z"/>
					<path fill="#414042" d="M56.388,35.767l-0.143,0.041C56.339,35.817,56.401,35.809,56.388,35.767z"/>
					<path fill="#414042" d="M59.381,15.584c-0.376-0.096-0.883-0.289-0.668-0.028l0.251,0.227
						C59.094,15.635,59.238,15.589,59.381,15.584z"/>
					<path fill="#414042" d="M53.595,27.009l0.108-0.05c-0.095-0.079-0.183-0.153-0.265-0.222
						C53.488,26.821,53.531,26.912,53.595,27.009z"/>
					<path fill="#414042" d="M54.894,27.425l-0.25,0.25C54.726,27.623,54.809,27.542,54.894,27.425z"/>
					<path fill="#414042" d="M60.972,40.609l0.32-0.182C61.082,40.288,61.082,40.484,60.972,40.609z"/>
					<path fill="#414042" d="M70.666,13.314c-0.214-0.161-0.393-0.242-0.554-0.281C70.374,13.261,70.554,13.571,70.666,13.314z"/>
					<path fill="#414042" d="M53.63,38.018c0.11,0.067,0.192,0.076,0.253,0.038C53.776,37.984,53.688,37.958,53.63,38.018z"/>
					<path fill="#414042" d="M69.435,12.988c0.039,0.035,0.079,0.053,0.119,0.083c0.174-0.042,0.353-0.089,0.559-0.038
						C69.92,12.865,69.681,12.779,69.435,12.988z"/>
					<path fill="#414042" d="M79.601,37.594c0.021-0.005,0.037-0.016,0.058-0.02C79.635,37.553,79.619,37.568,79.601,37.594z"/>
					<path fill="#414042" d="M83.232,31.966c-0.005,0.073-0.014,0.181-0.021,0.285C83.216,32.194,83.221,32.122,83.232,31.966z"/>
					<path fill="#414042" d="M75.634,14.547C75.802,14.604,75.674,14.527,75.634,14.547L75.634,14.547z"/>
					<path fill="#414042" d="M75.792,16.053c-0.049,0.017-0.094,0.046-0.133,0.111C75.708,16.101,75.752,16.067,75.792,16.053z"/>
					<path fill="#414042" d="M67.758,14.983h-0.014C67.792,15.044,67.784,15.032,67.758,14.983z"/>
					<path fill="#414042" d="M75.807,14.795c-0.042-0.064-0.096-0.127-0.16-0.185C75.669,14.649,75.717,14.707,75.807,14.795z"/>
					<path fill="#414042" d="M75.843,14.642c0.05,0.038,0.088,0.067,0.125,0.096C76.012,14.698,76.01,14.659,75.843,14.642z"/>
					<path fill="#414042" d="M75.404,14.457c0.093,0.039,0.172,0.094,0.242,0.154c-0.021-0.035-0.026-0.057-0.013-0.063
						C75.585,14.528,75.517,14.501,75.404,14.457z"/>
					<path fill="#414042" d="M70.118,43.879c0.011,0.009,0.022,0.014,0.035,0.026C70.279,43.749,70.219,43.78,70.118,43.879z"/>
					<path fill="#414042" d="M58.364,20.759c0.002-0.007-0.002-0.015,0-0.022l-0.022,0.008L58.364,20.759z"/>
					<path fill="#414042" d="M58.209,21.289c-0.164-0.42-0.04-0.483,0.131-0.544l-0.807-0.507c0,0,0.167,0.266,0.333,0.531
						C58.038,21.029,58.209,21.289,58.209,21.289z"/>
					<path fill="#414042" d="M58.43,38.681l-0.008-0.441c0.64-0.015,0.695,0.294,0.8-0.201c-0.387,0.319-0.645,0.114-0.856-0.129
						c-0.211-0.243-0.425-0.483-0.853-0.206l0.039-0.304c0.031,0.057,0.086,0.031,0.116,0.087c0.139-0.618-0.798,0.155-0.987-0.428
						c-0.04-0.216,0.016-0.409,0.191-0.354l-0.452-0.257c-0.048-0.123,0.122-0.177,0.172-0.058c-0.017,0.01-0.375-0.573-0.375-0.573
						l0.029-0.009c-0.186-0.016-0.507-0.114-0.652-0.173c0.055-0.221,0.138,0.037,0.233-0.057c0,0-0.4-0.247-0.391-0.253
						c0.184-0.246,0.537-0.05,0.625,0.194c0.775-0.719-0.385-0.182-0.086-1.112l0.239,0.28c0.464-0.414,0.179-0.586,0.391-1.046
						c-0.152,0.124-0.593,1.012-0.97,0.722c0.034-0.135,0.012-0.283-0.253-0.433c0.345-0.109,0.209-0.288,0.123-0.542l0.468-0.107
						c-0.203-0.234-0.435-0.154-0.688-0.27c-0.037-0.325,0.309-0.463,0.609-0.596c0.003-0.508-0.534,0.461-0.71-0.12
						c0.13-0.458-0.151-0.708-0.461-1.213c0.15-0.319,0.295,0.03,0.427-0.09l-0.395-0.242c0.006-0.067,0.124-0.052,0.184-0.044
						c-0.16-0.221-0.479,0.008-0.629-0.358c-0.263-0.042-0.093-0.244,0.097-0.476c0.197-0.235,0.386-0.495,0.098-0.738
						c0.141-0.103,0.291,0.071,0.478,0.047c-0.363-0.637-0.274-0.538-0.715-1.115l0.378-0.39c-0.404,0.264-0.764-0.207-1.048-0.666
						c-0.189,0.088-0.355,0.167-0.438,0.226c0,0-0.039-0.17-0.078-0.34c-0.036-0.171-0.052-0.341-0.052-0.341
						c0.096-0.059,0.241,0.042,0.411,0.184c-0.028-0.05-0.056-0.098-0.083-0.136c0.229-0.181,0.469,0,0.692,0.206
						c-0.111,0.049-0.229,0.101-0.344,0.152c0.262,0.21,0.56,0.403,0.84,0.424c-0.049-0.047-0.085-0.128-0.099-0.213
						c0.072,0.053,0.138,0.089,0.188,0.082c0.055-0.009-0.049-0.09-0.141-0.208l0.556-0.014l-0.2-0.076l0.509-0.633
						c-0.411-0.651-0.954-1.357-0.831-2.314c0.262,0.359,0.568,0.294,0.989,0.491c-0.547,0.029-0.036,0.703-0.281,1.07
						c0.128-0.199,0.319-0.077,0.373,0.001l-0.152-0.887c0.344,0.16,0.316-0.049,0.555-0.163c-0.755-0.163-0.201-0.732-0.265-1.133
						c0.231,0.1,0.427,0.289,0.206,0.609c0.69-0.118-0.559-0.919,0.102-1.06c-0.045,0.086-0.106,0.112-0.014,0.207
						c-0.077-0.304,0.367-0.692,0.484-0.462l-0.045,0.084c0.365-0.52,1.112-1.556,0.68-2.058c0.066,0.049,0.534,0.554,0.615,0.667
						c0,0-0.233-0.546-0.433-1.126c-0.202-0.576-0.371-1.188-0.371-1.188c0.329,0.452,1.522,1.078,1.397,1.677
						c0.163-0.053,0.33-0.137,0.425-0.483c-0.129,0.008-0.749-0.385-0.679-0.521c0.721,0.17,0.438,0.044,1.139,0.11
						c-0.191,0.015-0.641-0.737-0.429-0.893c0.055,0.124,0.567,0.629,0.561,0.756c0,0-0.025-0.263-0.049-0.526
						c-0.018-0.261-0.019-0.517-0.019-0.517c-0.032,0.213,0.427,0.573,0.679,0.683c-0.15-0.093,0.42-0.294,0.497-0.457l-0.317-0.006
						c0.604-0.307-0.113-1.371,0.542-1.725c0.01,0.198,0.376,1.027,0.721,0.941c-0.106-0.463-0.379-2.172,0.142-2.783l0.222,0.167
						c0,0,0.371-0.484,0.378-0.473c-0.093,0.724-0.285,2.363-0.399,3.001c0.317,0.06,0.2,0.226,0.523,0.045
						c0.22,0.151-0.021,0.399-0.109,0.456l0.817-0.227c-0.251-0.456,0.388-0.731,0.211-1.096c0,0-0.186,0.187-0.342,0.42
						c-0.156,0.221-0.312,0.442-0.312,0.442c-0.26-0.417-0.114-1.578,0.574-1.705c0.226,0.131,0.201,0.882,0.278,1.033
						c0.01-0.188,0.444-0.515,0.538-0.419l-0.16,0.346c0.372,0.061,0.327-0.84,0.875-0.471c0.153-0.006,0.57,0.524,0.521,0.228
						c-0.35-0.503-0.865-2.209-0.789-2.675c0.073,0.016,0.98,0.315,1.206,0.593c0.328,0.407-0.185,1.115,0.101,1.463
						c-0.017-0.136,0.085-0.324,0.132-0.386c0.174,0.092,0.01,0.43,0.328,0.318c-0.022-0.513,0.684-0.061,0.094-0.451
						c0.313-0.188,0.364,0.031,0.75-0.013c-0.162-0.322,0.265-1.138,0.633-1.303c-0.016,0.131,0.071,0.296,0.112,0.371
						c0.729-0.016,1.106,0.303,1.767,0.32c0.053,0.124,0.352,0.295,0.195,0.503c0.101-0.078,0.204-0.235,0.406-0.218
						c0.323,0.497-0.447,0.001-0.22,0.573c0.057-0.291,0.552-0.329,0.869-0.469c-0.01-0.465-0.655-0.188-0.951-0.047
						c0.06-0.63,0.651-1.211,1.46-1.383c0.621-0.045,0.169,0.453,0.29,0.382c1.021,0.396,1.227-0.871,1.995-0.108
						c0.219,0.509-0.25,0.763-0.267,1.066c-0.479-0.024-0.597-0.478-0.917-0.538l0.326,0.281c-0.184,0.091-0.506,0.113-0.64-0.042
						c0.192,0.393,1.711,0.572,2.305,1.238c0.184-0.062,0.471-0.079,0.434-0.276l-0.259-0.062c-0.086-0.402,0.641-0.191,0.4-0.475
						c0.413-0.039,0.986-0.214,1.338,0.237l-0.147,0.448c0.06-0.121-0.151-0.413-0.344-0.363c0.292-0.064,0.352,0.94,0.863,0.546
						l-0.145-0.46c0.429,0,1.126-0.185,1.421,0.239c0.083-0.502-0.114-0.024-0.097-0.665c-0.11,0.705-1.051-0.675-1.008,0.166
						c0.013-0.703-0.37-0.556-0.544-1.223c-0.058,0.141,0.015,0.33-0.321,0.083c-0.037,0.031-0.102,0.062-0.142,0.08
						c-0.009-0.009-0.012-0.013-0.02-0.022l0.012,0.026c-0.025,0.013-0.029,0.016,0.005,0.009c0.059,0.102,0.093,0.207,0.082,0.296
						c-0.339,0.222-0.898-0.059-1.161,0.015c-0.181-0.167,0.158-0.117,0.107-0.321c0,0-0.099,0.028-0.197,0.055
						c-0.1,0.035-0.2,0.069-0.2,0.069c0.104-0.321-0.389-0.74,0.221-0.726l-0.48-0.193c-0.221-0.28-0.599-0.505-0.889-0.446
						c-0.22-0.134-0.7,0.203-0.423,0.002l-0.833,0.001l0.012-0.084c-0.379-0.135-0.814-0.041-1.236-0.041
						c-0.426,0.009-0.84-0.078-1.272-0.387c-0.275,0.07-0.551,0.16-0.994,0.043l-0.084-0.295c-0.342,0.08-1.056-0.253-1.192,0.05
						c-0.436-0.801-1.722-0.001-2.342-0.032l0.049,0.377c-0.417,0.054-0.784,0.279-1.241,0.549l0.12,0.316
						c-0.345,0.349-1.134,0.108-1.786,0.382c-0.003-0.136,0.177-0.167,0.321-0.136c-0.531-0.22-0.904,0.079-1.216,0.426
						c-0.317,0.343-0.607,0.665-1.062,0.62c-0.101,0.204-0.236,0.237-0.392,0.232c0.014-0.01,0.025-0.023,0.031-0.039
						c-0.019,0.006-0.043,0.021-0.068,0.036c-0.101-0.006-0.209-0.019-0.318-0.016c0.111,0.028,0.211,0.046,0.283,0.039
						c-0.121,0.082-0.288,0.232-0.424,0.414l-0.276-0.254c-0.014,0.013-0.023,0.021-0.038,0.035
						c-0.258,0.002-0.05,0.231,0.197,0.398c-0.061,0.102-0.095,0.225-0.107,0.34c-0.473-0.375-0.325,0.487-0.883,0.128
						c0.034,0.164-0.146,0.37-0.292,0.604c-0.133,0.251-0.229,0.53-0.058,0.805c-0.06-0.058-0.131-0.046-0.053-0.125
						c-0.217,0.099-0.44,0.203-0.468,0.472l-0.391-0.265c0,0,0.014,0.196,0.028,0.392c0.025,0.201,0.051,0.401,0.051,0.401
						c-0.403,0.027-0.615,0.019-0.661-0.456c-0.105,0.925-0.268,0.592-0.268,1.407l-0.211-0.213c-0.129,0.19-0.026,0.715-0.3,0.672
						c-0.801,0.05-1.454,1.986-2.435,2.971c0.897,0.107-0.602,0.413,0.021,0.724c-0.218-0.005-0.393,0.13-0.486-0.137
						c-0.035,0.706-0.687,0.865-0.243,1.488c-0.219,0.019-0.254-0.225-0.39-0.192c0.029,0.067,0.118,0.261-0.019,0.297
						c-0.137,0.036-0.142-0.143-0.201-0.275c-0.147,0.707,0.458,0.919,1.028,1.1c-0.366,0.261-0.36,0.447-0.005,0.755
						c-0.21,0.079-0.442,0.243-0.447-0.184c-0.061,0.221-0.511,1.398-0.021,1.469c-0.125,0.062-0.053,0.323,0,0.388
						c-0.055,0.52-0.101,0.565-0.08,1.08l0.085-0.141c0.559,0.206,0.127,0.419,0.217,0.829l-0.06-0.01
						c-0.355,0.967,0.19,0.385-0.176,1.358l0.349-0.093c0.78-0.02-0.332,0.868,0.049,1.366l0.17-0.231
						c0.295,0.223-0.834,1.024-0.853,1.371c-0.048,0.084-0.131-0.077-0.204-0.158c-0.233,0.922,0.482-0.016,0.738,0.535
						c-0.21,0.181-0.666,0.046-0.586,0.458c-0.111,0.276,1.167,0.851,0.942,1.532c0.126-0.19,0.256-0.372,0.509-0.184
						c0.244,0.332-0.177,1.376,0.565,1.416c-0.019,0.072-0.053,0.114-0.094,0.141c0.308,0.202,0.775,0.767,1.151,0.74
						c-0.441,0.469,0,0.793,0.401,1.062c0.395,0.278,0.808,0.463,0.375,0.835l0.717,0.697l-0.102,0.062
						c0.389,0.519,0.771,0.452,1.109,0.401c0.055,0.155-0.094,0.164-0.144,0.201c0.52,0.803,0.681,0.807,1.618,0.808l-0.152,0.35
						c0.261-0.042,0.808,1.243,1.837,1.304c-0.027,0.033-0.078,0.089-0.168,0.104c0.57,0.023,0.995,0.549,1.456,0.876
						c0.458,0.322,0.901,0.513,1.284-0.068c-0.002,0.019,0.735-0.136,0.735-0.136c-0.789-0.312,0.282-0.534,0.012-0.835
						c0.323,0.001,0.701,0.602,0.296,0.569l-0.043-0.081c-0.326,0.641,0.953,0.513,0.838,0.958c1.672,0.292,3.345,0.714,4.996,0.595
						l-0.24-0.524c0,0.011,0.552-0.045,0.552-0.045c0.16,0.105,0.256,0.396-0.149,0.434c0.254,0.277,0.637-0.36,0.622-0.479
						c0.814,0.1-0.199,0.678,0.039,0.655l0.324-0.092l-0.086-0.051c0.227-0.273,0.209-0.474,0.678-0.574
						c0.319,0.032,0.229,0.291,0.352,0.282c0.008,0.038,0.053,0.045,0.185-0.031l0.712-0.136l-0.397-0.344
						c0.244-0.28,0.642-0.15,0.19-0.533c0.332,0.3,0.973,0.127,1.568-0.086c0.585-0.244,1.096-0.583,1.284-0.537
						c0.257-0.454,0.596-0.699,1.073-0.931c-0.161-0.007-0.479-0.384-0.074-0.561c0.424,0.945,0.918-0.094,1.647,0.246
						c-0.555-0.173,0.987-0.889,0.126-1.101c0.34-0.183,0.263,0.277,0.646,0.269c0.461-0.85,1.592-1.314,2.068-2.414
						c-0.079-0.082-0.311-0.026-0.32-0.335c0,0,0.184-0.046,0.366-0.093c0.178-0.056,0.355-0.112,0.355-0.112
						c0.052-0.241-0.361-0.498,0.081-0.684c-0.09,0.01-0.229,0.018-0.19-0.132c0.66-0.864,0.926-1.988,1.162-3.046
						c0.109-0.538,0.247-1.057,0.318-1.59c0.092-0.528,0.203-1.045,0.229-1.574c-0.03,0.283-0.026,0.092-0.009-0.125
						c-0.016,0.14-0.019-0.006-0.031,0.02c0,0,0.119-0.867,0.1-0.869c-0.012-0.161,0.018-0.937,0.021-1.028l-0.011,0.276
						c0.015-0.367-0.028,0.514-0.042,0.458c0.028,0.417-0.219,1.063-0.305,1.727c-0.046,0.141,0.007-0.128-0.026-0.053
						c-0.002,0.171-0.065,0.369-0.21,0.723l0.003-0.043c-0.34,1.005-0.625,1.408-1.364,2.342l0.191-0.008
						c-0.164,0.2-0.242,0.221-0.351,0.297c0.063,0.348,0.427-0.572,0.509-0.251c-0.475,0.154-0.98,1.494-1.613,1.36
						c-0.262,0.272,0.312,0.065,0.058,0.346l-0.197-0.011l0.111,0.186c-0.181,0.175-0.464,0.126-0.585,0.052
						c0.059-0.03,0.094-0.134,0.133-0.183c-0.41,0.091-0.618,0.619-0.75,0.651l0.355-0.162c-0.571,0.844-1.783,1.282-2.119,2.326
						l0.161,0.078c-0.354,0.743-0.573,0.231-1.124,0.841l0.001-0.051c-0.029,0.242-0.177,0.419-0.379,0.521
						c0.068-0.271-0.53-0.125-0.417-0.448c-0.504,0.689-0.184,0.435-0.358,1.238l-0.242-0.192c-0.05,0.303-0.005,0.428-0.355,0.677
						c0.206-0.365-0.415-0.27-0.211-0.719c-0.975-0.171-0.949,1.039-1.606,0.358c-0.123,0.865,0.833,0.149,0.683,0.38
						c0.27,0.169-0.113,0.654-0.406,0.679c-0.275,0.096-0.753-0.805-1.387-0.621c0.066-0.013,0.057-0.071,0.121-0.084
						c-0.286-0.14-0.414,0.406-0.785,0.126c-0.088,0.483-0.398,0.033-0.355,0.627l0.603-0.23c-0.313,0.204-0.561,0.944-1.212,0.704
						c0.035-0.126,0.194-0.311,0.302-0.416c-0.192-0.152-0.317,0.178-0.517,0.004c-0.008-0.577,0.745-0.241,1.042-0.738
						c-0.213-0.222-0.63,0.531-0.536-0.134c-0.074,0.425-0.246,0.426-0.436,0.405c-0.194-0.039-0.404-0.105-0.614,0.219l0.009-0.357
						c-0.067,0.06-0.208,0.235-0.341,0.233l0.217-0.474c-0.348,0.409-0.691-0.292-1.023-0.113c0.709,0.022,0.154,0.446,0.463,0.702
						c-0.934,0.449-0.504-0.95-1.476-0.828c0.132-0.035,0.479,0.238,0.256,0.395c-0.186-0.071-0.417-0.247-0.505-0.453
						c-0.649-0.026,0.051,0.378-0.253,0.553c-0.162-0.464-0.348,0.125-0.674,0.216l0.063-0.356c-0.698-0.37-0.355,0.7-0.981,0.26
						L65.218,43l-0.378,0.036l0.174-0.38c-0.444,0.191-0.559,0.115-0.872-0.129c0.004,0.273-0.25,0.606-0.585,0.496
						c-0.148-0.283,0.241-0.278-0.233-0.396c0.187-0.173,0.391-0.401,0.473-0.016c0.059-0.104,0.174-0.178,0.232-0.281
						c-0.144-0.317-0.546-0.26-0.708-0.314c0.056,0.034,0.121,0.079,0.139,0.14c0,0.02-0.829,0.207-0.83,0.19
						c-0.042-0.171,0.083-0.232,0.203-0.293c-0.141-0.025-0.298,0.084-0.499,0.021c0.177-0.241,0.301-0.519,0.609-0.523
						l-0.717,0.018c0.017-0.13-0.127-0.454-0.001-0.512c-0.195-0.332-1.028,0.053-1.301-0.404c-0.052,0.032-0.122,0.048-0.227,0.021
						c-0.314-0.34-0.424-0.804-1.058-0.87l0.135-0.59c-0.384-0.187-0.146,0.763-0.799,0.44c-0.488-0.217,0.176-0.442,0.161-0.668
						c-0.342,0.017-1.041,0.05-1.024-0.565C58.287,38.467,58.307,38.604,58.43,38.681z M55.631,34.374
						c0.107,0.071,0.395,0.174,0.22,0.318C55.424,34.731,55.578,34.574,55.631,34.374z M54.475,26.353
						c0.096,0.107,0.008,0.21-0.16,0.315C54.312,26.562,54.354,26.453,54.475,26.353z M73.75,14.09l-0.019,0.012
						C73.511,13.872,73.588,13.959,73.75,14.09z M74.245,14.438c0.072-0.027,0.087-0.075,0.082-0.131
						c-0.072,0.071-0.196,0.032-0.328-0.043C74.006,14.367,74.054,14.454,74.245,14.438z M72.221,45.956l-0.131-0.064
						C72.309,45.729,72.263,45.837,72.221,45.956z"/>
					<path fill="#414042" d="M54.743,27.375c-0.064,0.018-0.132,0.014-0.2,0.008C54.597,27.436,54.666,27.448,54.743,27.375z"/>
					<path fill="#414042" d="M60.913,40.64l0.01,0.013c0.02-0.013,0.035-0.028,0.05-0.044L60.913,40.64z"/>
					<path fill="#414042" d="M65.928,16.602c-0.105-0.037-0.172-0.094-0.221-0.156C65.719,16.534,65.777,16.601,65.928,16.602z"/>
					<path fill="#414042" d="M77.32,15.282l-0.377-0.119c0.168,0.081,0.184,0.183,0.232,0.28
						C77.213,15.367,77.215,15.224,77.32,15.282z"/>
					<path fill="#414042" d="M78.458,18.947c0.067,0,0.08,0.066,0.148,0.065l0.107-0.134C78.55,18.743,78.348,18.748,78.458,18.947z
						"/>
					<path fill="#414042" d="M76.973,16.478c-0.145,0.276,0.112,0.285,0.339,0.396c-0.013-0.008-0.025-0.014-0.035-0.026
						C77.58,16.54,77.281,16.492,76.973,16.478z"/>
					<path fill="#414042" d="M77.364,16.899c0.069,0.035,0.137,0.075,0.188,0.132C77.677,16.91,77.498,16.946,77.364,16.899z"/>
					<path fill="#414042" d="M75.01,14.525c0.081,0.125,0.229-0.322,0.243-0.178C75.535,14.047,74.304,14.424,75.01,14.525z"/>
					<polygon fill="#414042" points="76.591,17.419 76.726,17.061 76.445,17.245 					"/>
					<path fill="#414042" d="M75.1,16.25l0.296,0.258c0.025-0.058,0.086-0.07,0.153-0.068C75.342,16.326,75.141,16.146,75.1,16.25z"
						/>
					<path fill="#414042" d="M75.549,16.44c0.106,0.063,0.207,0.122,0.297,0.103C75.786,16.513,75.659,16.443,75.549,16.44z"/>
					<polygon fill="#414042" points="76.092,17.247 76.038,17.123 75.825,16.961 					"/>
					<path fill="#414042" d="M71.224,14.848l-0.434,0.042c-0.062,0.121,0.036,0.215,0.196,0.188
						C71.101,15.005,71.264,14.98,71.224,14.848z"/>
					<path fill="#414042" d="M72.18,16.14c-0.082-0.102-0.066-0.184-0.094-0.319l-0.132,0.447L72.18,16.14z"/>
					<path fill="#414042" d="M71.049,15.971c-0.067,0.121-0.618,0.282-0.136,0.325C70.975,16.17,71.378,16.139,71.049,15.971z"/>
					<polygon fill="#414042" points="65.093,15.458 65.191,15.426 65.019,14.682 					"/>
					<path fill="#414042" d="M61.155,19.061c0.459-0.062-0.166-0.45,0.287-0.457c-0.006-0.208-0.371,0.007-0.365-0.179
						C60.952,18.724,60.778,18.702,61.155,19.061z"/>
					<path fill="#414042" d="M61.077,18.425c0.021-0.048,0.041-0.103,0.056-0.17C61.091,18.336,61.08,18.386,61.077,18.425z"/>
					<polygon fill="#414042" points="83.29,30.818 83.298,30.504 83.292,30.707 					"/>
					<path fill="#414042" d="M83.307,30.216l0.004-0.074l0.009-0.188C83.316,30.02,83.313,30.084,83.307,30.216z"/>
					<path fill="#414042" d="M56.337,33.368l-0.117,0.013c-0.112,0.074-0.106,0.137-0.095,0.262L56.337,33.368z"/>
					<polygon fill="#414042" points="57.455,36.748 57.431,36.689 57.12,37.025 					"/>
					<path fill="#414042" d="M59.742,38.702c-0.08-0.087-0.242-0.123-0.308-0.227C59.656,38.617,59.385,39.114,59.742,38.702z"/>
				</g>
			</g>
		</g>
	</g>
</g>
<g id="over">
</g>
</svg>
