<?xml version="1.0" encoding="utf-8"?>
<!-- Generator: Adobe Illustrator 16.0.0, SVG Export Plug-In . SVG Version: 6.00 Build 0)  -->
<!DOCTYPE svg PUBLIC "-//W3C//DTD SVG 1.1//EN" "http://www.w3.org/Graphics/SVG/1.1/DTD/svg11.dtd">
<svg version="1.1" xmlns="http://www.w3.org/2000/svg" xmlns:xlink="http://www.w3.org/1999/xlink" x="0px" y="0px" width="144px"
	 height="144px" viewBox="0 0 144 144" enable-background="new 0 0 144 144" xml:space="preserve">
<g id="Outline">
	<g>
		<g>
			<g>
				<g>
					<g>
						<path fill="#414042" d="M141.896,128.742c-0.018,0.783,0.191,0.501,0.229,0.619
							C142.077,128.051,141.841,128.772,141.896,128.742z"/>
						<polygon fill="#414042" points="141.419,115.8 141.505,116.03 141.296,114.121 						"/>
						<path fill="#414042" d="M141.423,103.701c-0.355,1.142,0.059,4.384-0.068,6.541l-0.082,0.353l0.287,0.973
							C141.515,108.947,141.323,105.544,141.423,103.701z"/>
						<path fill="#414042" d="M142.196,97.248c-0.139,0.399-0.121-1.396-0.045,1.505c0.02-0.145,0.025-0.189,0.035-0.271
							C142.188,98.221,142.192,97.86,142.196,97.248z"/>
						<path fill="#414042" d="M142.187,98.481C142.198,99.756,142.304,97.647,142.187,98.481L142.187,98.481z"/>
						<path fill="#414042" d="M142.108,92.597l0.123,1.678c0.082-0.353,0.102-1.847,0.16-1.289
							C142.323,91.261,142.243,91.616,142.108,92.597z"/>
						<path fill="#414042" d="M141.847,91.005l0.053,0.87C141.935,91.721,141.946,91.491,141.847,91.005z"/>
						<path fill="#414042" d="M142.011,93.717l-0.111-1.842c-0.057,0.24-0.174,0.266,0.041,0.844
							C141.835,92.57,141.937,92.934,142.011,93.717z"/>
						<path fill="#414042" d="M141.956,94.761c-0.078,0.942-0.127,2.16-0.25,0.477C141.755,98.445,142.007,97.975,141.956,94.761z"
							/>
						<path fill="#414042" d="M141.054,103.082l-0.104,1.259l0.119,1.091C141.011,104.887,141.167,103.006,141.054,103.082z"/>
						<path fill="#414042" d="M142.292,82.139c-0.076-0.105-0.201,0.565-0.299,0.688l0.088,1.24
							C142.132,83.431,142.181,82.223,142.292,82.139z"/>
						<path fill="#414042" d="M141.993,82.827l-0.131-1.853C141.847,82.63,141.909,82.935,141.993,82.827z"/>
						<polygon fill="#414042" points="141.45,90.703 141.726,93.753 141.448,90.117 						"/>
						<polygon fill="#414042" points="142.302,75.053 142.478,76.104 142.212,74.231 						"/>
						<path fill="#414042" d="M142.271,70.355c0.146,0.777,0.248-1.07,0.336-0.246c-0.025-1.277-0.15-2.367-0.262-3.347
							C142.407,67.804,142.39,68.917,142.271,70.355z"/>
						<path fill="#414042" d="M142.181,65.115c0.035,0.52,0.098,1.059,0.164,1.648C142.31,66.207,142.263,65.662,142.181,65.115z"/>
						<path fill="#414042" d="M141.899,77.812c0.047-0.144,0.166-0.42,0.217-1.459l-0.213,0.729
							C141.903,77.305,141.901,77.556,141.899,77.812z"/>
						<path fill="#414042" d="M141.897,77.107l0.006-0.025c0.006-0.79,0.01-1.341,0.012-1.576
							C141.913,75.708,141.907,76.189,141.897,77.107z"/>
						<path fill="#414042" d="M141.899,77.996c0-0.067,0-0.118,0-0.185C141.88,77.883,141.872,77.924,141.899,77.996z"/>
						<path fill="#414042" d="M141.644,85.841c-0.119-1.09-0.246-3.362-0.43-1.161C141.36,85.46,141.464,84.201,141.644,85.841z"/>
						<path fill="#414042" d="M141.632,78.901l-0.049,1.971c0.057-0.036,0.139-0.395,0.199,0.148L141.632,78.901z"/>
						<polygon fill="#414042" points="141.563,77.939 141.632,78.901 141.649,78.172 						"/>
						<path fill="#414042" d="M141.979,68.487c-0.092-0.85-0.1-1.781-0.115-2.833c-0.041,1.129-0.064,2.293-0.064,3.401
							C141.868,69.209,141.987,69.695,141.979,68.487z"/>
						<path fill="#414042" d="M141.921,72.679c-0.004-0.062-0.008-0.136-0.012-0.189C141.89,72.604,141.884,72.699,141.921,72.679z"
							/>
						<path fill="#414042" d="M141.866,55.299c-0.014,0.058-0.025,0.109-0.039,0.169c0.012,0.01,0.023,0.021,0.037,0.036
							L141.866,55.299z"/>
						<path fill="#414042" d="M141.761,69.244c-0.041,0.845,0.01,1.352,0.076,1.835c-0.021-0.632-0.035-1.305-0.037-2.023
							C141.771,68.983,141.749,68.971,141.761,69.244z"/>
						<path fill="#414042" d="M142.081,62.223c-0.045,0.443-0.084,0.942-0.119,1.469C142.03,63.262,142.136,62.382,142.081,62.223z"
							/>
						<path fill="#414042" d="M141.968,72.202c0.004,0.041,0.006,0.083,0.01,0.128C142.022,72.052,142.001,72.085,141.968,72.202z"
							/>
						<path fill="#414042" d="M141.968,72.202c-0.031-0.435-0.084-0.777-0.131-1.123c0.018,0.515,0.041,0.995,0.072,1.41
							C141.923,72.382,141.946,72.279,141.968,72.202z"/>
						<path fill="#414042" d="M140.495,52.162c0.197,0.151,0.381,2.379,0.168,4.301c0.148,1.891,0.799,0.655,1.164-0.996
							c-0.086-0.062-0.166-0.062-0.283-2.006c-0.107,0.681-0.254,4.319-0.432,2.676c-0.104-2.579,0.07-2.113,0.174-3.367
							c-0.246,1.064-0.359-3.28-0.721-2.72l0.127,2.262C140.636,52.356,140.546,51.535,140.495,52.162z"/>
						<path fill="#414042" d="M141.808,59.178l0.023,0.798c0.035-0.911,0.113-1.566,0.27-2.769c-0.098-1.336-0.17-1.612-0.236-1.704
							l-0.027,3.945L141.808,59.178z"/>
						<path fill="#414042" d="M141.833,63.574c-0.217-0.625-0.309-2.548-0.541-1.372c0.016,2.354,0.18,1.648,0.273,3.055
							c-0.053-3.797,0.119,1.09,0.242-1.653c0.037,0.747,0.047,1.417,0.057,2.049c0.035-0.682,0.068-1.341,0.098-1.962
							c-0.004,0.036-0.008,0.059-0.012,0.087v0.018l-0.004-0.002c-0.027,0.164-0.043,0.215-0.027,0.031
							c0-0.012-0.004-0.057-0.004-0.077C141.884,63.723,141.858,63.651,141.833,63.574c0.045-1.098,0.057-0.171,0.082,0.174
							c0.01,0.01,0.02,0.041,0.031,0.046l0.004-0.016l-0.119-3.802C141.802,60.783,141.808,61.788,141.833,63.574z"/>
						<path fill="#414042" d="M140.751,82.65c0.02-0.118,0.035-0.113,0.051-0.12C140.774,82.284,140.757,82.189,140.751,82.65z"/>
						<path fill="#414042" d="M140.882,81.087c0.029,0.276,0.115,0.507,0.094,1.404c-0.064,0.78-0.104-0.002-0.174,0.039
							c0.057,0.54,0.154,1.894,0.26,0.194l-0.029-0.267c0.072-1.53,0.342-3.498,0.371-3.229
							C141.21,79.674,141.071,80.068,140.882,81.087z"/>
						<path fill="#414042" d="M141.302,72.223l-0.105-3.167l-0.188,1.611l0.113-0.082C141.077,72.387,141.216,71.998,141.302,72.223
							z"/>
						<polygon fill="#414042" points="141.974,54.938 142.2,55.358 141.88,53.528 						"/>
						<polygon fill="#414042" points="141.946,50.826 142.144,50.977 142.024,49.89 						"/>
						<path fill="#414042" d="M4.199,59.817l0.056,0.929C4.238,60.306,4.219,60.022,4.199,59.817z"/>
						<path fill="#414042" d="M4.212,53.083l-0.098-0.164C4.168,53.231,4.208,53.359,4.212,53.083z"/>
						<path fill="#414042" d="M82.388,1.921c-1.357-0.185-2.871-0.471-2.707-0.249l0.416,0.217
							C81.044,1.851,81.769,1.875,82.388,1.921z"/>
						<path fill="#414042" d="M13.208,3.292c0.13-0.005,0.266,0.022,0.398,0.035c0.324-0.09,0.631-0.176,0.906-0.252
							C14.116,3.141,13.666,3.198,13.208,3.292z"/>
						<path fill="#414042" d="M12.441,4.316c0,0-0.103,0.004-0.254,0.035c-0.153,0.026-0.356,0.06-0.559,0.095
							c-0.207,0.027-0.409,0.072-0.557,0.12c-0.15,0.041-0.25,0.068-0.25,0.068C11.181,4.536,11.708,4.438,12.441,4.316z"/>
						<path fill="#414042" d="M4.429,96.593l0.221,1.085C4.648,95.979,4.537,96.726,4.429,96.593z"/>
						<path fill="#414042" d="M140.198,8.374c-0.557-1.177-1.229-1.983-1.836-2.656C139.39,6.925,139.825,8.119,140.198,8.374z"/>
						<path fill="#414042" d="M1.897,57.167c0.039,0.568,0.083,0.813,0.132,0.796C1.992,57.376,1.95,57.043,1.897,57.167z"/>
						<path fill="#414042" d="M135.382,3.441c0.188,0.133,0.373,0.265,0.564,0.401c0.828,0.462,1.602,1.046,2.416,1.875
							C137.616,4.833,136.583,3.927,135.382,3.441z"/>
						<path fill="#414042" d="M97.069,139.596c0.098,0.009,0.213,0.019,0.303,0.026C97.401,139.593,97.267,139.592,97.069,139.596z"
							/>
						<path fill="#414042" d="M136.073,139.711c-0.348,0.22-0.91,0.603-1.496,0.859c0.143-0.062,0.334-0.146,0.584-0.275
							C135.397,140.144,135.696,139.952,136.073,139.711z"/>
						<path fill="#414042" d="M142.04,34.276C142.054,35.146,142.063,34.414,142.04,34.276L142.04,34.276z"/>
						<path fill="#414042" d="M141.183,38.519c-0.025-0.187-0.055-0.328-0.105-0.348C141.13,38.242,141.163,38.362,141.183,38.519z"
							/>
						<path fill="#414042" d="M126.296,3.199c-0.025,0-0.045,0-0.076,0C126.481,3.24,126.435,3.232,126.296,3.199z"/>
						<path fill="#414042" d="M141.942,35.586c0.025-0.328,0.049-0.704,0.064-1.116C141.989,34.652,141.968,34.992,141.942,35.586z"
							/>
						<path fill="#414042" d="M142.044,35.412c-0.008,0.299-0.014,0.537-0.021,0.762C142.06,36.282,142.083,36.185,142.044,35.412z"
							/>
						<path fill="#414042" d="M142.028,33.058c0.004,0.502-0.006,0.967-0.021,1.413c0.014-0.169,0.025-0.24,0.033-0.194
							C142.038,34.02,142.034,33.657,142.028,33.058z"/>
						<path fill="#414042" d="M25.606,140.177c0.059,0.007,0.125,0.014,0.189,0.021C26.676,140.107,26.287,140.121,25.606,140.177z"
							/>
						<path fill="#414042" d="M59.68,4.174c0.041-0.004,0.062-0.006,0.1-0.011c-0.041-0.002-0.092-0.005-0.131-0.007L59.68,4.174z"
							/>
						<path fill="#414042" d="M56.548,4.335c1.333-0.27,2.093-0.237,3.101-0.18L58.616,3.53L56.548,4.335z"/>
						<path fill="#414042" d="M4.261,75.938l0.195-2.2c0.321,2.656,0.21,4.58,0.484,2.513c-0.679-0.312-0.07-8.551-0.748-8.858
							l0.143-1.451c-0.007,0.417,0.033,0.484,0.026,0.893c0.325-2.82-0.491-2.096-0.395-5.731c0.052-1.264,0.151-2.149,0.231-1.285
							l-0.168-2.825c0.013-0.819,0.131-0.62,0.118,0.199l-0.054-4.306l0.02,0.033c-0.106-0.614-0.271-2.006-0.341-2.687
							c0.097-1.095,0.072,0.548,0.157,0.269l-0.165-2.382c0.176-0.973,0.347,1.003,0.322,2.651c0.678-2.226-0.171-1.98,0.225-6.784
							l0.086,2.25c0.385-1.448,0.246-3.207,0.486-5.752c-0.125,0.604-0.605,5.097-0.774,2.508c0.051-0.727,0.076-1.689-0.061-3.086
							c0.242-0.01,0.182-1.374,0.168-3.081l0.32,0.118c-0.092-1.842-0.255-1.699-0.399-2.784c0.031-2.052,0.279-2.479,0.488-2.963
							c0.051-3.291-0.397,2.272-0.458-1.622c0.122-2.738-0.008-4.657-0.2-7.932c0.11-1.914,0.196,0.335,0.287-0.354L4,19.59
							c0.006-0.417,0.085-0.282,0.124-0.212c-0.099-1.433-0.319-0.118-0.406-2.37c-0.165-0.286-0.072-1.491,0.101-2.847
							c0.167-1.335,0.654-2.799,1.031-4.041c0.356-0.53,0.044,0.36,0.241,0.236c0.638-1.604,1.126-2.217,1.524-2.755
							c0.203-0.272,0.391-0.534,0.679-0.84c0.268-0.329,0.638-0.693,1.197-1.193c0,0,0.142-0.071,0.355-0.177
							c0.214-0.103,0.488-0.259,0.789-0.359c0.58-0.247,1.186-0.397,1.186-0.398c-0.452,0.094-0.66,0.118-0.689,0.068
							c-0.033-0.059,0.109-0.201,0.386-0.363c0.535-0.364,1.612-0.806,2.69-1.047c-0.354-0.004-0.683-0.008-0.972-0.012
							c-0.292,0.01-0.543,0.048-0.748,0.072c0,0,0.214-0.066,0.535-0.165c0.324-0.086,0.767-0.161,1.208-0.254
							c0.449-0.046,0.898-0.092,1.234-0.126c0.329-0.017,0.548-0.028,0.548-0.028c0.425,0.052,0.072,0.163-0.501,0.296
							c0.237-0.028,0.464-0.056,0.64-0.077c1.254,0.118,0.604,0.303-0.292,0.481c-0.434-0.073-0.838-0.102-1.254-0.153
							c-0.841,0.267-1.552,0.633-1.342,0.784c0.199-0.078,0.605-0.163,1.053-0.253c-0.205,0.085-0.33,0.152-0.231,0.169
							c0.114,0.005,0.442-0.101,0.981-0.199l0.773,0.334l0.192-0.142l4.588,0.223c3.28-0.359,6.136-0.887,11.343-1.035
							c-1.292,0.262-0.279,0.427-0.348,0.737c-1.42-0.328-4.035,0.139-6.732,0.072c1.408,0.035,1.098,0.183,0.74,0.234l4.813-0.298
							c-0.107,0.253,1.023,0.19,2.283,0.295c-0.952-0.501,3.587-0.334,5.547-0.487c0.12,0.168-0.348,0.34-2.738,0.299
							c2.635,0.377,3.406-0.588,5.993-0.268c-0.583,0.004-0.896-0.021-1.126,0.064c1.361-0.149,4.693-0.031,3.91,0.116L42.72,3.976
							c3.875,0.06,11.796,0.004,12.375-0.421c0.036,0.055-0.509,0.513-0.742,0.599l6.911-1.431
							c-0.609,0.365,1.727,1.235-1.484,1.441c0.923,0.052,2.065,0.113,4.009-0.016c-0.629-0.052-1.571-0.528-0.711-0.562
							c2.361,0.406,1.64,0.217,4.55,0.564c-0.942-0.079,0.104-0.651,1.597-0.633c-0.236,0.085,0.122,0.565-0.423,0.625l3.711-0.562
							c-0.927,0.101-0.164,0.477,0.667,0.635c-0.386-0.11,3.207,0.01,4.197-0.045l-1.574-0.13c4.188,0.085,4.137-0.791,8.293-0.761
							c-0.502,0.116-1.244,0.715,0.869,0.786c0.971-0.288,4.289-1.385,7.969-1.607l0.703,0.165l2.822-0.188
							c-1.758,0.433-6.688,1.345-9.381,1.7c1.57,0.131,0.439,0.194,2.785,0.18c0.828,0.154-1.279,0.234-1.971,0.243l5.467,0.1
							c-0.242-0.337,4.18-0.337,3.971-0.617l-5.938,0.348c-0.24-0.335,3.436-0.954,7.309-0.895c0.982,0.134-0.736,0.599-0.658,0.711
							c0.504-0.116,3.678-0.221,4.031-0.139l-1.643,0.18c2.156,0.126,3.52-0.446,6.109-0.125c0.896,0.021,2.672,0.433,2.826,0.233
							c-1.459-0.383-1.746-1.57-0.773-1.858c0.314,0.026,4.697,0.367,5.717,0.556c1.473,0.301-2.211,0.717-0.957,0.975
							c0.057-0.092,0.869-0.205,1.207-0.242c0.939,0.079-0.389,0.285,1.652,0.243c0.338-0.341,4.15,0.029,0.963-0.288
							c1.996-0.098,2.123,0.07,4.467,0.055c-0.746-0.22,2.104-0.75,4.105-0.847c-0.117,0.086,0.33,0.2,0.547,0.251
							c2.043,0.041,3.635-0.037,5.115,0.323c1.477,0.344,2.877,0.916,4.391,2.015c0.268,0.24,1.502,1.522,0.842,1.119
							c0.221,0.148,0.428,0.294,0.67,0.518c0.256,0.212,0.549,0.497,0.881,0.96c0.5,0.989,0.152,0.454-0.279-0.079
							c-0.412-0.558-0.982-1.046-0.549-0.339c0.064-0.01,0.223,0.112,0.428,0.334c0.209,0.218,0.488,0.518,0.734,0.9
							c0.553,0.728,1.004,1.736,1.309,2.489c0.074-0.28-0.213-1.2-0.752-2.15c-0.562-0.941-1.398-1.851-2.006-2.382
							c0.129-0.135,0.828,0.181,1.701,1.098c0.848,0.913,1.896,2.462,2.33,4.536c0.174,0.82,0.18,1.332,0.174,1.633
							c-0.006,0.302-0.037,0.396-0.072,0.405c-0.074,0.017-0.17-0.304-0.125-0.02c-0.066,5.957,0.738,5.073,0.436,10.018
							c-0.268,1.96-0.535,0.087-0.729,0.522c-0.102-2.58,0.172-3.961,0.16-5.711l-0.127,2.154c-0.09-0.824-0.158-2.546-0.08-3.485
							c-0.24,1.643-0.045,10.056-0.27,14.652c0.092,0.813,0.184,2.224,0.293,1.556l-0.039-1.454
							c0.217-1.335,0.301,2.738,0.402,0.896c0.152,1.95,0.391,4.135,0.27,6.881l-0.307,0.514c0.09-0.056,0.182-1.791,0.088-2.564
							c0.137,1.144-0.414,4.207-0.014,5.461l0.213-1.924c0.154,1.96,0.48,4.378,0.383,6.812c0.303-1.108-0.035-0.563,0.32-2.29
							c-0.441,1.497,0.018-6.221-0.445-3.815c0.412-1.773,0.174-3.07,0.525-5.389c-0.102,0.071-0.193,0.824-0.145-1.218
							c-0.029-0.092-0.066-0.312-0.088-0.45c0.004-0.062,0.004-0.082,0.008-0.138c-0.004,0.041-0.008,0.072-0.012,0.113
							c-0.016-0.087-0.02-0.095-0.006,0.043c-0.043,0.486-0.096,0.88-0.152,1.041c-0.232-1.013-0.225-4.263-0.346-5.358
							c0.049-1.213,0.115,0.507,0.225-0.156l-0.18-1.64c0.225-0.164,0.373-3.219,0.504-0.363l0.01-2.569
							c0.127-1.515,0.176-3.593,0.082-4.877c0.049-1.213-0.248-3.06-0.072-2.006l-0.141-4.028l0.057-0.036
							c-0.004-0.513,0.02-0.96-0.027-1.543l-0.057-0.837l-0.143-0.834c-0.076-0.562-0.279-1.101-0.426-1.653
							c-0.221-0.53-0.393-1.083-0.676-1.592c-1.027-2.085-2.609-3.946-4.637-5.449c-1.299-0.717-2.719-1.356-5.158-1.771
							c0,0-0.459-0.259-0.463-0.247c-0.891-0.026-2.225-0.066-3.434-0.102c-1.168-0.032-2.213-0.047-2.58,0.054
							c-1.855-0.522-8.342-0.114-11.361-0.207l-0.115,0.253c-2.08-0.014-4.076,0.058-6.656,0.16l0.158,0.224
							c-2.225,0.184-5.723-0.159-9.244-0.137c0.238-0.085,1.133-0.063,1.764-0.011c-4.207-0.506-8.875,0.369-12.689,0
							c-0.949,0.082-1.641,0.054-2.307-0.003c0.088,0,0.17-0.004,0.236-0.012c-0.098,0-0.24-0.001-0.389-0.002
							c-0.42-0.038-0.857-0.078-1.32-0.12c0.396,0.055,0.777,0.1,1.109,0.12c-0.734,0.005-1.848,0.033-2.938,0.089l-0.463-0.241
							c-0.09,0.002-0.16,0.004-0.254,0.007c-1.068-0.089-0.859,0.114-0.285,0.295c-0.551,0.039-1.055,0.087-1.443,0.145
							c-0.871-0.389-2.861,0.131-4.045-0.284c-0.734,0.202-5.479,0.152-6.063,0.577c-0.035-0.055-0.358-0.082,0.23-0.085
							c-1.213-0.049-2.428-0.097-3.518,0.023l-0.515-0.306l-2.656,0.412c-1.612-0.187-2.277-0.295-0.678-0.531
							c-3.866,0.362-3.135,0.137-6.423,0.496l0.162-0.198c-1.177,0.008-3.055,0.272-3.762,0.109
							c-2.63-0.376-13.004-0.052-19.751-0.402c1.308,0.583-3.134-0.261-3.403,0.19c-0.391-0.138-1.333-0.215-0.24-0.335
							c-3.442,0.136-5.171-0.219-7.551,0.162c-0.394-0.138,0.737-0.202,0.389-0.284c-0.276,0.03-1.095,0.12-1.454,0.038
							c-0.351-0.082,0.504-0.116,1.049-0.176c-3.516,0.023-3.874,0.448-4.13,0.847c-1.736-0.218-2.818-0.117-4.041,0.434
							c-0.65,0.042-1.783,0.166,0.477-0.427c-0.64,0.098-2.636,0.562-4.218,1.588C6.358,5.153,5.265,6.528,5.345,6.671
							C4.989,6.902,4.21,8.097,4.09,8.422c-0.751,1.25-1.003,2.016-1.25,2.76C2.64,11.94,2.41,12.704,2.369,14.139l0.098-0.786
							c0.29,1.164,0.021,2.306,0.062,4.497l-0.04-0.064c-0.278,5.01,0.133,2.165-0.184,7.104l0.24-0.269
							c0.516,0.46-0.304,4.378-0.107,7.244l0.137-1.034c0.177,1.566-0.701,4.375-0.766,5.947c-0.045,0.343-0.072-0.54-0.105-1.019
							c-0.304,4.117,0.314,0.532,0.388,3.603c-0.17,0.563-0.431-0.732-0.463,1.335c-0.137,1.029,0.55,5.988,0.226,8.805
							c0.13-0.622,0.261-1.236,0.359,0.187c0.046,2.186-0.494,5.906-0.082,7.879c-0.036,0.279-0.07,0.381-0.102,0.394
							c0.106,1.671,0.176,5.427,0.399,6.43C1.6,65.938,2.831,74.773,2.067,74.735l0.041,5.138L2.03,79.737
							c-0.05,3.283,0.133,4.445,0.316,5.597c-0.052,0.76-0.124,0.205-0.164,0.144c-0.154,4.795-0.122,5.273,0.259,9.293l-0.248,0.42
							c0.144,1.09-0.389,6.935-0.1,11.638c-0.028-0.046-0.076-0.144-0.111-0.517c0.291,5.294-0.688,12.671,0.215,14.61l0.222,3.495
							c0.07-4.519,0.392,0.671,0.542-1.188c0.053,1.776-0.272,4.596-0.319,2.411l0.045-0.343c-0.459-0.797-0.212,5.584-0.383,5.592
							c0.293,2.364,1.285,4.61,2.786,6.421c0.749,0.909,1.642,1.685,2.599,2.357c0.971,0.66,2.038,1.157,3.141,1.539
							c1.117,0.336,2.27,0.557,3.431,0.587c1.104,0.037,2.146,0.037,3.215,0.055c2.123,0.018,4.226,0.035,6.307,0.052l-0.957-0.365
							l2.904,0.021c0.763,0.085,1.023,0.285-1.049,0.271c1.09,0.207,3.477-0.174,3.534-0.253c4.058,0.148-1.584,0.426-0.338,0.436
							l1.689-0.027l-0.381-0.043c1.369-0.149,1.492-0.309,3.984-0.29c1.576,0.073,0.809,0.226,1.428,0.239
							c-0.005,0.026,0.205,0.039,0.952,0.011l3.659,0.031l-1.464-0.288c1.623-0.143,3.444,0.015,1.755-0.312
							c2.477,0.504,13.654,0.182,15.174,0.338c2.272-0.211,4.516-0.207,7.295-0.182c-0.69-0.061-1.103-0.385,1.292-0.345
							c-0.875,0.67,4.389,0.29,6.325,0.772c-1.729-0.319,6.812-0.079,4.097-0.533c1.998,0.055,0.119,0.251,1.641,0.409
							c4.758-0.26,10.484,0.169,16.371,0.081c0.092-0.088-0.896-0.223,0.367-0.354l3.107,0.439c1.162-0.043,1.068-0.508,3.191-0.202
							c-0.301-0.074-0.748-0.186,0.033-0.214c5.762,0.215,11.648,0.127,17.559,0.086c2.955-0.021,5.914-0.029,8.867,0.018
							c1.479,0.023,2.949,0.063,4.428,0.115c1.588,0.055,3.197-0.187,4.727-0.703c-1.701,0.415-0.582,0.075,0.602-0.486
							c-0.785,0.332-0.076-0.205-0.277-0.24c0,0,0.301-0.124,0.75-0.311c0.43-0.229,1.023-0.509,1.559-0.889
							c0.564-0.341,1.053-0.789,1.436-1.104c0.357-0.347,0.596-0.577,0.596-0.577c0.197-0.466,1.061-1.579,1.623-2.815
							c0.312-0.601,0.502-1.243,0.658-1.745c0.111-0.517,0.17-0.906,0.125-1.053c0,0-0.088,0.399-0.176,0.8
							c-0.072,0.405-0.223,0.789-0.223,0.789c0.193-1.086-0.268-0.406-0.797,0.393c-0.578,0.796-1.377,1.62-1.504,1.361
							c-0.41,1.038-1.5,2.107-2.881,2.927c-1.381,0.849-3.016,1.408-4.729,1.957c-0.785,0.021,0.641-0.254,0.205-0.3
							c-0.211,0.082-0.436,0.165-0.689,0.227c-0.254,0.044-0.535,0.079-0.854,0.108c-0.652,0.046-1.498,0.019-2.568-0.022
							l0.242-0.051c-6.041,0.05-8.633-0.152-15.418-0.287l0.5,0.236c-1.457-0.031-1.766-0.105-2.445-0.165
							c-1.674,0.358,4.094,0.021,2.568,0.416c-1.934-0.481-10.283-0.007-11.592-0.555c-2.244-0.003,0.658,0.274-1.586,0.271
							l-0.594-0.148l-0.568,0.191c-1.469-0.031-2.211-0.217-2.266-0.342c0.357,0.015,1.012-0.035,1.396-0.047
							c-1.908-0.174-5.379,0.061-6.033,0.003l2.154,0.092c-6.121,0.139-13.598-0.056-19.514,0.245l0.447,0.111
							c-4.516,0.207-3.618-0.122-8.58-0.026l0.182-0.026c-0.993,0.111-2.318,0.167-3.677,0.154c1.254-0.131-2.354-0.254-0.711-0.399
							c-4.9,0.222-2.426,0.175-5.66,0.59l-0.747-0.186c-1.1,0.168-1.192,0.257-3.669,0.305c2.032-0.159-1.581-0.282,0.693-0.493
							c-5.197-0.405-7.72,0.409-10.104-0.184c-2.385,0.514,4.498,0.285,3.163,0.395c1.121,0.168-1.97,0.384-3.603,0.332
							c-1.658-0.012-2.822-0.656-7-0.646c0.417,0.002,0.445-0.036,0.859-0.034c-1.563-0.131-3.062,0.177-4.979-0.035
							c-1.075,0.31-2.492-0.019-2.799,0.378l3.831-0.092c-2.172,0.104-4.209,0.566-7.786,0.342c0.276-0.08,1.341-0.185,2.072-0.243
							c-1.044-0.116-2.014,0.077-3.099-0.042c0.31-0.396,4.657-0.087,6.983-0.389c-1.121-0.167-4.401,0.287-3.231-0.143
							c-1.681,0.546-4.117-0.068-6.945,0.348l0.187-0.236c-0.448,0.037-1.377,0.148-2.201,0.143l1.494-0.308
							c-1.146,0.132-2.25,0.074-3.342,0.002c-1.156-0.058-1.998-0.188-2.983-0.29c0.998,0.176,1.562,0.19,1.865,0.237
							c0.304,0.046,0.378,0.075,0.332,0.126c-0.074,0.094-0.479,0.211,0.493,0.297c-2.741,0.182-3.394-0.385-4.116-0.773
							c-0.176-0.109-0.356-0.223-0.562-0.351c-0.198-0.146-0.426-0.301-0.711-0.474c-0.542-0.393-1.337-0.851-2.35-1.812
							c0.52,0.538,2.167,1.85,1.123,1.261c-0.886-0.64-1.801-1.761-2.065-2.37c-1.063-1.501-0.984-1.401-0.854-1
							c0.15,0.386,0.439,1.03-0.042,0.374c-0.379-1.26-1.022-1.581-1.516-3.24l0.232-0.062c-0.157-1.077-0.162-1.689-0.223-2.062
							c-0.042-0.401-0.1-0.553-0.163-0.679c-0.122-0.258-0.239-0.456-0.146-2.616l0.334,1.827l-0.086-2.252l0.274,0.466
							c-0.204-2.451-0.151-3.214-0.074-5.611c-0.17,0.558-0.438-0.314-0.445-2.438c0.144-1.448,0.229,0.813,0.195-2.198
							c0.15,0.678,0.34,1.425,0.118,2.735c0.078,0.133,0.151,0.671,0.229,0.809c0.165-1.561,0.038-3.92,0.036-5.01
							c-0.009,0.419-0.022,0.921-0.056,1.177l-0.334-4.365c0.09-0.686,0.164-0.141,0.235,0.399
							c-0.026-0.886-0.137-1.495-0.158-2.795c0.196,0.336,0.398,0.256,0.491,2.094l-0.218-4.156
							c0.085-0.278,0.234-2.134,0.307-1.597c0.115-2.303-0.381-5.654-0.229-8.71c-0.038-0.158-0.074-0.476-0.103-1.126
							c0.044-2.873,0.285-5.419,0.016-8.822l0.352-1.933c-0.08-2.666-0.443,2.615-0.576-1.824c-0.112-3.142,0.3-1.172,0.398-2.277
							c-0.177-1.561-0.538-4.278-0.251-7.167C4.287,74.295,4.235,75.048,4.261,75.938z M4.105,43.055
							c0.05,0.637,0.207,1.906,0.064,2.372C3.894,44.703,4.026,44.142,4.105,43.055z M18.041,3.68
							c-0.473,0.08-1.205,0.041-2.034-0.051C16.608,3.609,17.286,3.618,18.041,3.68z M141.845,24.711
							c-0.006-0.025-0.008-0.045-0.012-0.066C141.927,23.222,141.89,23.729,141.845,24.711z M141.739,27.664
							c0.033,0.296,0.066,0.276,0.102,0.151c-0.062-0.208-0.066-0.868-0.049-1.625C141.729,26.4,141.685,26.784,141.739,27.664z
							 M34.926,141.801l-0.573-0.063C35.647,141.668,35.284,141.73,34.926,141.801z"/>
						<path fill="#414042" d="M12.539,4.196c-0.171-0.016-0.229-0.053-0.274-0.086C12.047,4.219,12.049,4.235,12.539,4.196z"/>
						<path fill="#414042" d="M4.388,96.391l-0.003,0.1c0.015,0.057,0.029,0.085,0.043,0.103L4.388,96.391z"/>
						<path fill="#414042" d="M114.526,4.15c-0.607-0.035-0.947-0.079-1.172-0.125C113.323,4.085,113.599,4.135,114.526,4.15z"/>
						<path fill="#414042" d="M142.149,43.303l-0.062-1.888c0.012,0.914-0.041,1.238-0.08,1.702
							C142.063,43.073,142.146,42.715,142.149,43.303z"/>
						<path fill="#414042" d="M140.657,59.715c0.029,0.276,0.002,0.583,0.033,0.857l0.111-0.074
							C140.794,59.321,140.704,58.498,140.657,59.715z"/>
						<path fill="#414042" d="M141.349,45.054c-0.203,0.151-0.135,1.335-0.098,2.661c0-0.08,0-0.153,0-0.235
							C141.536,47.871,141.44,46.461,141.349,45.054z"/>
						<path fill="#414042" d="M141.259,48.022c0.01,0.409,0.014,0.824,0.004,1.223C141.378,49.401,141.286,48.749,141.259,48.022z"
							/>
						<path fill="#414042" d="M141.874,31.407c-0.053,0.627,0.26,0.394,0.176,0.75C142.31,32.858,141.737,27.971,141.874,31.407z"/>
						<polygon fill="#414042" points="140.679,46.128 140.931,45.652 140.728,44.91 						"/>
						<path fill="#414042" d="M140.862,35.67l-0.068,2.116c0.041-0.031,0.066,0.235,0.086,0.568
							C140.888,37.049,140.937,35.622,140.862,35.67z"/>
						<path fill="#414042" d="M140.88,38.354c-0.006,0.678,0,1.326,0.041,1.702C140.919,39.69,140.909,38.897,140.88,38.354z"/>
						<polygon fill="#414042" points="140.604,43.234 140.657,42.607 140.675,41.113 						"/>
						<path fill="#414042" d="M140.769,12.896c0,0-0.08-0.585-0.268-1.146c-0.143-0.572-0.381-1.109-0.381-1.109
							c-0.178-0.187,0.051,0.405,0.27,1.24C140.62,12.396,140.722,13.269,140.769,12.896z"/>
						<path fill="#414042" d="M140.226,19.905c0.053-0.624,0.107-0.665,0.189-1.018l-0.311-0.069L140.226,19.905z"/>
						<path fill="#414042" d="M140.054,13.242c-0.061-0.235-0.908-3.025-0.285-0.364C139.933,13.067,140.144,15.261,140.054,13.242z
							"/>
						<polygon fill="#414042" points="110.956,3.299 111.542,3.295 111.46,2.786 						"/>
						<path fill="#414042" d="M80.284,4.517c2.738,0.122,0.65-0.314,3.123-0.162c0.643-0.121-2.021-0.125-1.363-0.229
							C80.394,4.254,79.526,4.182,80.284,4.517z"/>
						<path fill="#414042" d="M82.044,4.127c0.266-0.024,0.545-0.05,0.846-0.077C82.411,4.081,82.185,4.105,82.044,4.127z"/>
						<path fill="#414042" d="M140.776,134.571c0.047,0.025,0.803-1.787,0.762-1.804c0,0-0.104,0.302-0.262,0.581
							c-0.146,0.28-0.295,0.561-0.295,0.561s-0.045,0.168-0.09,0.336C140.841,134.41,140.776,134.571,140.776,134.571z"/>
						<path fill="#414042" d="M141.415,130.936c0-0.001,0.389-0.408,0.377-0.412l-0.236-1.162
							C141.538,129.788,141.565,130.626,141.415,130.936z"/>
						<path fill="#414042" d="M4.759,38.165l-0.078-0.133c-0.084,0.271-0.091,0.686-0.104,1.51L4.759,38.165z"/>
						<polygon fill="#414042" points="4.516,62.033 4.523,61.624 4.229,62.392 						"/>
						<path fill="#414042" d="M4.891,82.063c0.012-0.816-0.053-1.775-0.041-2.6C4.903,81.247,4.525,82.286,4.891,82.063z"/>
					</g>
				</g>
			</g>
		</g>
	</g>
</g>
<g id="under">
</g>
<g id="over">
	<g>
		<g>
			<g>
				<path fill="none" stroke="#565759" stroke-width="2" stroke-miterlimit="10" d="M110.749,78"/>
			</g>
		</g>
		<g>
			<g>
				<path fill="none" stroke="#565759" stroke-width="2" stroke-miterlimit="10" d="M63.275,34.73"/>
			</g>
		</g>
		<g>
			<g>
				<path fill="none" stroke="#565759" stroke-width="2" stroke-miterlimit="10" d="M56.869,102"/>
			</g>
		</g>
		<g>
			<g>
				<path fill="none" stroke="#565759" stroke-width="2" stroke-miterlimit="10" d="M110.749,72"/>
			</g>
		</g>
	</g>
	<g>
		<g>
			<g>
				<g>
					<g>
						<path fill="#414042" d="M48.061,128.836c-0.247,0.042,0.55,1.017,0.654,1.22C48.858,129.611,47.863,128.576,48.061,128.836z"
							/>
						<polygon fill="#414042" points="49.42,124.354 49.665,124.811 49.379,123.47 						"/>
						<path fill="#414042" d="M52.257,122.354c-1.513-1.551-0.822,1.014-1.768,0.754l-0.366-0.338l0.775,1.563
							C51.351,123.674,51.479,122.176,52.257,122.354z"/>
						<path fill="#414042" d="M56.458,125.043c-0.578-0.611-0.092-0.816-0.503,0.039c0.087,0.05,0.128,0.086,0.186,0.127
							C56.195,125.155,56.28,125.097,56.458,125.043z"/>
						<path fill="#414042" d="M56.141,125.209C55.879,125.471,56.743,125.639,56.141,125.209L56.141,125.209z"/>
						<path fill="#414042" d="M57.237,123.838l0.041,0.886c0.369,0.341,0.782,0.182,0.86,0.565
							C58.304,124.67,57.936,124.332,57.237,123.838z"/>
						<path fill="#414042" d="M56.698,122.301l-0.02,0.401C56.835,122.845,56.93,122.864,56.698,122.301z"/>
						<path fill="#414042" d="M56.636,123.551l0.043-0.849c-0.257-0.241-0.667-0.801-0.057,0.337
							C56.287,122.498,56.557,123.055,56.636,123.551z"/>
						<path fill="#414042" d="M56.202,123.459c-0.491-0.222-0.945-0.256-0.984-1.14C54.641,123.094,55.627,124.24,56.202,123.459z"
							/>
						<path fill="#414042" d="M51.112,120.449l-0.658-0.3l0.163,0.766C50.537,120.535,51.521,120.982,51.112,120.449z"/>
						<path fill="#414042" d="M60.322,122.993c-0.241-0.388-0.839-0.893-1.207-1.347l0.015,0.633
							C59.46,122.427,59.91,122.458,60.322,122.993z"/>
						<path fill="#414042" d="M59.116,121.646l-0.023-0.945C58.653,120.902,58.798,121.256,59.116,121.646z"/>
						<polygon fill="#414042" points="55.385,120.317 55.63,122.163 55.509,120.201 						"/>
						<polygon fill="#414042" points="62.009,121.856 62.377,122.891 61.887,121.281 						"/>
						<path fill="#414042" d="M62.998,120.923c0.327,0.84,1.11,1.023,1.23,1.598c0.208-0.34,0.025-1.133-0.139-1.844
							C64.065,121.156,63.749,121.264,62.998,120.923z"/>
						<path fill="#414042" d="M63.901,119.602c0.001,0.258,0.093,0.652,0.188,1.075C64.101,120.419,64.06,120.093,63.901,119.602z"
							/>
						<path fill="#414042" d="M59.962,120.356c0.194,0.2,0.678,0.74,1.097,0.814l-0.916-0.921
							C60.088,120.283,60.025,120.319,59.962,120.356z"/>
						<path fill="#414042" d="M60.113,120.222l0.03,0.028c0.201-0.109,0.346-0.177,0.41-0.204
							C60.498,120.067,60.366,120.12,60.113,120.222z"/>
						<path fill="#414042" d="M59.916,120.383l0.046-0.026C59.872,120.266,59.838,120.238,59.916,120.383z"/>
						<path fill="#414042" d="M57.195,120.449c-0.162-0.765-0.08-1.77-1.229-2.291C56.294,119.002,56.95,119.298,57.195,120.449z"/>
						<path fill="#414042" d="M58.771,119.23l-0.63,0.091c0.205,0.27,0.576,0.61,0.657,0.991L58.771,119.23z"/>
						<polygon fill="#414042" points="58.759,118.738 58.771,119.23 59.005,119.197 						"/>
						<path fill="#414042" d="M62.417,119.189c-0.126-0.596,0.063-0.789,0.257-1.038c-0.41-0.017-0.761,0.067-1.018,0.255
							C61.854,118.76,62.161,119.428,62.417,119.189z"/>
						<path fill="#414042" d="M61.231,119.6c-0.003-0.034,0.006-0.059,0.001-0.091C61.143,119.439,61.101,119.427,61.231,119.6z"/>
						<path fill="#414042" d="M65.095,116.43c-0.055-0.051-0.116-0.107-0.175-0.161l0.121,0.186L65.095,116.43z"/>
						<path fill="#414042" d="M61.473,118.243c-0.341-0.06-0.277,0.279-0.16,0.682c0.072-0.21,0.181-0.391,0.343-0.519
							C61.567,118.246,61.5,118.146,61.473,118.243z"/>
						<path fill="#414042" d="M64.228,118.632c-0.259-0.145-0.508-0.245-0.752-0.328C63.812,118.562,64.385,118.93,64.228,118.632z"
							/>
						<path fill="#414042" d="M61.506,119.749c0.002,0.023,0.007,0.049,0.003,0.067C61.735,119.994,61.648,119.89,61.506,119.749z"
							/>
						<path fill="#414042" d="M61.506,119.749c-0.006-0.223-0.11-0.537-0.193-0.824c-0.061,0.169-0.093,0.36-0.08,0.584
							C61.311,119.564,61.415,119.659,61.506,119.749z"/>
						<path fill="#414042" d="M61.038,109.213c0.656,0.992,0.775,2.258-0.415,1.542c0.077,1.04,2.64,4.012,4.296,5.514
							c-0.287-0.432-0.566-0.821-0.521-1.717c-0.537-0.414-1.891-0.513-2.133-1.662c0.246-0.928,0.738-0.011,1.396,0.291
							c-1.11-1.026-0.488-2.3-1.886-3.977l-0.082,1.001C61.487,109.937,61.364,109.36,61.038,109.213z"/>
						<path fill="#414042" d="M63.983,116.789l-0.1,0.254c0.333,0.016,0.762,0.292,1.583,0.848c-0.026-0.694-0.218-1.1-0.426-1.437
							l-1.017,0.524L63.983,116.789z"/>
						<path fill="#414042" d="M63.046,117.647c-0.607-1.156-0.478-1.925-1.566-2.865c-0.497,0.465,0.244,1.152,0.242,1.844
							c0.7-0.895,0.165,0.769,1.231,0.906c-0.046,0.303-0.164,0.47-0.28,0.619c0.25,0.014,0.518,0.062,0.802,0.152
							c-0.026-0.02-0.044-0.033-0.067-0.051l-0.001,0.007l-0.012-0.018c-0.132-0.104-0.201-0.175-0.103-0.129
							c-0.007-0.015,0-0.027,0.002-0.034c-0.099-0.151-0.173-0.29-0.243-0.426c0.411,0.033,0.235,0.244,0.243,0.426
							c0.033,0.053,0.066,0.107,0.101,0.163l0.013,0.011l0.476-1.21C63.59,117.031,63.377,117.229,63.046,117.647z"/>
						<path fill="#414042" d="M54.821,115.559c0.094,0.073,0.146,0.148,0.203,0.224C54.99,115.612,54.949,115.509,54.821,115.559z"
							/>
						<path fill="#414042" d="M55.641,115.933c0.041,0.192,0.288,0.651,0,0.692c-0.408-0.185-0.36-0.504-0.617-0.843
							c0.073,0.369,0.098,1.07,0.86,1.298l-0.041-0.188c0.616,0.105,2.013,1.089,2.054,1.277
							C57.117,117.299,56.542,116.69,55.641,115.933z"/>
						<path fill="#414042" d="M59.177,116.504l0.37-1.045l-1.027-0.641l0.41,0.532C58.356,115.438,58.928,116.046,59.177,116.504z"
							/>
						<polygon fill="#414042" points="65.553,116.893 66.25,118.073 65.555,116.199 						"/>
						<polygon fill="#414042" points="66.417,116.072 67.073,117.063 66.91,116.3 						"/>
						<path fill="#414042" d="M96.358,73.567l-0.501,0.06C96.023,73.616,96.189,73.596,96.358,73.567z"/>
						<path fill="#414042" d="M96.854,74.016l0.831-0.129C97.203,73.941,96.864,73.992,96.854,74.016z"/>
						<path fill="#414042" d="M89.913,99.097c0.961,0.676,2.315,1.821,1.5,0.763l-0.854-0.988
							C90.474,99.218,90.22,99.222,89.913,99.097z"/>
						<path fill="#414042" d="M101.427,81.303c-0.149-0.05-0.307-0.104-0.461-0.156c0.346,0.301,0.655,0.587,0.943,0.856
							C101.762,81.789,101.598,81.552,101.427,81.303z"/>
						<path fill="#414042" d="M96.446,78.243c0,0,0.26,0.072,0.519,0.146c0.268,0.066,0.534,0.134,0.534,0.134
							C97.151,78.411,96.801,78.318,96.446,78.243z"/>
						<path fill="#414042" d="M91.792,72.035l-1.019,0.904C91.176,73.214,91.386,72.544,91.792,72.035z"/>
						<path fill="#414042" d="M75.969,108.649c0.569,0.218,0.911,0.236,1.138,0.151C76.344,108.428,75.427,107.706,75.969,108.649z"
							/>
						<path fill="#414042" d="M114.705,69.607c-0.52-0.078-0.95-0.057-1.319,0.038C113.881,69.722,114.331,69.734,114.705,69.607z"
							/>
						<path fill="#414042" d="M77.893,108.233c-0.124-0.072-0.21-0.092-0.323-0.146c-0.072,0.319-0.171,0.606-0.463,0.713
							C77.674,109.079,78.15,109.159,77.893,108.233z"/>
						<path fill="#414042" d="M61.144,49.094c0.011-0.064,0-0.106,0.019-0.177C61.054,49.056,61.081,49.085,61.144,49.094z"/>
						<path fill="#414042" d="M59.605,31.936c0.136-0.003,0.283,0.1,0.431,0.182C60.021,31.998,59.903,31.925,59.605,31.936z"/>
						<path fill="#414042" d="M70.61,113.771C70.457,113.985,70.661,113.911,70.61,113.771L70.61,113.771z"/>
						<path fill="#414042" d="M66.625,110.294c-0.042-0.15-0.117-0.325-0.287-0.573C66.503,109.987,66.591,110.17,66.625,110.294z"
							/>
						<path fill="#414042" d="M75.206,100.194l0.021-0.009C75.018,100.021,75.057,100.053,75.206,100.194z"/>
						<path fill="#414042" d="M69.96,113.509c0.169,0.075,0.334,0.121,0.485,0.128C70.344,113.585,70.191,113.54,69.96,113.509z"/>
						<path fill="#414042" d="M70.358,113.98c-0.104,0.002-0.178,0.016-0.251,0.024C70.208,114.199,70.311,114.294,70.358,113.98z"
							/>
						<path fill="#414042" d="M70.854,113.511c-0.105,0.101-0.25,0.128-0.408,0.126c0.091,0.044,0.15,0.092,0.165,0.135
							C70.658,113.712,70.727,113.63,70.854,113.511z"/>
						<path fill="#414042" d="M79.907,58.068c0.01-0.043,0.009-0.076,0.026-0.132C79.415,58.232,79.557,58.226,79.907,58.068z"/>
						<path fill="#414042" d="M87.346,84.313c-0.002,0.018,0.014,0.049,0.014,0.068c0.018,0.005,0.04,0.011,0.057,0.015
							L87.346,84.313z"/>
						<path fill="#414042" d="M87.513,83.002c0.632,1.54,0.338,1.505-0.097,1.395l2.426,2.88L87.513,83.002z"/>
						<path fill="#414042" d="M94.557,72.755c0,0-0.233,0.193-0.466,0.386c-0.246,0.185-0.492,0.368-0.492,0.368
							c-2.005,0.941-1.327,0.607-2.835,1.557c1.869-1.174,2.075-1.156,2.277-1.142c0.203,0.017,0.402,0.03,2.677-0.855
							c0,0-0.206,0.116-0.413,0.232c-0.213,0.112-0.426,0.225-0.426,0.225c0.014-0.039-0.262,0.061-0.244,0.023
							c-1.001,0.487-0.158,0.181,0.961-0.142c1.105-0.331,2.485-0.678,2.355-0.415c-0.229,0.221-0.902,0.47-1.593,0.574
							c0,0,0.388-0.034,0.775-0.069c0.402-0.024,0.805-0.05,0.805-0.05c-0.014,0.088-0.979,0.273-0.951,0.197l0.868,0.215
							l-0.171,0.026c0.947-0.115,2.527-0.209,3.242-0.22c-0.701,0.221-0.702,0.034-1.398,0.165c0,0,0.437,0.006,0.872,0.011
							c0.448,0.014,0.896,0.028,0.896,0.028c-1.464,0.259-3.227,0.269-3.157,0.133c-2.829,0.493-2.469,0.435-1.699,0.404
							c0.742-0.049,1.936-0.038,0.271,0.241l-0.964-0.047c-1.224,0.141-1.869,0.216-2.66,0.307
							c-0.387,0.045-0.592,0.085-1.768,0.138c0.623-0.021,2.089-0.099,3.541-0.225c1.463-0.12,2.926-0.279,3.867-0.236
							c-0.412,0.086-0.587,0.143,0.92,0.201c-2.399,0.08-1.703,0.136-1.408,0.244l-3.312,0.012c0.093,0.004,0.176,0.007,0.224,0.009
							c0.895,0.058,2.426,0.071,3.684,0.16c-0.524,0.144-2.979,0.071-5.021-0.008c-0.303,0.029,0.659,0.074,1.78,0.107
							c1.116,0.036,2.404,0.052,2.507,0.201c-1.409,0.105-0.282,0.263,0.965,0.782c-1.146,0.008-1.629-0.276-2.481-0.342
							c0,0,0.5,0.112,1.001,0.225c0.487,0.122,0.975,0.244,0.975,0.244c-0.099,0.025-0.729-0.102-1.05-0.164
							c0.658,0.259,2.636,0.472,3.012,0.844c1.363,0.324,0.129,0.258-1.001,0.161c-1.148-0.084-2.149-0.229-0.906,0.357
							c-0.729-0.149-1.348-0.482-2.256-0.746c0.743,0.438,0.951,0.64,1.261,0.854c0.298,0.223,0.697,0.456,1.57,1.134
							c0,0-0.431-0.078-0.862-0.157c-0.414-0.091-0.828-0.182-0.828-0.182c1.742,0.526,3.14,1.622,3.928,2.78
							c0.815,0.272,1.559,0.489,1.947,0.568c0.021-0.015,0.047,1.232,0.026,1.247c-0.406-0.097-0.895-0.558-1.491-1.115
							c0.087,0.132,0.173,0.263,0.261,0.379c-0.958-0.187-1.752-0.98-2.562-1.72c0.446,0.159,0.905,0.323,1.357,0.484
							c-0.898-0.791-2.018-1.577-3.137-2.157c0.181,0.142,0.296,0.294,0.321,0.407c-0.264-0.2-0.513-0.37-0.71-0.465
							c-0.209-0.099,0.146,0.169,0.511,0.51c0,0-0.523-0.283-1.047-0.565c-0.515-0.29-1.029-0.579-1.029-0.579l0.751,0.508
							c0,0-0.455-0.086-0.876-0.196c-0.424-0.108-0.813-0.241-0.813-0.241c1.448,1.612,3.194,4.261,2.477,5.859
							c-0.649-1.464-1.474-2.095-2.549-3.612c0.686,0.72,0.739,0.424,0.644-0.005c-0.088-0.437-0.341-0.993-0.025-0.974
							c-0.335-0.014-0.911-0.691-1.1-0.938c0,0,0.2,0.407,0.352,0.85c0.156,0.438,0.265,0.911,0.265,0.911
							c-0.464-0.603-0.672-0.805-0.825-0.908c-0.076-0.052-0.141-0.078-0.216-0.118c-0.041-0.023-0.083-0.048-0.128-0.073
							c-0.065-0.018-0.139-0.043-0.221-0.08c1.971,2.284,0.327,2.227,0.406,3.303c-0.615-0.801-1.105-1.716-0.406-1.918
							c-1.932-1.398,1.259,3.438-0.464,2.308c0.122-0.117,0.285-0.043,0.041-0.499c0.204,0.957-0.987,0.936-1.315,0.09l0.124-0.114
							c-1.111,0.357-2.766,1.951-1.416,4.123c-0.2-0.262-1.671-2.586-1.917-3.045l3.384,8.137c-1.133-1.884-4.716-5.738-4.687-7.281
							c-0.397-0.1-0.876-0.206-0.879,0.748c0.328,0.148,2.21,2.314,2.126,2.621c-1.971-1.591-1.143-0.788-3.031-1.993
							c0.493,0.225,2.249,3.194,1.837,3.354c-0.244-0.458-2.003-2.739-2.084-3.12l1.098,3.362c-0.138-0.648-1.626-2.353-2.375-2.989
							c0.475,0.473-0.784,0.485-0.82,0.922l0.822,0.374c-1.274,0.284,1.795,4.549,0.723,5.099c-0.289-0.65-2.206-3.695-2.946-3.688
							c0.779,1.568,3.836,7.476,3.751,9.172l-0.738-0.686l-0.004,1.387c-1.103-2.408-3.136-7.682-3.746-9.861
							c-0.821-0.375-0.78-0.874-1.275-0.41c-0.732-0.614-0.52-1.355-0.39-1.516l-1.623,0.427c1.23,1.602,0.201,2.344,1.229,3.675
							l0.169-2.691c1.227,1.597,2.529,5.229,1.418,5.587c-0.696-0.489-1.917-3.043-2.326-3.577c0.286,0.649-0.087,1.692-0.456,1.352
							l-0.244-1.151c-0.944-0.257,0.734,2.762-0.99,1.629c-0.283,0.045-2.135-1.666-1.476-0.67c1.68,1.628,5.889,7.37,6.668,8.938
							c-0.164-0.074-2.376-1.005-3.275-1.76c-1.395-1.222-1.987-3.866-3.182-4.918c0.308,0.458,0.514,1.146,0.562,1.38
							c-0.493-0.226-0.902-1.452-1.234-0.909c1.111,1.72-1.068,0.553,0.782,1.566c-0.126,0.809-0.74,0.013-1.235,0.477
							c0.943,0.95,2.126,4.009,1.998,4.816c-0.275-0.442-0.773-0.918-1.004-1.133c-1.062,0.533-2.115,0.145-3.015,0.767
							c-0.371-0.344-1.149-0.522-1.478-1.37c0.082,0.386,0.368,1.033,0.123,1.271c-1.561-1.058,0.452-0.662-1.19-2.1
							c0.657,0.991,0.244,1.842,0.285,2.726c1.188,1.406,1.108-0.361,1.069-1.244c1.474,2.058,2.335,4.701,2.086,6.319
							c-0.374,1.04-1.273-1.102-1.192-0.717c-1.646,0.634,1.389,4.442-0.827,3.782c-1.396-0.984-1.888-2.596-2.667-3.469
							c0.247-0.928,1.52,0.171,1.891-0.174l-0.947-0.261c-0.12-0.573,0.045-1.192,0.536-0.969c-1.227-0.904-2.508,1.452-4.359,1.132
							c0.125,0.576,0.121,1.267,0.655,1.683l0.208-0.426c1.069,0.834,0.408,1.92,1.191,2.105c0.078,1.07,0.404,2.604-0.665,2.464
							l-1.191-1.41c0.326,0.428,1.056,0.592,0.911,0.008c0.207,0.854-2.431-1.323-1.322,0.845l1.191,0.715
							c0.081,1.079,0.652,3.071-0.253,3.006c1.315,1.292,0.01-0.264,1.65,1.177c-1.888-1.9,1.517-0.948-0.662-2.807
							c1.849,1.71,1.325,0.338,3.09,1.662c-0.37-0.481-0.867-0.807-0.217-0.904c-0.082-0.159-0.162-0.38-0.206-0.51
							c0.023,0.003,0.034,0.008,0.059,0.014l-0.068-0.039c-0.033-0.089-0.042-0.105-0.025-0.014
							c-0.268-0.134-0.545-0.328-0.78-0.576c-0.574-1.303,0.209-1.81,0.046-2.578c0.451,0.032,0.287,0.65,0.818,1.066l-0.245-1.15
							c0.822,1.068,2.054,1.282,1.847,2.401l0.634-0.38c0.793,0.361,1.453,0.259,1.423-0.417c0.453,0.035-0.153-1.724,0.214-0.689
							l0.454-1.352l0.204,0.268c1.027-0.525,0.611-3.18,3.087-1.961c0.115-0.501,0.195-1.069,0.94-1.133l0.781,0.875
							c0.163-0.617,1.882,0.087,1.347-1.023c2.258,2.241,2.345-0.836,3.373-0.888l-0.858-1.257c0.536-0.277,0.75-0.962,0.996-1.89
							l-0.819-1.066c-0.123-1.271,1.893-0.178,2.634-0.878c0.244,0.458-0.044,0.498-0.371,0.351
							c2.749,1.769,0.784-3.279,2.963-2.116c-0.063-0.557,0.194-0.536,0.547-0.372c-0.019,0.017-0.023,0.051-0.014,0.097
							c0.032-0.004,0.067-0.025,0.1-0.052c0.232,0.118,0.491,0.265,0.726,0.361c-0.283-0.199-0.529-0.354-0.679-0.4
							c0.155-0.146,0.317-0.467,0.376-0.923l0.948,1.098c0.01-0.031,0.028-0.04,0.035-0.076c0.561,0.255-0.197-0.7-0.964-1.488
							c-0.01-0.284-0.058-0.601-0.17-0.949c1.56,1.751,0.211-1.116,1.935,0.709c-0.534-1.109,0.747-1.657-0.602-3.83
							c0.202,0.265,0.369,0.34,0.244,0.454c0.452,0.035,0.904,0.067,0.74-0.699l1.189,1.408l-0.817-2.452
							c1.027,0.641,1.561,1.059,2.01,2.476c-0.362-2.413,0.255-1.189-0.231-3.491l0.653,0.993c0.249-0.233-0.238-1.841,0.497-1.16
							c1.936,1.391,3.198-1.905,6.029-1.351c-1.218-1.279-0.77-1.118-0.131-0.973c0.626,0.155,1.44,0.296,0.598-0.767
							c0.664,0.541,1.332,0.637,1.404,1.47c0.369-0.764,1.062-0.856,1.61-1.072c0.537-0.208,0.924-0.534,0.425-1.582
							c0.821,0.434,0.707,0.985,1.23,1.215c-0.032-0.196-0.169-0.764,0.377-0.547c0.547,0.214,0.383,0.58,0.452,0.973
							c1.345-1.133-0.803-2.73-2.867-4.194c1.558,0.277,1.771-0.072,0.618-1.176c0.935,0.293,2.106,0.462,1.66,1.127
							c0.467-0.193,3.757-1.278,1.651-2.129c0.665,0.122,0.707-0.332,0.548-0.49c0.992-0.568,1.291-0.57,1.915-1.24l-0.63,0.065
							c-2.61-0.977-0.006-0.63,0.295-1.188l0.301,0.077c1.883-0.322,1.808-0.514,1.719-0.66c-0.068-0.16-0.154-0.272,2.032-0.666
							l-2.221-0.18c-2.225-0.312-1.285-0.422,0.179-0.615c1.45-0.183,3.485-0.49,2.967-0.847l-1.636,0.16
							c-0.615-0.194,1.261-0.326,3.591-0.53c2.318-0.195,5.097-0.467,5.938-0.687c0.011-0.013,0.019-0.024,0.021-0.035
							c0.147-0.042,0.351-0.02,0.58,0.033c0.107,0.062,0.126,0.171,0.211,0.246c0.41-0.099,0.729-0.184,0.962-0.251
							c0.407-0.754-3.898,0.039-5.564-0.647c1.484-0.196,4.615,0.092,4.1-0.503c0.468-0.173-1.503-0.554-3.225-0.931
							c-1.738-0.389-3.208-0.761-2.3-1.313c-0.909,0.317-1.884,0.587-3.221,0.364c-0.561-0.224,0.017-0.723,0.142-1.206
							c0.138-0.474-0.164-0.923-2.112-0.786c0.184-0.132,0.413-0.222,0.66-0.285c-1.42-0.223-3.215-0.972-5.067-0.641
							c2.663-1.162,0.986-1.606-0.474-1.837c-1.481-0.247-2.792-0.313-0.615-1.582l-2.003-1.113l0.446-0.258
							c-0.924-1.022-2.216-0.589-3.383-0.066c-0.012-0.39,0.477-0.569,0.678-0.722c-0.466-0.894-0.826-1.371-1.384-1.497
							c-0.279-0.063-0.611-0.041-1.033,0.06c-0.21,0.05-0.443,0.12-0.701,0.209c-0.226,0.118-0.477,0.249-0.758,0.396l0.759-1.284
							c-0.754,0.526-0.281-3.052-2.384-2.413c0.107-0.13,0.297-0.35,0.505-0.459c-2.247,0.55-0.593-5.467-4.169-1.362l-1.589,0.512
							c0.816,1.091-1.512,1.809-1.595,2.852c-0.6-0.034-0.136-2.095,0.537-1.961l-0.076,0.278c1.815-2.174-0.74-1.747,0.396-3.297
							c-2.164-1.356-3.296-4.067-5.179-5.543l-1.04,1.952l-0.608-0.583c0.116-0.544,0.75-1.572,1.184-1.155
							c0.461-1.196-1.416,0.276-1.705,0.657c-0.438-1.398,1.847-1.83,1.585-2.079l-0.49-0.145l-0.059,0.272
							c-0.838,0.506-1.414,1.263-1.937,0.762c-0.116-0.62,0.591-1.24,0.495-1.412c0.091-0.126,0.083-0.221-0.188-0.209l-0.75-0.758
							l-0.655,1.658c-0.873,0.429-0.755-0.644-1.491,1.239c1.164-2.883-2.574-3.146-2.39-4.165
							c-1.261,0.656-1.773,0.267-2.338-0.317c-0.045,0.409-1.072,2.069-1.496,1.478c2.522-3.14-0.022-2.151,1.19-4.834
							c-0.7,1.853-1.87-0.74-2.803,1.934c-0.281-0.596,0.838-1.249,1.028-2.274c-2.013,0.485-1.875-2.562-3.558-3.105
							c-0.325,0.416-0.559,1.238-1.308,1.671l0.792-2.669c-0.422,0.02-2.006,2.312-1.448,0.464
							c-0.186,0.412-0.466,1.033-0.747,1.042c-1.22-4.007-6.735-2.174-6.694-8.057c-0.218,1.098-0.524,1.006-0.83,0.836
							c0.044,0.331-0.755,1.063-1.131,1.672l-0.003-2.434c-1.354,1.474-1.31-0.759-2.523,0.707l0.56-0.022
							c-1.774,1.489-2.192,4.545-3.919,6.843c2.009-1.698-0.745,4.089,2.245,1.738c-0.143,0.617-0.702,0.638-0.98,1.257
							c0.935-0.848,1.354-0.866,1.541-0.059l-0.233,0.209c1.59,0.754,1.498,2.175,2.622,3.958l0.702-1.244
							c0.232,0.397,0.047,0.812,0.002,1.215c1.634-1.484-0.89-0.776,0.837-2.466c-1.213,2.683,2.386,1.737,0.798,4.638
							c0.516,0.385,0.794-1.453,1.309-1.066l-0.373,0.825l0.793-0.842c0.235,0.397-0.231,1.429-0.652,2.053
							c-0.033-0.132-0.359,0.004-0.486-0.006c-0.156,1.172,1.467,0.598,1.424,0.985l-0.189-0.804
							c1.915,0.333,2.995,2.523,5.424,2.025l0.282-0.623c1.774-0.267,0.423,1.201,1.918,1.552l-0.135,0.1
							c0.618-0.381,1.123-0.438,1.397-0.15c-0.747,0.434-0.328,1.637-1.214,2.075c1.917-0.278,1.172-0.454,3.366-1.955l-0.466,1.032
							c0.838-0.641,1.166-1.059,1.913-0.885c-1.027,0.444-0.606,1.646-1.868,2.302c-0.184,2.848,3.227-0.73,1.734,2.571
							c2.334-2.122-0.069-2.141,0.624-2.458c0.317-1.008,1.788-1.555,1.993-1.032c0.349,0.331-1.609,3.686-0.596,4.329
							c-0.089-0.081-0.23,0.105-0.319,0.025c-0.087,0.9,1.331-0.362,1.045,0.998c1.325-1.344,0.522,0.5,1.963-1.39l-1.215-0.185
							c0.868-0.148,2.947-2.082,3.009-0.389c-0.341,0.346-0.953,0.684-1.327,0.851c-0.159,0.745,0.739-0.046,0.579,0.721
							c-1.443,1.892-1.39-0.348-2.979,0.748c-0.316,1.005,2.023-0.678,0.266,1.231c2.281-2.396,0.728,1.019,2.831-0.556
							l-0.864,1.133c0.233-0.109,0.839-0.505,1.011-0.339l-1.414,1.261c1.445-0.908,0.242,1.855,1.251,1.519
							c-1.104-0.725,0.747-1.572,0.89-2.743c2.429-0.619-1.382,3.583,0.501,4.075c-0.317,0.021-0.265-1.233,0.432-1.549
							c0.114,0.439,0.174,1.15-0.083,1.883c1.157,0.455,0.693-1.303,1.617-1.722c-0.664,1.654,0.892-0.235,1.644-0.384l-0.831,1.185
							c0.589,1.552,2.036-2.255,2.402-0.624l-1.585,1.338l0.827-0.051l-1.059,1.268c1.279-0.593,1.275-0.208,1.571,0.565
							c0.457-0.925,1.588-2.094,2.112-1.78c-0.156,0.942-0.984,0.989-0.159,1.319c-0.681,0.627-1.511,1.433-1.05,0.127
							c-0.303,0.363-0.681,0.631-0.981,0.989c-0.204,1.066,0.789,0.833,1.052,1.002c-0.066-0.114-0.14-0.26-0.08-0.471l2.179-0.917
							c-0.152,0.558-0.531,0.824-0.904,1.084c0.298,0.019,0.823-0.424,1.2-0.311c-0.757,0.906-1.438,1.911-2.188,2.06l1.727-0.379
							c-0.229,0.464-0.31,1.5-0.686,1.766c0.142,0.946,2.642-0.93,2.831,0.321c0.169-0.16,0.369-0.286,0.619-0.316
							c0.117,0.165,0.241,0.423,0.263,0.619c-0.035,0.156-0.082,0.312-0.096,0.42c-0.023,0.219,0.062,0.228,0.768-0.261
							c0,0-0.338,0.406-0.7,0.796c-0.359,0.392-0.741,0.768-0.741,0.768c0.229-0.132,0.729-0.592,1.23-1.099
							c0.51-0.502,1.021-1.051,1.568-1.152c0.881-0.201-1.353,1.248-1.761,1.679c0.487-0.308,1.263-0.748,1.795-0.935
							c0.523-0.192,0.811-0.126,0.098,0.421C94.54,72.934,94.78,72.722,94.557,72.755z M98.764,74.579
							c-0.56-0.023-2.126,0.02-0.84-0.119C100.567,74.296,99.423,74.46,98.764,74.579z M97.967,80.357
							c-0.324-0.356-0.014-0.287,0.621-0.067C98.587,80.437,98.411,80.496,97.967,80.357z M72.157,111.217
							c-0.009-0.024-0.016-0.043-0.025-0.068C72.792,111.369,72.543,111.273,72.157,111.217z M71.102,111.198
							c0.048,0.214,0.17,0.374,0.317,0.518c-0.165-0.332-0.025-0.463,0.211-0.506C71.36,110.937,71.119,110.788,71.102,111.198z
							 M83.337,48.566l-0.083,0.404C82.709,49.097,83.012,48.85,83.337,48.566z"/>
						<path fill="#414042" d="M97.032,78.592c0.259,0.115,0.527,0.255,0.797,0.397C97.631,78.832,97.354,78.684,97.032,78.592z"/>
						<path fill="#414042" d="M91.98,71.868c-0.001-0.015-0.012-0.017-0.015-0.03c-0.062,0.062-0.12,0.129-0.174,0.196L91.98,71.868
							z"/>
						<path fill="#414042" d="M74.63,93.585c0.263,0.068,0.496,0.228,0.708,0.412C75.139,93.704,74.9,93.507,74.63,93.585z"/>
						<path fill="#414042" d="M68.884,115.81l0.222-0.621c-0.171,0.211-0.432,0.008-0.673-0.102
							C68.639,115.354,69.007,115.692,68.884,115.81z"/>
						<path fill="#414042" d="M59.842,111.267c0.039,0.19-0.125,0.113-0.084,0.306l0.409,0.534
							C60.416,111.874,60.293,111.296,59.842,111.267z"/>
						<path fill="#414042" d="M65.677,112.191c-0.744-0.965-0.779-0.431-0.958-0.026c0.016-0.017,0.027-0.037,0.055-0.039
							C65.674,113.576,65.675,112.883,65.677,112.191z"/>
						<path fill="#414042" d="M64.671,112.25c-0.062,0.114-0.14,0.21-0.268,0.229C64.765,113.061,64.603,112.512,64.671,112.25z"/>
						<path fill="#414042" d="M70.698,112.48c-0.329-0.15,0.813,1.33,0.442,0.987C71.878,114.845,71.026,111.244,70.698,112.48z"/>
						<polygon fill="#414042" points="63.092,109.109 64.078,110.252 63.546,109.143 						"/>
						<path fill="#414042" d="M66.174,108.26l-0.736,0.015c0.154,0.2,0.178,0.365,0.166,0.513
							C65.938,108.609,66.445,108.614,66.174,108.26z"/>
						<path fill="#414042" d="M65.604,108.787c-0.175,0.089-0.308,0.224-0.252,0.486C65.428,109.199,65.584,109.026,65.604,108.787z
							"/>
						<polygon fill="#414042" points="63.505,108.259 63.833,108.409 64.246,108.249 						"/>
						<path fill="#414042" d="M71.651,104.697l0.289-0.735c-0.245-0.459-0.576-0.61-0.657-0.3
							C71.363,104.047,71.278,104.352,71.651,104.697z"/>
						<path fill="#414042" d="M67.626,102.516c0.327,0.15,0.532,0.416,0.902,0.76l-1.068-1.527L67.626,102.516z"/>
						<path fill="#414042" d="M68.945,101.038c-0.247-0.459-0.081-1.767-0.696-1.183C68.492,100.312,68.202,101.047,68.945,101.038z
							"/>
						<polygon fill="#414042" points="78.437,97.145 78.313,97.262 80.11,99.732 						"/>
						<path fill="#414042" d="M81.34,86.079c-1.065-0.139,0.945,1.642-0.164,1.312c0.271,0.694,0.905,0.269,1.115,0.886
							C82.233,87.382,82.687,87.587,81.34,86.079z"/>
						<path fill="#414042" d="M82.291,88.276c0.008,0.143,0.027,0.309,0.073,0.519C82.365,88.561,82.332,88.403,82.291,88.276z"/>
						<polygon fill="#414042" points="59.04,29.529 58.994,28.717 58.668,29.744 						"/>
						<path fill="#414042" d="M56.941,30.822l1.025-1.66l-1.264,1.265C56.846,30.423,57.123,30.413,56.941,30.822z"/>
						<path fill="#414042" d="M92.607,75.037l0.799-0.01c0.852-0.02,0.896-0.034,0.993-0.063L92.607,75.037z"/>
						<polygon fill="#414042" points="93.849,74.129 93.821,74.158 95.904,73.473 						"/>
						<path fill="#414042" d="M91.005,74.871c-0.058,0.049,0.277-0.195,0.226-0.14C90.967,74.934,92.774,73.433,91.005,74.871z"/>
					</g>
				</g>
			</g>
		</g>
	</g>
	<g>
		<g>
			<g>
				<g>
					<g>
						<path fill="#414042" d="M39.583,137.126c-0.251,0.068,0.625,0.974,0.743,1.169C40.449,137.827,39.366,136.882,39.583,137.126z
							"/>
						<polygon fill="#414042" points="40.726,132.426 41.003,132.862 40.633,131.53 						"/>
						<path fill="#414042" d="M43.53,130.088c-1.645-1.414-0.787,1.117-1.776,0.955l-0.396-0.304l0.888,1.506
							C42.673,131.526,42.72,129.989,43.53,130.088z"/>
						<path fill="#414042" d="M48.007,132.369c-0.63-0.56-0.141-0.82-0.515,0.094c0.092,0.041,0.136,0.072,0.199,0.108
							C47.742,132.511,47.827,132.442,48.007,132.369z"/>
						<path fill="#414042" d="M47.69,132.571C47.435,132.865,48.334,132.943,47.69,132.571L47.69,132.571z"/>
						<path fill="#414042" d="M48.739,131.061l0.093,0.896c0.399,0.307,0.815,0.101,0.917,0.482
							C49.884,131.792,49.487,131.487,48.739,131.061z"/>
						<path fill="#414042" d="M48.097,129.557l0.003,0.41C48.269,130.094,48.368,130.104,48.097,129.557z"/>
						<path fill="#414042" d="M48.104,130.833l-0.004-0.866c-0.279-0.218-0.733-0.743-0.04,0.348
							C47.685,129.801,47.995,130.337,48.104,130.833z"/>
						<path fill="#414042" d="M47.653,130.787c-0.518-0.173-0.988-0.159-1.078-1.054C46.025,130.584,47.105,131.643,47.653,130.787z
							"/>
						<path fill="#414042" d="M42.244,128.274l-0.695-0.233l0.212,0.761C41.657,128.424,42.694,128.772,42.244,128.274z"/>
						<path fill="#414042" d="M51.865,129.871c-0.27-0.369-0.914-0.818-1.318-1.239l0.051,0.641
							C50.946,129.387,51.41,129.371,51.865,129.871z"/>
						<path fill="#414042" d="M50.547,128.632l-0.078-0.958C50.028,127.926,50.198,128.269,50.547,128.632z"/>
						<polygon fill="#414042" points="46.633,127.682 46.99,129.531 46.753,127.551 						"/>
						<polygon fill="#414042" points="53.536,128.534 53.974,129.545 53.377,127.963 						"/>
						<path fill="#414042" d="M54.5,127.479c0.384,0.818,1.201,0.921,1.357,1.492c0.194-0.367-0.04-1.153-0.248-1.859
							C55.611,127.602,55.292,127.745,54.5,127.479z"/>
						<path fill="#414042" d="M55.354,126.04c0.015,0.261,0.133,0.652,0.255,1.071C55.606,126.849,55.545,126.521,55.354,126.04z"/>
						<path fill="#414042" d="M51.344,127.229c0.211,0.183,0.74,0.68,1.176,0.71l-0.995-0.837
							C51.469,127.142,51.407,127.186,51.344,127.229z"/>
						<path fill="#414042" d="M51.492,127.076l0.032,0.026c0.2-0.133,0.346-0.218,0.41-0.252
							C51.878,126.879,51.746,126.946,51.492,127.076z"/>
						<path fill="#414042" d="M51.298,127.261l0.046-0.031C51.246,127.147,51.209,127.123,51.298,127.261z"/>
						<path fill="#414042" d="M48.502,127.621c-0.211-0.76-0.183-1.79-1.396-2.196C47.493,126.247,48.185,126.478,48.502,127.621z"
							/>
						<path fill="#414042" d="M50.055,126.214l-0.643,0.159c0.227,0.252,0.627,0.56,0.732,0.937L50.055,126.214z"/>
						<polygon fill="#414042" points="50.014,125.715 50.055,126.214 50.293,126.154 						"/>
						<path fill="#414042" d="M53.803,125.78c-0.165-0.592,0.02-0.81,0.205-1.082c-0.423,0.027-0.779,0.149-1.033,0.367
							C53.2,125.403,53.554,126.05,53.803,125.78z"/>
						<path fill="#414042" d="M52.606,126.324c-0.004-0.034,0.003-0.06-0.003-0.093C52.506,126.171,52.462,126.162,52.606,126.324z"
							/>
						<path fill="#414042" d="M56.401,122.688c-0.06-0.046-0.126-0.097-0.189-0.145l0.134,0.176L56.401,122.688z"/>
						<path fill="#414042" d="M52.777,124.92c-0.354-0.024-0.269,0.313-0.125,0.71c0.063-0.222,0.164-0.416,0.323-0.564
							C52.875,124.913,52.8,124.818,52.777,124.92z"/>
						<path fill="#414042" d="M55.634,125.019c-0.275-0.118-0.537-0.194-0.793-0.252C55.202,124.993,55.813,125.305,55.634,125.019z
							"/>
						<path fill="#414042" d="M52.898,126.446c0.004,0.023,0.009,0.05,0.007,0.068C53.147,126.671,53.053,126.574,52.898,126.446z"
							/>
						<path fill="#414042" d="M52.898,126.446c-0.019-0.226-0.144-0.534-0.246-0.816c-0.053,0.178-0.075,0.376-0.049,0.602
							C52.687,126.28,52.799,126.365,52.898,126.446z"/>
						<path fill="#414042" d="M51.813,115.79c0.731,0.938,0.927,2.21-0.338,1.611c0.139,1.049,2.945,3.793,4.736,5.142
							c-0.32-0.408-0.629-0.774-0.634-1.688c-0.575-0.363-1.975-0.318-2.29-1.46c0.2-0.97,0.759-0.091,1.453,0.146
							c-1.201-0.924-0.634-2.285-2.168-3.839l-0.027,1.026C52.317,116.478,52.157,115.904,51.813,115.79z"/>
						<path fill="#414042" d="M55.278,123.173l-0.089,0.269c0.343-0.021,0.801,0.215,1.678,0.691
							c-0.066-0.703-0.287-1.094-0.521-1.414l-1.016,0.642L55.278,123.173z"/>
						<path fill="#414042" d="M54.362,124.145c-0.69-1.109-0.602-1.903-1.775-2.743c-0.485,0.526,0.316,1.146,0.354,1.849
							c0.668-0.984,0.213,0.762,1.319,0.788c-0.03,0.313-0.142,0.495-0.252,0.66c0.258-0.014,0.536,0.007,0.833,0.068
							c-0.028-0.018-0.047-0.029-0.072-0.045l-0.001,0.007l-0.013-0.016c-0.142-0.092-0.217-0.156-0.114-0.121
							c-0.008-0.014-0.001-0.027,0-0.035c-0.11-0.143-0.195-0.275-0.274-0.406c0.425-0.01,0.256,0.223,0.274,0.406
							c0.037,0.051,0.074,0.102,0.113,0.156l0.014,0.009l0.42-1.28C54.887,123.46,54.679,123.685,54.362,124.145z"/>
						<path fill="#414042" d="M45.78,122.906c0.101,0.064,0.159,0.136,0.222,0.206C45.956,122.943,45.908,122.842,45.78,122.906z"/>
						<path fill="#414042" d="M46.644,123.198c0.053,0.191,0.333,0.631,0.04,0.704c-0.43-0.145-0.399-0.474-0.683-0.79
							c0.097,0.366,0.162,1.077,0.959,1.226l-0.052-0.186c0.639,0.041,2.134,0.89,2.186,1.077
							C48.241,124.428,47.615,123.871,46.644,123.198z"/>
						<path fill="#414042" d="M50.315,123.398l0.321-1.102l-1.094-0.541l0.453,0.498C49.41,122.403,50.034,122.96,50.315,123.398z"
							/>
						<polygon fill="#414042" points="56.899,123.108 57.683,124.233 56.861,122.404 						"/>
						<polygon fill="#414042" points="57.741,122.183 58.473,123.12 58.261,122.36 						"/>
						<path fill="#414042" d="M89.112,73.448l-0.463,0.045C88.803,73.488,88.956,73.472,89.112,73.448z"/>
						<path fill="#414042" d="M89.601,73.977l0.767-0.11C89.922,73.907,89.609,73.95,89.601,73.977z"/>
						<path fill="#414042" d="M80.944,102.407c1.028,0.583,2.487,1.602,1.588,0.613l-0.936-0.912
							C81.528,102.471,81.268,102.501,80.944,102.407z"/>
						<path fill="#414042" d="M91.864,83.011c-0.117-0.068-0.24-0.141-0.362-0.212c0.237,0.383,0.445,0.747,0.639,1.091
							C92.057,83.621,91.963,83.322,91.864,83.011z"/>
						<path fill="#414042" d="M88.214,79.043c0,0,0.207,0.101,0.414,0.2c0.214,0.094,0.428,0.188,0.428,0.188
							C88.782,79.279,88.501,79.15,88.214,79.043z"/>
						<path fill="#414042" d="M83.358,70.303l-1.114,0.789C82.638,71.421,82.903,70.769,83.358,70.303z"/>
						<path fill="#414042" d="M67.144,113.612c0.598,0.16,0.95,0.143,1.179,0.032C67.517,113.348,66.531,112.712,67.144,113.612z"/>
						<path fill="#414042" d="M105.973,69.759c-0.489-0.11-0.889-0.105-1.227-0.014C105.212,69.853,105.632,69.887,105.973,69.759z"
							/>
						<path fill="#414042" d="M69.099,112.983c-0.131-0.06-0.221-0.07-0.34-0.113c-0.056,0.332-0.141,0.635-0.436,0.774
							C68.922,113.866,69.418,113.896,69.099,112.983z"/>
						<path fill="#414042" d="M53.601,43.18c0.016-0.063,0.007-0.108,0.032-0.177C53.512,43.13,53.536,43.164,53.601,43.18z"/>
						<path fill="#414042" d="M53.311,25.576c0.14,0.014,0.283,0.136,0.429,0.239C53.732,25.69,53.617,25.602,53.311,25.576z"/>
						<path fill="#414042" d="M61.923,119.394C61.777,119.628,61.984,119.53,61.923,119.394L61.923,119.394z"/>
						<path fill="#414042" d="M57.624,116.288c-0.052-0.148-0.139-0.318-0.328-0.552C57.481,115.99,57.582,116.166,57.624,116.288z"
							/>
						<path fill="#414042" d="M65.875,105.103l0.021-0.012C65.671,104.947,65.713,104.976,65.875,105.103z"/>
						<path fill="#414042" d="M61.239,119.197c0.179,0.058,0.352,0.086,0.507,0.078C61.639,119.233,61.479,119.203,61.239,119.197z"
							/>
						<path fill="#414042" d="M61.676,119.633c-0.106,0.014-0.182,0.035-0.257,0.053C61.535,119.872,61.645,119.957,61.676,119.633z
							"/>
						<path fill="#414042" d="M62.159,119.103c-0.103,0.113-0.25,0.157-0.413,0.173c0.096,0.034,0.159,0.076,0.177,0.118
							C61.969,119.328,62.036,119.237,62.159,119.103z"/>
						<path fill="#414042" d="M72.2,54.639c0.013-0.042,0.015-0.076,0.037-0.13C71.683,54.744,71.828,54.755,72.2,54.639z"/>
						<path fill="#414042" d="M77.457,87.66c-0.001,0.018,0.017,0.048,0.018,0.067c0.019,0.003,0.042,0.007,0.06,0.01L77.457,87.66z
							"/>
						<path fill="#414042" d="M77.554,86.31c0.738,1.497,0.435,1.493-0.02,1.428l2.66,2.665L77.554,86.31z"/>
						<path fill="#414042" d="M87.385,72.451c0,0-0.199,0.215-0.412,0.417c-0.211,0.204-0.437,0.395-0.437,0.395
							c-1.812,0.979-1.2,0.63-2.548,1.64c1.672-1.249,1.865-1.22,2.054-1.193c0.19,0.026,0.377,0.051,2.443-0.854
							c0,0-0.186,0.123-0.371,0.246c-0.191,0.117-0.384,0.234-0.384,0.234c0.011-0.043-0.239,0.059-0.226,0.017
							c-0.904,0.508-0.137,0.197,0.887-0.118c1.01-0.327,2.275-0.661,2.17-0.368c-0.2,0.239-0.812,0.492-1.449,0.581
							c0,0,0.359-0.022,0.719-0.046c0.373-0.01,0.746-0.021,0.746-0.021c-0.007,0.099-0.895,0.267-0.875,0.182l0.823,0.28
							l-0.158,0.022c0.876-0.09,2.343-0.127,3.008-0.108c-0.64,0.22-0.652,0.008-1.293,0.126c0,0,0.407,0.025,0.813,0.05
							c0.418,0.035,0.837,0.07,0.837,0.07c-1.35,0.23-2.992,0.165-2.935,0.015c-2.607,0.437-2.275,0.385-1.561,0.384
							c0.689-0.023,1.803,0.041,0.269,0.285l-0.901-0.095c-1.112,0.104-1.718,0.161-2.461,0.231
							c-0.357,0.034-0.547,0.07-1.639,0.079c0.579,0.003,1.94-0.021,3.286-0.101c1.356-0.072,2.71-0.189,3.59-0.1
							c-0.356,0.073-0.517,0.129,0.627,0.243c0.057,0.007,0.123,0.015,0.191,0.023c-2.23-0.013-1.787,0.079-1.817,0.212
							l-2.822-0.128c0.722,0.115,2.135,0.2,3.269,0.374c-0.475,0.153-2.549-0.04-4.271-0.225c-0.264,0.022,0.547,0.118,1.493,0.208
							c0.943,0.092,2.036,0.167,2.095,0.354c-1.219,0.068-0.29,0.311,0.672,1.001c-0.977-0.04-1.333-0.409-2.047-0.526
							c0,0,0.404,0.159,0.809,0.319c0.392,0.17,0.783,0.34,0.783,0.34c-0.089,0.027-0.601-0.155-0.862-0.246
							c0.511,0.346,2.152,0.692,2.4,1.165c1.098,0.457,0.062,0.321-0.882,0.154c-0.961-0.152-1.785-0.373-0.84,0.399
							c-0.591-0.214-1.054-0.649-1.776-1.012c0.548,0.568,0.688,0.825,0.909,1.101c0.211,0.286,0.506,0.589,1.119,1.459
							c0,0-0.361-0.107-0.704-0.23c-0.344-0.121-0.67-0.259-0.67-0.259c1.382,0.721,2.36,2.125,2.809,3.58
							c0.642,0.368,1.233,0.667,1.548,0.78c0,0-0.045,0.375-0.09,0.751c-0.063,0.39-0.127,0.78-0.127,0.78
							c-0.326-0.137-0.653-0.723-1.055-1.433c0.054,0.172,0.106,0.338,0.149,0.476c-0.779-0.27-1.303-1.277-1.85-2.219
							c0.351,0.215,0.709,0.436,1.062,0.652c-0.611-1.01-1.414-2.021-2.255-2.781c0.127,0.182,0.196,0.373,0.195,0.514
							c-0.186-0.258-0.365-0.476-0.515-0.601c-0.159-0.13,0.092,0.214,0.337,0.647c0,0-0.391-0.37-0.782-0.739
							c-0.382-0.377-0.765-0.754-0.765-0.754l0.541,0.655c0,0-0.091-0.033-0.228-0.082c-0.154-0.033-0.413-0.034-0.647-0.055
							c-0.48-0.032-0.961-0.065-0.961-0.065c0.633,2.284,2.021,5.262,1.39,6.951c-0.714-1.45-1.589-2.012-2.772-3.445
							c1.597,1.227,0.391-1.425,1.271-1.645c-0.458,0.116-0.958-0.621-1.075-0.927l0.046,2.305
							c-0.957-1.183-0.972-0.672-1.668-0.906c2.158,2.109,0.465,2.228,0.607,3.312c-0.679-0.747-1.235-1.625-0.527-1.905
							c-2.067-1.214,1.491,3.359-0.345,2.395c0.118-0.132,0.29-0.074,0.013-0.511c0.265,0.95-0.962,1.056-1.349,0.232l0.121-0.13
							c-1.123,0.482-2.733,2.28-1.221,4.343c-0.221-0.245-1.867-2.449-2.146-2.889l3.947,7.904
							c-1.273-1.792-5.181-5.324-5.239-6.896c-0.414-0.059-0.912-0.114-0.861,0.854c0.346,0.116,2.406,2.115,2.338,2.436
							c-2.119-1.404-1.221-0.678-3.233-1.7c0.521,0.176,2.497,3.005,2.082,3.212c-0.277-0.439-2.218-2.568-2.322-2.947l1.321,3.3
							c-0.179-0.645-1.808-2.216-2.614-2.783c0.515,0.43-0.779,0.578-0.792,1.025l0.867,0.291c-1.294,0.427,2.108,4.431,1.036,5.104
							c-0.335-0.63-2.481-3.519-3.243-3.432c0.892,1.51,4.375,7.185,4.385,8.917l-0.8-0.617l0.075,1.409
							c-1.272-2.328-3.667-7.468-4.419-9.618c-0.866-0.292-0.852-0.805-1.335-0.279c-0.789-0.546-0.611-1.322-0.487-1.498
							l-1.646,0.607c1.358,1.495,0.341,2.359,1.474,3.603l0.02-2.753c1.354,1.49,2.902,5.042,1.78,5.524
							c-0.745-0.422-2.147-2.887-2.599-3.385c0.332,0.629,0.008,1.729-0.392,1.422l-0.316-1.145
							c-0.987-0.159,0.913,2.729-0.926,1.763c-0.29,0.076-2.292-1.464-1.557-0.521c1.821,1.474,6.481,6.856,7.373,8.366
							c-0.173-0.058-2.503-0.766-3.471-1.437c-1.504-1.091-2.266-3.716-3.555-4.655c0.342,0.432,0.593,1.109,0.656,1.342
							c-0.52-0.177-1.011-1.379-1.321-0.791c1.242,1.628-1.068,0.676,0.894,1.508c-0.083,0.835-0.761,0.092-1.244,0.616
							c1.025,0.864,2.417,3.846,2.332,4.681c-0.309-0.42-0.849-0.85-1.098-1.044c-1.062,0.656-2.168,0.374-3.059,1.104
							c-0.401-0.31-1.212-0.408-1.599-1.233c0.106,0.383,0.438,1.01,0.199,1.277c-1.666-0.907,0.427-0.721-1.344-2.006
							c0.732,0.937,0.356,1.845,0.449,2.739c1.304,1.301,1.12-0.486,1.029-1.379c1.634,1.933,2.672,4.526,2.508,6.197
							c-0.325,1.097-1.373-0.982-1.267-0.6c-1.657,0.82,1.684,4.364-0.635,3.932c-1.493-0.851-2.091-2.435-2.942-3.238
							c0.201-0.969,1.574,0.011,1.936-0.38l-0.989-0.163c-0.156-0.57-0.022-1.217,0.496-1.042c-1.313-0.787-2.497,1.745-4.42,1.619
							c0.161,0.571,0.197,1.273,0.77,1.639l0.189-0.455c1.147,0.733,0.53,1.907,1.347,2.013c0.14,1.078,0.564,2.602-0.543,2.574
							l-1.306-1.306c0.36,0.4,1.12,0.488,0.936-0.091c0.263,0.847-2.576-1.082-1.311,1.002l1.266,0.599
							c0.145,1.088,0.847,3.051-0.088,3.082c1.428,1.171-0.004-0.269,1.765,1.019c-2.051-1.729,1.506-1.127-0.842-2.781
							c2.001,1.539,1.383,0.201,3.275,1.356c-0.408-0.449-0.938-0.726-0.275-0.895c-0.093-0.153-0.188-0.369-0.241-0.496
							c0.024,0,0.036,0.004,0.061,0.008l-0.072-0.033c-0.039-0.087-0.049-0.103-0.026-0.011c-0.283-0.107-0.58-0.275-0.836-0.502
							c-0.665-1.262,0.112-1.861-0.1-2.625c0.466-0.016,0.332,0.631,0.903,0.996l-0.318-1.144c0.908,0.998,2.187,1.083,2.038,2.242
							l0.631-0.454c0.837,0.282,1.51,0.107,1.44-0.576c0.468-0.014-0.257-1.735,0.181-0.724l0.39-1.423l0.226,0.251
							c1.027-0.645,0.447-3.298,3.064-2.325c0.09-0.521,0.14-1.107,0.903-1.252l0.853,0.806c0.133-0.646,1.942-0.114,1.328-1.186
							c2.451,2.035,2.364-1.102,3.42-1.265l-0.956-1.185c0.536-0.339,0.717-1.058,0.918-2.027l-0.904-0.996
							c-0.2-1.277,1.937-0.384,2.659-1.175c0.277,0.439-0.017,0.511-0.362,0.396c2.931,1.501,0.62-3.417,2.928-2.47
							c-0.097-0.559,0.17-0.565,0.542-0.437c-0.019,0.02-0.021,0.055-0.009,0.1c0.032-0.007,0.067-0.032,0.1-0.063
							c0.246,0.096,0.521,0.217,0.767,0.29c-0.302-0.172-0.563-0.304-0.721-0.334c0.151-0.164,0.3-0.509,0.334-0.979l1.039,1.014
							c0.008-0.032,0.026-0.044,0.031-0.081c0.591,0.199-0.243-0.69-1.076-1.408c-0.026-0.289-0.095-0.605-0.23-0.947
							c1.706,1.612,0.153-1.157,2.031,0.513c-0.613-1.07,0.675-1.765-0.838-3.827c0.223,0.247,0.399,0.305,0.277,0.436
							c0.468-0.015,0.935-0.029,0.722-0.791l1.304,1.304l-0.981-2.404c1.095,0.541,1.667,0.908,2.211,2.3
							c-0.512-2.414,0.194-1.236-0.438-3.522l0.729,0.938c0.242-0.264-0.352-1.845,0.444-1.232c2.063,1.212,3.199-2.294,6.109-2.006
							c-2.559-2.416,1.733,0.587,0.047-1.535c0.623,0.555,1.142,0.729,1.354,1.49c0.269-1.291,2.038-0.005,1.112-2.215
							c0.626,0.559,0.612,1.07,1.009,1.378c-0.051-0.19-0.211-0.763,0.19-0.456c0.398,0.308,0.331,0.629,0.438,1.011
							c0.724-0.794-0.85-2.802-2.318-4.692c1.272,0.408,1.521-0.012,0.752-1.415c0.738,0.399,1.703,0.657,1.195,1.454
							c0.435-0.218,3.441-1.406,1.813-2.541c0.543,0.179,0.666-0.376,0.561-0.576c0.952-0.655,1.208-0.645,1.867-1.439l-0.549,0.053
							c-2.034-1.31,0.116-0.772,0.479-1.443l0.241,0.107c1.664-0.313,1.637-0.553,1.589-0.735c-0.027-0.2-0.079-0.341,1.856-0.729
							l-1.854-0.316c-1.833-0.478-1.013-0.573,0.27-0.746c1.269-0.162,3.06-0.451,2.687-0.911l-1.422,0.126
							c-0.5-0.271,1.225-0.352,3.32-0.508c2.084-0.146,4.543-0.373,5.128-0.614c0.526-0.092,0.433,0.2,0.535,0.374
							c4.293-1.236-2.554-0.311-2.147-1.227c1.563-0.137,3.241,0.202,4.368-0.203c0.025-0.046,0.011-0.109-0.047-0.187
							c0.425-0.176-1.435-0.692-3.061-1.192c-1.644-0.515-3.035-0.999-2.223-1.585c-0.829,0.32-1.721,0.583-2.979,0.273
							c-0.536-0.278-0.028-0.817,0.06-1.358c0.1-0.531-0.208-1.051-2.016-0.98c0.163-0.142,0.371-0.233,0.599-0.294
							c-1.338-0.313-3.055-1.238-4.762-0.944c2.413-1.2,0.823-1.774-0.551-2.099c-1.396-0.343-2.621-0.475-0.669-1.816l-1.933-1.346
							l0.4-0.272c-0.912-1.188-2.122-0.782-3.135-0.202c0.03-0.386,0.437-0.6,0.608-0.77c-0.491-1.646-0.729-1.592-3.139-0.657
							l0.876-1.208c-0.814,0.439-0.06-3.133-2.268-2.748c0.12-0.118,0.331-0.317,0.554-0.402c-2.35,0.276-0.199-5.622-4.181-1.905
							l-1.671,0.321c0.758,1.209-1.688,1.646-1.853,2.693c-0.613-0.109,0.019-2.143,0.699-1.922l-0.099,0.273
							c2.027-1.979-0.629-1.865,0.654-3.296c-2.121-1.648-3.079-4.541-4.903-6.274l-1.215,1.85l-0.581-0.668
							c0.16-0.538,0.888-1.501,1.302-1.024c0.564-1.156-1.475,0.103-1.8,0.453c-0.346-1.473,2.034-1.624,1.784-1.91l-0.493-0.208
							l-0.08,0.269c-0.898,0.408-1.548,1.104-2.047,0.53c-0.072-0.644,0.7-1.184,0.614-1.371c0.103-0.116,0.103-0.213-0.176-0.235
							l-0.713-0.864l-0.799,1.601c-0.929,0.326-0.728-0.749-1.624,1.07c1.412-2.779-2.409-3.516-2.142-4.526
							c-1.344,0.508-1.842,0.048-2.377-0.615c-0.078,0.409-1.257,1.965-1.648,1.312c2.827-2.87,0.138-2.186,1.585-4.757
							c-0.858,1.792-1.865-0.985-3.025,1.611c-0.244-0.641,0.956-1.163,1.227-2.178c-2.105,0.24-1.733-2.834-3.421-3.598
							c-0.366,0.381-0.667,1.187-1.47,1.532l1.015-2.609c-0.435-0.033-2.235,2.094-1.522,0.29c-0.222,0.395-0.557,0.99-0.846,0.964
							c-0.952-4.219-6.755-3.051-6.271-9.016c-0.306,1.086-0.613,0.955-0.915,0.744c0.02,0.341-0.856,0.984-1.288,1.555l0.179-2.47
							c-1.501,1.326-1.288-0.935-2.645,0.4l0.577,0.047c-1.935,1.289-2.593,4.337-4.541,6.453c2.192-1.471-1.073,4.056,2.175,2.045
							c-0.192,0.608-0.769,0.559-1.101,1.152c1.024-0.743,1.457-0.708,1.587,0.134l-0.254,0.183
							c1.576,0.964,1.375,2.395,2.396,4.345l0.814-1.175c0.208,0.432-0.012,0.83-0.089,1.233c1.791-1.301-0.856-0.899,1.045-2.397
							c-1.448,2.57,2.32,2.062,0.471,4.806c0.501,0.456,0.925-1.375,1.425-0.917L54.046,42l0.878-0.755
							c0.212,0.433-0.345,1.42-0.824,2.001c-0.023-0.138-0.369-0.041-0.499-0.067c-0.249,1.169,1.462,0.791,1.389,1.178l-0.134-0.84
							c1.942,0.578,2.887,2.936,5.419,2.735l0.336-0.596c1.843-0.048,0.345,1.271,1.854,1.815l-0.146,0.085
							c0.664-0.31,1.187-0.303,1.447,0.022c-0.799,0.347-0.46,1.62-1.403,1.953c1.99-0.042,1.238-0.313,3.605-1.561l-0.556,0.989
							c0.909-0.544,1.277-0.928,2.031-0.658c-1.088,0.322-0.747,1.595-2.091,2.102c-0.403,2.867,3.369-0.336,1.588,2.827
							c2.557-1.86,0.09-2.181,0.826-2.417c0.402-0.982,1.954-1.353,2.125-0.797c0.334,0.379-1.93,3.538-0.937,4.318
							c-0.086-0.094-0.245,0.077-0.331-0.015c-0.156,0.903,1.395-0.201,0.999,1.143c1.462-1.197,0.5,0.572,2.122-1.164l-1.234-0.34
							c0.902-0.042,3.183-1.743,3.12-0.018c-0.376,0.308-1.031,0.575-1.428,0.697c-0.219,0.736,0.763,0.046,0.541,0.804
							c-1.625,1.738-1.402-0.527-3.117,0.385c-0.4,0.98,2.13-0.435,0.181,1.283c2.523-2.145,0.67,1.125,2.95-0.209l-0.973,1.041
							c0.249-0.082,0.9-0.407,1.064-0.217l-1.547,1.102c1.553-0.74,0.108,1.913,1.17,1.698c-1.079-0.874,0.886-1.501,1.121-2.671
							c2.541-0.323-1.689,3.462,0.208,4.198c-0.327-0.018-0.179-1.284,0.56-1.518c0.085,0.46,0.092,1.188-0.227,1.9
							c1.154,0.606,0.81-1.236,1.791-1.544c-0.807,1.596,0.934-0.126,1.717-0.183l-0.942,1.098c0.488,1.649,2.262-2.032,2.515-0.331
							l-1.729,1.159l0.853,0.052l-1.183,1.154c1.358-0.441,1.326-0.051,1.572,0.771c0.539-0.881,1.788-1.926,2.303-1.541
							c-0.23,0.937-1.084,0.88-0.262,1.318c-0.746,0.551-1.66,1.264-1.088-0.003c-0.339,0.331-0.747,0.555-1.083,0.88
							c-0.29,1.056,0.748,0.944,1.006,1.149c-0.061-0.124-0.124-0.281-0.048-0.488l2.308-0.657c-0.198,0.546-0.608,0.77-1.011,0.987
							c0.305,0.056,0.878-0.327,1.256-0.165c-0.845,0.824-1.62,1.759-2.402,1.815l1.803-0.168c-0.271,0.442-0.431,1.484-0.837,1.706
							c0.074,0.978,2.783-0.612,2.885,0.682c0.186-0.142,0.4-0.244,0.659-0.244c0.481,0.769,0.12,2.363,1.952,1.813
							c-0.001,0-0.91,2.001-1.023,1.903c0.205-0.139,0.644-0.638,1.081-1.19c0.445-0.545,0.888-1.145,1.393-1.235
							c0.809-0.19-1.186,1.353-1.54,1.823c0.436-0.327,1.132-0.792,1.616-0.979c0.478-0.195,0.748-0.108,0.116,0.48
							C87.379,72.652,87.591,72.423,87.385,72.451z M91.414,74.696c-0.522-0.051-1.979-0.07-0.79-0.171
							C93.078,74.454,92.021,74.59,91.414,74.696z M88.969,81.814c-0.199-0.458,0.122-0.419,0.667-0.162
							C89.573,81.86,89.383,81.951,88.969,81.814z M63.368,116.632c-0.011-0.024-0.019-0.042-0.03-0.067
							C64.03,116.719,63.77,116.647,63.368,116.632z M62.282,116.727c0.062,0.212,0.196,0.361,0.355,0.491
							c-0.188-0.32-0.052-0.468,0.188-0.537C62.533,116.432,62.275,116.307,62.282,116.727z M76.438,45.428l-0.116,0.399
							C75.754,45.888,76.083,45.675,76.438,45.428z"/>
						<path fill="#414042" d="M88.646,79.496c0.198,0.152,0.399,0.335,0.602,0.521C89.109,79.815,88.901,79.623,88.646,79.496z"/>
						<path fill="#414042" d="M83.564,70.157c0-0.016-0.01-0.019-0.012-0.032c-0.069,0.054-0.134,0.115-0.194,0.177L83.564,70.157z"
							/>
						<path fill="#414042" d="M64.904,98.448c0.274,0.041,0.524,0.178,0.752,0.343C65.435,98.514,65.178,98.34,64.904,98.448z"/>
						<path fill="#414042" d="M60.264,121.651l0.192-0.655c-0.164,0.232-0.443,0.054-0.699-0.031
							C59.986,121.215,60.384,121.519,60.264,121.651z"/>
						<path fill="#414042" d="M50.701,118.006c0.05,0.188-0.123,0.128-0.069,0.318l0.451,0.499
							C51.326,118.561,51.166,117.986,50.701,118.006z"/>
						<path fill="#414042" d="M56.757,118.318c-0.82-0.9-0.827-0.354-0.987,0.076c0.015-0.02,0.026-0.041,0.054-0.046
							C56.833,119.727,56.794,119.021,56.757,118.318z"/>
						<path fill="#414042" d="M55.726,118.485c-0.058,0.123-0.132,0.229-0.262,0.262C55.868,119.299,55.669,118.759,55.726,118.485z
							"/>
						<path fill="#414042" d="M61.94,118.072c-0.347-0.117,0.914,1.266,0.511,0.956C63.29,120.349,62.207,116.78,61.94,118.072z"/>
						<polygon fill="#414042" points="53.921,115.464 55,116.519 54.39,115.449 						"/>
						<path fill="#414042" d="M57.043,114.27l-0.756,0.094c0.17,0.187,0.204,0.352,0.2,0.503
							C56.82,114.65,57.342,114.601,57.043,114.27z"/>
						<path fill="#414042" d="M56.487,114.866c-0.175,0.109-0.304,0.26-0.232,0.521C56.33,115.304,56.48,115.111,56.487,114.866z"/>
						<polygon fill="#414042" points="54.297,114.555 54.644,114.673 55.059,114.466 						"/>
						<path fill="#414042" d="M62.475,110.061l0.255-0.778c-0.279-0.44-0.627-0.558-0.693-0.233
							C62.141,109.43,62.072,109.75,62.475,110.061z"/>
						<path fill="#414042" d="M58.209,108.276c0.345,0.117,0.571,0.365,0.972,0.675l-1.187-1.438L58.209,108.276z"/>
						<path fill="#414042" d="M59.481,106.633c-0.281-0.44-0.185-1.787-0.784-1.127C58.974,105.943,58.717,106.722,59.481,106.633z"
							/>
						<polygon fill="#414042" points="69.024,101.656 68.904,101.788 70.895,104.106 						"/>
						<path fill="#414042" d="M71.378,90.1c-1.104-0.026,1.066,1.566-0.094,1.35c0.318,0.677,0.947,0.176,1.198,0.781
							C72.372,91.327,72.85,91.487,71.378,90.1z"/>
						<path fill="#414042" d="M72.483,92.23c0.016,0.144,0.046,0.311,0.105,0.519C72.575,92.511,72.533,92.355,72.483,92.23z"/>
						<polygon fill="#414042" points="52.911,23.062 52.925,22.233 52.513,23.234 						"/>
						<path fill="#414042" d="M50.657,24.111l1.178-1.555l-1.393,1.125C50.589,23.694,50.875,23.719,50.657,24.111z"/>
						<path fill="#414042" d="M85.619,74.948l0.699,0.022c0.768,0.016,0.844,0.001,1-0.027L85.619,74.948z"/>
						<path fill="#414042" d="M86.807,73.976l-0.023,0.031c0,0,0.479-0.168,0.957-0.337c0.472-0.174,0.943-0.349,0.943-0.349
							L86.807,73.976z"/>
						<path fill="#414042" d="M84.201,74.692c-0.051,0.053,0.247-0.209,0.202-0.149C84.169,74.761,85.765,73.141,84.201,74.692z"/>
					</g>
				</g>
			</g>
		</g>
	</g>
</g>
</svg>
